<svg xmlns="http://www.w3.org/2000/svg" viewBox="0 0 864 72"><defs><style>.cls-1{fill:none;}.cls-2{fill:#59bce4;}</style></defs><title>analytics</title><g id="Layer_2" data-name="Layer 2"><g id="Layer_1-2" data-name="Layer 1"><rect class="cls-1" width="72" height="72"/><rect class="cls-1" x="72" width="72" height="72"/><rect class="cls-1" x="144" width="72" height="72"/><rect class="cls-1" x="216" width="72" height="72"/><rect class="cls-1" x="288" width="72" height="72"/><rect class="cls-1" x="360" width="72" height="72"/><rect class="cls-1" x="432" width="72" height="72"/><rect class="cls-1" x="504" width="72" height="72"/><rect class="cls-1" x="576" width="72" height="72"/><rect class="cls-1" x="648" width="72" height="72"/><rect class="cls-1" x="720" width="72" height="72"/><rect class="cls-1" x="792" width="72" height="72"/><path class="cls-2" d="M59.31,48.43h-42V18.91a1.55,1.55,0,0,0-1.55-1.56H12.69a1.55,1.55,0,0,0-1.55,1.56V51.54a3.1,3.1,0,0,0,3.1,3.11H59.31a1.55,1.55,0,0,0,1.55-1.56V50A1.55,1.55,0,0,0,59.31,48.43Zm-3.11-28H44.74a2.33,2.33,0,0,0-1.65,4l3.14,3.15-7.12,7.12L32,27.59a3.09,3.09,0,0,0-4.39,0l-6.67,6.67a1.55,1.55,0,0,0,0,2.2l2.19,2.19a1.55,1.55,0,0,0,2.2,0l4.47-4.47,7.13,7.12a3.09,3.09,0,0,0,4.39,0L50.63,32l3.15,3.15a2.32,2.32,0,0,0,4-1.65V22A1.54,1.54,0,0,0,56.2,20.46Z"/><path class="cls-2" d="M635.31,48.43h-42V18.91a1.55,1.55,0,0,0-1.55-1.56h-3.11a1.55,1.55,0,0,0-1.55,1.56V51.54a3.1,3.1,0,0,0,3.1,3.11h45.07a1.55,1.55,0,0,0,1.55-1.56V50A1.55,1.55,0,0,0,635.31,48.43Zm-3.11-28H620.74a2.33,2.33,0,0,0-1.65,4l3.14,3.15-7.12,7.12L608,27.59a3.09,3.09,0,0,0-4.39,0l-6.67,6.67a1.55,1.55,0,0,0,0,2.2l2.19,2.19a1.55,1.55,0,0,0,2.2,0l4.47-4.47,7.13,7.12a3.09,3.09,0,0,0,4.39,0L626.63,32l3.15,3.15a2.32,2.32,0,0,0,4-1.65V22A1.54,1.54,0,0,0,632.2,20.46Z"/><path class="cls-2" d="M707.31,48.43h-42V18.91a1.55,1.55,0,0,0-1.55-1.56h-3.11a1.55,1.55,0,0,0-1.55,1.56V51.54a3.1,3.1,0,0,0,3.1,3.11h45.07a1.55,1.55,0,0,0,1.55-1.56V50A1.55,1.55,0,0,0,707.31,48.43Zm-3.11-28H692.74a2.33,2.33,0,0,0-1.65,4l3.14,3.15-7.12,7.12L680,27.59a3.09,3.09,0,0,0-4.39,0l-6.67,6.67a1.55,1.55,0,0,0,0,2.2l2.19,2.19a1.55,1.55,0,0,0,2.2,0l4.47-4.47,7.13,7.12a3.09,3.09,0,0,0,4.39,0L698.63,32l3.15,3.15a2.32,2.32,0,0,0,4-1.65V22A1.54,1.54,0,0,0,704.2,20.46Z"/><path class="cls-2" d="M779.31,48.43h-42V18.91a1.55,1.55,0,0,0-1.55-1.56h-3.11a1.55,1.55,0,0,0-1.55,1.56V51.54a3.1,3.1,0,0,0,3.1,3.11h45.07a1.55,1.55,0,0,0,1.55-1.56V50A1.55,1.55,0,0,0,779.31,48.43Zm-3.11-28H764.74a2.33,2.33,0,0,0-1.65,4l3.14,3.15-7.12,7.12L752,27.59a3.09,3.09,0,0,0-4.39,0l-6.67,6.67a1.55,1.55,0,0,0,0,2.2l2.19,2.19a1.55,1.55,0,0,0,2.2,0l4.47-4.47,7.13,7.12a3.09,3.09,0,0,0,4.39,0L770.63,32l3.15,3.15a2.32,2.32,0,0,0,4-1.65V22A1.54,1.54,0,0,0,776.2,20.46Z"/><path class="cls-2" d="M851.31,48.43h-42V18.91a1.55,1.55,0,0,0-1.55-1.56h-3.11a1.55,1.55,0,0,0-1.55,1.56V51.54a3.1,3.1,0,0,0,3.1,3.11h45.07a1.55,1.55,0,0,0,1.55-1.56V50A1.55,1.55,0,0,0,851.31,48.43Zm-3.11-28H836.74a2.33,2.33,0,0,0-1.65,4l3.14,3.15-7.12,7.12L824,27.59a3.09,3.09,0,0,0-4.39,0l-6.67,6.67a1.55,1.55,0,0,0,0,2.2l2.19,2.19a1.55,1.55,0,0,0,2.2,0l4.47-4.47,7.13,7.12a3.09,3.09,0,0,0,4.39,0L842.63,32l3.15,3.15a2.32,2.32,0,0,0,4-1.65V22A1.54,1.54,0,0,0,848.2,20.46Z"/><path class="cls-2" d="M131.31,48.43h-42V18.91a1.55,1.55,0,0,0-1.55-1.56H84.69a1.55,1.55,0,0,0-1.55,1.56V51.54a3.1,3.1,0,0,0,3.1,3.11h45.07a1.55,1.55,0,0,0,1.55-1.56V50A1.55,1.55,0,0,0,131.31,48.43Z"/><path class="cls-2" d="M93.8,33.37l-.88.89a1.55,1.55,0,0,0,0,2.2l2.19,2.19a1.55,1.55,0,0,0,2.2,0l.89-.88Z"/><path class="cls-2" d="M203.31,48.43h-42V18.91a1.55,1.55,0,0,0-1.55-1.56h-3.11a1.55,1.55,0,0,0-1.55,1.56V51.54a3.1,3.1,0,0,0,3.1,3.11h45.07a1.55,1.55,0,0,0,1.55-1.56V50A1.55,1.55,0,0,0,203.31,48.43Z"/><path class="cls-2" d="M169.36,29.81l-4.44,4.45a1.55,1.55,0,0,0,0,2.2l2.19,2.19a1.55,1.55,0,0,0,2.2,0l4.44-4.44Z"/><path class="cls-2" d="M275.31,48.43h-42V18.91a1.55,1.55,0,0,0-1.55-1.56h-3.11a1.55,1.55,0,0,0-1.55,1.56V51.54a3.1,3.1,0,0,0,3.1,3.11h45.07a1.55,1.55,0,0,0,1.55-1.56V50A1.55,1.55,0,0,0,275.31,48.43Z"/><path class="cls-2" d="M245.77,26.68a3,3,0,0,0-2.18.91l-6.67,6.67a1.55,1.55,0,0,0,0,2.2l2.19,2.19a1.55,1.55,0,0,0,2.2,0l4.46-4.46Z"/><path class="cls-2" d="M347.31,48.43h-42V18.91a1.55,1.55,0,0,0-1.55-1.56h-3.11a1.55,1.55,0,0,0-1.55,1.56V51.54a3.1,3.1,0,0,0,3.1,3.11h45.07a1.55,1.55,0,0,0,1.55-1.56V50A1.55,1.55,0,0,0,347.31,48.43Z"/><path class="cls-2" d="M327,34.6l-7-7a3.09,3.09,0,0,0-4.39,0l-6.67,6.67a1.55,1.55,0,0,0,0,2.2l2.19,2.19a1.55,1.55,0,0,0,2.2,0l4.47-4.47L322.6,39Z"/><path class="cls-2" d="M419.31,48.43h-42V18.91a1.55,1.55,0,0,0-1.55-1.56h-3.11a1.55,1.55,0,0,0-1.55,1.56V51.54a3.1,3.1,0,0,0,3.1,3.11h45.07a1.55,1.55,0,0,0,1.55-1.56V50A1.55,1.55,0,0,0,419.31,48.43Z"/><path class="cls-2" d="M399.28,34.54l-.17.17L392,27.59a3.09,3.09,0,0,0-4.39,0l-6.67,6.67a1.55,1.55,0,0,0,0,2.2l2.19,2.19a1.55,1.55,0,0,0,2.2,0l4.47-4.47,7.13,7.12a3.09,3.09,0,0,0,4.39,0l2.38-2.37Z"/><path class="cls-2" d="M491.31,48.43h-42V18.91a1.55,1.55,0,0,0-1.55-1.56h-3.11a1.55,1.55,0,0,0-1.55,1.56V51.54a3.1,3.1,0,0,0,3.1,3.11h45.07a1.55,1.55,0,0,0,1.55-1.56V50A1.55,1.55,0,0,0,491.31,48.43Z"/><path class="cls-2" d="M475.66,20.72a2.33,2.33,0,0,0-.57,3.72l3.14,3.15-7.12,7.12L464,27.59a3.09,3.09,0,0,0-4.39,0l-6.67,6.67a1.55,1.55,0,0,0,0,2.2l2.19,2.19a1.55,1.55,0,0,0,2.2,0l4.47-4.47,7.13,7.12a3.09,3.09,0,0,0,4.39,0L482.63,32l3.15,3.15a2.34,2.34,0,0,0,3.72-.58Z"/><path class="cls-2" d="M563.31,48.43h-42V18.91a1.55,1.55,0,0,0-1.55-1.56h-3.11a1.55,1.55,0,0,0-1.55,1.56V51.54a3.1,3.1,0,0,0,3.1,3.11h45.07a1.55,1.55,0,0,0,1.55-1.56V50A1.55,1.55,0,0,0,563.31,48.43Z"/><path class="cls-2" d="M555.78,20.46h-7a2.33,2.33,0,0,0-1.65,4l3.14,3.15-7.12,7.12L536,27.59a3.09,3.09,0,0,0-4.39,0l-6.67,6.67a1.55,1.55,0,0,0,0,2.2l2.19,2.19a1.55,1.55,0,0,0,2.2,0l4.47-4.47,7.13,7.12a3.09,3.09,0,0,0,4.39,0L554.63,32l3.15,3.15a2.32,2.32,0,0,0,4-1.65v-7Z"/></g></g></svg>