<svg xmlns="http://www.w3.org/2000/svg" viewBox="0 0 72 72"><defs><style>.cls-1{fill:none;}.cls-2{fill:#59bce4;}</style></defs><title>analytics-s</title><g id="Layer_2" data-name="Layer 2"><g id="Layer_1-2" data-name="Layer 1"><rect class="cls-1" width="72" height="72"/><path class="cls-2" d="M59.31,48.43h-42V18.91a1.55,1.55,0,0,0-1.55-1.56H12.69a1.55,1.55,0,0,0-1.55,1.56V51.54a3.1,3.1,0,0,0,3.1,3.11H59.31a1.55,1.55,0,0,0,1.55-1.56V50A1.55,1.55,0,0,0,59.31,48.43Zm-3.11-28H44.74a2.33,2.33,0,0,0-1.65,4l3.14,3.15-7.12,7.12L32,27.59a3.09,3.09,0,0,0-4.39,0l-6.67,6.67a1.55,1.55,0,0,0,0,2.2l2.19,2.19a1.55,1.55,0,0,0,2.2,0l4.47-4.47,7.13,7.12a3.09,3.09,0,0,0,4.39,0L50.63,32l3.15,3.15a2.32,2.32,0,0,0,4-1.65V22A1.54,1.54,0,0,0,56.2,20.46Z"/></g></g></svg>