<svg xmlns="http://www.w3.org/2000/svg" viewBox="0 0 72 72"><defs><style>.cls-1{fill:none;}.cls-2{fill:#6f7ead;}</style></defs><title>deactivate-ns</title><g id="Layer_2" data-name="Layer 2"><g id="Layer_1-2" data-name="Layer 1"><rect class="cls-1" width="72" height="72"/><path class="cls-2" d="M61.25,37.75,43.94,55.06a2.48,2.48,0,0,1-4.23-1.75V43.42h-14A2.47,2.47,0,0,1,23.22,41v-9.9a2.47,2.47,0,0,1,2.48-2.47h14V18.69a2.48,2.48,0,0,1,4.23-1.76L61.25,34.25A2.49,2.49,0,0,1,61.25,37.75ZM29.82,54.55V50.43a1.25,1.25,0,0,0-1.24-1.24H19.93a3.29,3.29,0,0,1-3.3-3.3V26.11a3.29,3.29,0,0,1,3.3-3.3h8.65a1.25,1.25,0,0,0,1.24-1.24V17.45a1.25,1.25,0,0,0-1.24-1.24H19.93a9.9,9.9,0,0,0-9.9,9.9V45.89a9.89,9.89,0,0,0,9.9,9.89h8.65A1.24,1.24,0,0,0,29.82,54.55Z"/></g></g></svg>