<svg xmlns="http://www.w3.org/2000/svg" viewBox="0 0 864 72"><defs><style>.cls-1{fill:none;}.cls-2{fill:#59bce4;}</style></defs><title>deactivate_1</title><g id="Layer_2" data-name="Layer 2"><g id="Layer_1-2" data-name="Layer 1"><rect class="cls-1" width="864" height="72"/><path class="cls-2" d="M61.25,37.75,43.94,55.06a2.48,2.48,0,0,1-4.23-1.75V43.42h-14A2.47,2.47,0,0,1,23.22,41v-9.9a2.47,2.47,0,0,1,2.48-2.47h14V18.69a2.48,2.48,0,0,1,4.23-1.76L61.25,34.25A2.49,2.49,0,0,1,61.25,37.75ZM29.82,54.55V50.43a1.25,1.25,0,0,0-1.24-1.24H19.93a3.29,3.29,0,0,1-3.3-3.3V26.11a3.29,3.29,0,0,1,3.3-3.3h8.65a1.25,1.25,0,0,0,1.24-1.24V17.45a1.25,1.25,0,0,0-1.24-1.24H19.93a9.9,9.9,0,0,0-9.9,9.9V45.89a9.89,9.89,0,0,0,9.9,9.89h8.65A1.24,1.24,0,0,0,29.82,54.55Z"/><path class="cls-2" d="M132.09,37.75,114.77,55.06a2.47,2.47,0,0,1-4.22-1.75V43.42h-14A2.46,2.46,0,0,1,94.06,41v-9.9a2.46,2.46,0,0,1,2.47-2.47h14V18.69a2.48,2.48,0,0,1,4.22-1.76l17.32,17.32A2.49,2.49,0,0,1,132.09,37.75Z"/><path class="cls-2" d="M101.82,54.55V50.43a1.25,1.25,0,0,0-1.24-1.24H91.93a3.29,3.29,0,0,1-3.3-3.3V26.11a3.29,3.29,0,0,1,3.3-3.3h8.65a1.25,1.25,0,0,0,1.24-1.24V17.45a1.25,1.25,0,0,0-1.24-1.24H91.93a9.9,9.9,0,0,0-9.9,9.9V45.89a9.89,9.89,0,0,0,9.9,9.89h8.65A1.24,1.24,0,0,0,101.82,54.55Z"/><path class="cls-2" d="M203.18,37.75,185.87,55.06a2.47,2.47,0,0,1-4.22-1.75V43.42h-14A2.46,2.46,0,0,1,165.16,41v-9.9a2.46,2.46,0,0,1,2.47-2.47h14V18.69a2.48,2.48,0,0,1,4.22-1.76l17.31,17.32A2.49,2.49,0,0,1,203.18,37.75Z"/><path class="cls-2" d="M173.82,54.55V50.43a1.25,1.25,0,0,0-1.24-1.24h-8.65a3.29,3.29,0,0,1-3.3-3.3V26.11a3.29,3.29,0,0,1,3.3-3.3h8.65a1.25,1.25,0,0,0,1.24-1.24V17.45a1.25,1.25,0,0,0-1.24-1.24h-8.65a9.9,9.9,0,0,0-9.9,9.9V45.89a9.89,9.89,0,0,0,9.9,9.89h8.65A1.24,1.24,0,0,0,173.82,54.55Z"/><path class="cls-2" d="M277.25,37.75,259.94,55.06a2.48,2.48,0,0,1-4.23-1.75V43.42h-14A2.47,2.47,0,0,1,239.22,41v-9.9a2.47,2.47,0,0,1,2.48-2.47h14V18.69a2.48,2.48,0,0,1,4.23-1.76l17.31,17.32A2.49,2.49,0,0,1,277.25,37.75Z"/><path class="cls-2" d="M245.82,54.55V50.43a1.25,1.25,0,0,0-1.24-1.24h-8.65a3.29,3.29,0,0,1-3.3-3.3V26.11a3.29,3.29,0,0,1,3.3-3.3h8.65a1.25,1.25,0,0,0,1.24-1.24V17.45a1.25,1.25,0,0,0-1.24-1.24h-8.65a9.9,9.9,0,0,0-9.9,9.9V45.89a9.89,9.89,0,0,0,9.9,9.89h8.65A1.24,1.24,0,0,0,245.82,54.55Z"/><path class="cls-2" d="M317.82,54.55V50.43a1.25,1.25,0,0,0-1.24-1.24h-8.65a3.29,3.29,0,0,1-3.3-3.3V26.11a3.29,3.29,0,0,1,3.3-3.3h8.65a1.25,1.25,0,0,0,1.24-1.24V17.45a1.25,1.25,0,0,0-1.24-1.24h-8.65a9.9,9.9,0,0,0-9.9,9.9V45.89a9.89,9.89,0,0,0,9.9,9.89h8.65A1.24,1.24,0,0,0,317.82,54.55Z"/><path class="cls-2" d="M350,30.07,336.84,16.93a2.48,2.48,0,0,0-4.23,1.76v9.89h-14a2.46,2.46,0,0,0-2.47,2.47V41a2.46,2.46,0,0,0,2.47,2.47h14v9.89a2.48,2.48,0,0,0,4.23,1.75L350,41.93Z"/><path class="cls-2" d="M389.82,54.55V50.43a1.25,1.25,0,0,0-1.24-1.24h-8.65a3.29,3.29,0,0,1-3.3-3.3V26.11a3.29,3.29,0,0,1,3.3-3.3h8.65a1.25,1.25,0,0,0,1.24-1.24V17.45a1.25,1.25,0,0,0-1.24-1.24h-8.65a9.9,9.9,0,0,0-9.9,9.9V45.89a9.89,9.89,0,0,0,9.9,9.89h8.65A1.24,1.24,0,0,0,389.82,54.55Z"/><path class="cls-2" d="M422,17.84l-.9-.91a2.48,2.48,0,0,0-4.23,1.76v9.89h-14a2.46,2.46,0,0,0-2.48,2.47V41a2.46,2.46,0,0,0,2.48,2.47h14v9.89a2.48,2.48,0,0,0,4.23,1.75l.9-.9Z"/><path class="cls-2" d="M461.82,54.55V50.43a1.25,1.25,0,0,0-1.24-1.24h-8.65a3.29,3.29,0,0,1-3.3-3.3V26.11a3.29,3.29,0,0,1,3.3-3.3h8.65a1.25,1.25,0,0,0,1.24-1.24V17.45a1.25,1.25,0,0,0-1.24-1.24h-8.65a9.9,9.9,0,0,0-9.9,9.9V45.89a9.89,9.89,0,0,0,9.9,9.89h8.65A1.24,1.24,0,0,0,461.82,54.55Z"/><path class="cls-2" d="M494,28.58h-8.24a2.46,2.46,0,0,0-2.47,2.47V41a2.46,2.46,0,0,0,2.47,2.47H494Z"/><path class="cls-2" d="M533.82,54.55V50.43a1.25,1.25,0,0,0-1.24-1.24h-8.65a3.29,3.29,0,0,1-3.3-3.3V26.11a3.29,3.29,0,0,1,3.3-3.3h8.65a1.25,1.25,0,0,0,1.24-1.24V17.45a1.25,1.25,0,0,0-1.24-1.24h-8.65a9.9,9.9,0,0,0-9.9,9.9V45.89a9.89,9.89,0,0,0,9.9,9.89h8.65A1.24,1.24,0,0,0,533.82,54.55Z"/><path class="cls-2" d="M605.82,54.55V50.43a1.25,1.25,0,0,0-1.24-1.24h-8.65a3.29,3.29,0,0,1-3.3-3.3V26.11a3.29,3.29,0,0,1,3.3-3.3h8.65a1.25,1.25,0,0,0,1.24-1.24V17.45a1.25,1.25,0,0,0-1.24-1.24h-8.65a9.9,9.9,0,0,0-9.9,9.9V45.89a9.89,9.89,0,0,0,9.9,9.89h8.65A1.24,1.24,0,0,0,605.82,54.55Z"/><path class="cls-2" d="M566,28.58h-3.56a2.47,2.47,0,0,0-2.48,2.47V41a2.47,2.47,0,0,0,2.48,2.47H566Z"/><path class="cls-2" d="M677.82,54.55V50.43a1.25,1.25,0,0,0-1.24-1.24h-8.65a3.29,3.29,0,0,1-3.3-3.3V26.11a3.29,3.29,0,0,1,3.3-3.3h8.65a1.25,1.25,0,0,0,1.24-1.24V17.45a1.25,1.25,0,0,0-1.24-1.24h-8.65a9.9,9.9,0,0,0-9.9,9.9V45.89a9.89,9.89,0,0,0,9.9,9.89h8.65A1.24,1.24,0,0,0,677.82,54.55Z"/><path class="cls-2" d="M749.82,54.55V50.43a1.25,1.25,0,0,0-1.24-1.24h-8.65a3.29,3.29,0,0,1-3.3-3.3V26.11a3.29,3.29,0,0,1,3.3-3.3h8.65a1.25,1.25,0,0,0,1.24-1.24V17.45a1.25,1.25,0,0,0-1.24-1.24h-8.65a9.9,9.9,0,0,0-9.9,9.9V45.89a9.89,9.89,0,0,0,9.9,9.89h8.65A1.24,1.24,0,0,0,749.82,54.55Z"/><path class="cls-2" d="M853.25,37.75,835.94,55.06a2.48,2.48,0,0,1-4.23-1.75V43.42h-14A2.47,2.47,0,0,1,815.22,41v-9.9a2.47,2.47,0,0,1,2.48-2.47h14V18.69a2.48,2.48,0,0,1,4.23-1.76l17.31,17.32A2.49,2.49,0,0,1,853.25,37.75Z"/><path class="cls-2" d="M821.82,54.55V50.43a1.25,1.25,0,0,0-1.24-1.24h-8.65a3.29,3.29,0,0,1-3.3-3.3V26.11a3.29,3.29,0,0,1,3.3-3.3h8.65a1.25,1.25,0,0,0,1.24-1.24V17.45a1.25,1.25,0,0,0-1.24-1.24h-8.65a9.9,9.9,0,0,0-9.9,9.9V45.89a9.89,9.89,0,0,0,9.9,9.89h8.65A1.24,1.24,0,0,0,821.82,54.55Z"/></g></g></svg>