<svg xmlns="http://www.w3.org/2000/svg" viewBox="0 0 864 72"><defs><style>.cls-1{fill:none;}.cls-2,.cls-3,.cls-4,.cls-5,.cls-6{fill:#6f7ead;}.cls-3{opacity:0.5;}.cls-4{opacity:0.75;}.cls-5{opacity:0.79;}.cls-6{opacity:0.25;}</style></defs><title>export-a</title><g id="Layer_2" data-name="Layer 2"><g id="Layer_1-2" data-name="Layer 1"><rect class="cls-1" width="864" height="72"/><path class="cls-2" d="M32,10.52h8a2.38,2.38,0,0,1,2.39,2.39V29.63H51.1A2,2,0,0,1,52.5,33L37.36,48.17a1.91,1.91,0,0,1-2.71,0L19.49,33a2,2,0,0,1,1.4-3.39h8.74V12.91A2.38,2.38,0,0,1,32,10.52ZM61.48,48V59.09a2.38,2.38,0,0,1-2.39,2.39H12.91a2.38,2.38,0,0,1-2.39-2.39V48a2.38,2.38,0,0,1,2.39-2.39h14.6l4.88,4.87a5.08,5.08,0,0,0,7.22,0l4.88-4.87h14.6A2.38,2.38,0,0,1,61.48,48ZM49.14,56.71a2,2,0,1,0-2,2A2,2,0,0,0,49.14,56.71Zm6.37,0a2,2,0,1,0-2,2A2,2,0,0,0,55.51,56.71Z"/><path class="cls-2" d="M104,7.94h8a2.38,2.38,0,0,1,2.39,2.38V27.05h8.73a2,2,0,0,1,1.4,3.39L109.36,45.59a1.91,1.91,0,0,1-2.71,0L91.49,30.44a2,2,0,0,1,1.4-3.39h8.74V10.32A2.38,2.38,0,0,1,104,7.94Z"/><path class="cls-2" d="M131.09,45.56h-14.6l-4.64,2.17a5.09,5.09,0,0,1-7.22,0l-5.12-2.17H84.91A2.38,2.38,0,0,0,82.52,48V59.09a2.38,2.38,0,0,0,2.39,2.39h46.18a2.38,2.38,0,0,0,2.39-2.39V48A2.38,2.38,0,0,0,131.09,45.56ZM119.15,58.7a2,2,0,1,1,2-2A2,2,0,0,1,119.15,58.7Zm6.37,0a2,2,0,1,1,2-2A2,2,0,0,1,125.52,58.7Z"/><path class="cls-2" d="M248,7.94h8a2.38,2.38,0,0,1,2.39,2.38V27.05h8.73a2,2,0,0,1,1.4,3.39L253.36,45.59a1.91,1.91,0,0,1-2.71,0L235.49,30.44a2,2,0,0,1,1.4-3.39h8.74V10.32A2.38,2.38,0,0,1,248,7.94Z"/><path class="cls-2" d="M275.09,45.56h-14.6l-4.64,2.17a5.09,5.09,0,0,1-7.22,0l-5.12-2.17h-14.6A2.38,2.38,0,0,0,226.52,48V59.09a2.38,2.38,0,0,0,2.39,2.39h46.18a2.38,2.38,0,0,0,2.39-2.39V48A2.38,2.38,0,0,0,275.09,45.56ZM263.15,58.7a2,2,0,1,1,2-2A2,2,0,0,1,263.15,58.7Zm6.37,0a2,2,0,1,1,2-2A2,2,0,0,1,269.52,58.7Z"/><path class="cls-2" d="M176,5.58h8A2.38,2.38,0,0,1,186.37,8V24.69h8.73a2,2,0,0,1,1.4,3.4L181.36,43.24a1.91,1.91,0,0,1-2.71,0L163.49,28.09a2,2,0,0,1,1.4-3.4h8.74V8A2.38,2.38,0,0,1,176,5.58Z"/><path class="cls-2" d="M203.09,45.56h-14.6l-4.88,0a5.09,5.09,0,0,1-7.22,0l-4.88,0h-14.6A2.38,2.38,0,0,0,154.52,48V59.09a2.38,2.38,0,0,0,2.39,2.39h46.18a2.38,2.38,0,0,0,2.39-2.39V48A2.38,2.38,0,0,0,203.09,45.56ZM191.15,58.7a2,2,0,1,1,2-2A2,2,0,0,1,191.15,58.7Zm6.37,0a2,2,0,1,1,2-2A2,2,0,0,1,197.52,58.7Z"/><path class="cls-2" d="M392.15,13h8a2.38,2.38,0,0,1,2.39,2.39V32.08h8.73a2,2,0,0,1,1.41,3.4L397.5,50.63a1.94,1.94,0,0,1-2.72,0L379.62,35.48a2,2,0,0,1,1.4-3.4h8.74V15.36A2.38,2.38,0,0,1,392.15,13Z"/><path class="cls-2" d="M419.09,45.56H407.28l-7.55,7.56a5.11,5.11,0,0,1-7.19,0L385,45.56H372.91A2.38,2.38,0,0,0,370.52,48V59.09a2.38,2.38,0,0,0,2.39,2.39h19.35l.28.28a5.08,5.08,0,0,0,7.19,0l.28-.28h19.08a2.38,2.38,0,0,0,2.39-2.39V48A2.38,2.38,0,0,0,419.09,45.56ZM407.15,58.7a2,2,0,1,1,2-2A2,2,0,0,1,407.15,58.7Zm6.37,0a2,2,0,1,1,2-2A2,2,0,0,1,413.52,58.7Z"/><circle class="cls-2" cx="382.1" cy="42.67" r="1.48"/><circle class="cls-2" cx="409.18" cy="42.02" r="1.6"/><path class="cls-2" d="M464.15,16.45h8a2.38,2.38,0,0,1,2.38,2.39V35.56h8.74a2,2,0,0,1,1.4,3.4L469.5,54.11a1.93,1.93,0,0,1-2.72,0L451.62,39a2,2,0,0,1,1.4-3.4h8.74V18.84A2.39,2.39,0,0,1,464.15,16.45Z"/><path class="cls-2" d="M491.1,45.3h-8.48l-10.95,11a5.11,5.11,0,0,1-7.19,0l-11-11h-8.61a2.38,2.38,0,0,0-2.39,2.39V58.84a2.38,2.38,0,0,0,2.39,2.39h15.25l4.32,4.32a5.11,5.11,0,0,0,7.19,0L476,61.23H491.1a2.39,2.39,0,0,0,2.39-2.39V47.69A2.38,2.38,0,0,0,491.1,45.3Zm-12,13.14a2,2,0,1,1,2-2A2,2,0,0,1,479.15,58.44Zm6.37,0a2,2,0,1,1,2-2A2,2,0,0,1,485.52,58.44Z"/><path class="cls-2" d="M469.17,54.24a4.68,4.68,0,0,1-2.26-.06,2,2,0,0,0,1.17.4A1.9,1.9,0,0,0,469.17,54.24Z"/><circle class="cls-2" cx="448.49" cy="41.77" r="1.48"/><circle class="cls-2" cx="453.52" cy="43.31" r="0.8"/><circle class="cls-2" cx="484.43" cy="43.44" r="0.8"/><circle class="cls-2" cx="486.66" cy="40.98" r="1.6"/><path class="cls-2" d="M536.15,13h8a2.38,2.38,0,0,1,2.38,2.39V32.08h8.74a2,2,0,0,1,1.4,3.4L541.5,50.63a1.94,1.94,0,0,1-2.72,0L523.62,35.48a2,2,0,0,1,1.4-3.4h8.74V15.36A2.38,2.38,0,0,1,536.15,13Z"/><path class="cls-2" d="M563.1,45.56H551.29l-7.56,7.56a5.11,5.11,0,0,1-7.19,0L529,45.56H516.91A2.38,2.38,0,0,0,514.52,48V59.09a2.38,2.38,0,0,0,2.39,2.39h19.35l.28.28a5.08,5.08,0,0,0,7.19,0l.28-.28H563.1a2.38,2.38,0,0,0,2.39-2.39V48A2.38,2.38,0,0,0,563.1,45.56Zm-12,13.14a2,2,0,1,1,2-2A2,2,0,0,1,551.15,58.7Zm6.37,0a2,2,0,1,1,2-2A2,2,0,0,1,557.52,58.7Z"/><circle class="cls-2" cx="516.45" cy="36.83" r="1.77"/><circle class="cls-2" cx="521.51" cy="40.47" r="1.14"/><circle class="cls-2" cx="527.34" cy="41.67" r="0.68"/><circle class="cls-2" cx="559.49" cy="40.64" r="1.29"/><circle class="cls-2" cx="563.82" cy="35.89" r="2.15"/><path class="cls-2" d="M608,10.52h8a2.38,2.38,0,0,1,2.39,2.39V29.63h8.73A2,2,0,0,1,628.5,33L613.36,48.17a1.91,1.91,0,0,1-2.71,0L595.49,33a2,2,0,0,1,1.4-3.39h8.74V12.91A2.38,2.38,0,0,1,608,10.52Z"/><path class="cls-2" d="M635.09,45.56h-14.6l-4.88,4.87a5.08,5.08,0,0,1-7.22,0l-4.88-4.87h-14.6A2.38,2.38,0,0,0,586.52,48V59.09a2.38,2.38,0,0,0,2.39,2.39h46.18a2.38,2.38,0,0,0,2.39-2.39V48A2.38,2.38,0,0,0,635.09,45.56ZM623.15,58.7a2,2,0,1,1,2-2A2,2,0,0,1,623.15,58.7Zm6.37,0a2,2,0,1,1,2-2A2,2,0,0,1,629.52,58.7Z"/><circle class="cls-2" cx="585.86" cy="28.16" r="2.65"/><circle class="cls-2" cx="587.55" cy="34.18" r="1.83"/><circle class="cls-2" cx="592.46" cy="36.26" r="0.81"/><circle class="cls-2" cx="633.7" cy="32.91" r="1.29"/><circle class="cls-2" cx="637.55" cy="26.71" r="2.15"/><path class="cls-2" d="M680,10.52h8a2.38,2.38,0,0,1,2.39,2.39V29.63h8.73A2,2,0,0,1,700.5,33L685.36,48.17a1.91,1.91,0,0,1-2.71,0L667.49,33a2,2,0,0,1,1.4-3.39h8.74V12.91A2.38,2.38,0,0,1,680,10.52Z"/><path class="cls-2" d="M707.09,45.56h-14.6l-4.88,4.87a5.08,5.08,0,0,1-7.22,0l-4.88-4.87h-14.6A2.38,2.38,0,0,0,658.52,48V59.09a2.38,2.38,0,0,0,2.39,2.39h46.18a2.38,2.38,0,0,0,2.39-2.39V48A2.38,2.38,0,0,0,707.09,45.56ZM695.15,58.7a2,2,0,1,1,2-2A2,2,0,0,1,695.15,58.7Zm6.37,0a2,2,0,1,1,2-2A2,2,0,0,1,701.52,58.7Z"/><circle class="cls-3" cx="656.93" cy="23.19" r="2.65"/><circle class="cls-4" cx="658.26" cy="31.09" r="1.83"/><circle class="cls-5" cx="664.46" cy="36.26" r="0.81"/><circle class="cls-4" cx="707.51" cy="29.81" r="1.29"/><circle class="cls-3" cx="711.55" cy="22.39" r="2.15"/><path class="cls-2" d="M752,10.52h8a2.38,2.38,0,0,1,2.39,2.39V29.63h8.73A2,2,0,0,1,772.5,33L757.36,48.17a1.91,1.91,0,0,1-2.71,0L739.49,33a2,2,0,0,1,1.4-3.39h8.74V12.91A2.38,2.38,0,0,1,752,10.52Z"/><path class="cls-2" d="M779.09,45.56h-14.6l-4.88,4.87a5.08,5.08,0,0,1-7.22,0l-4.88-4.87h-14.6A2.38,2.38,0,0,0,730.52,48V59.09a2.38,2.38,0,0,0,2.39,2.39h46.18a2.38,2.38,0,0,0,2.39-2.39V48A2.38,2.38,0,0,0,779.09,45.56ZM767.15,58.7a2,2,0,1,1,2-2A2,2,0,0,1,767.15,58.7Zm6.37,0a2,2,0,1,1,2-2A2,2,0,0,1,773.52,58.7Z"/><circle class="cls-6" cx="729.2" cy="26.34" r="1.83"/><circle class="cls-3" cx="732.97" cy="31.61" r="0.81"/><circle class="cls-6" cx="779.41" cy="27.59" r="1.29"/><path class="cls-2" d="M824,10.52h8a2.38,2.38,0,0,1,2.39,2.39V29.63h8.73A2,2,0,0,1,844.5,33L829.36,48.17a1.91,1.91,0,0,1-2.71,0L811.49,33a2,2,0,0,1,1.4-3.39h8.74V12.91A2.38,2.38,0,0,1,824,10.52Z"/><path class="cls-2" d="M851.09,45.56h-14.6l-4.88,4.87a5.08,5.08,0,0,1-7.22,0l-4.88-4.87h-14.6A2.38,2.38,0,0,0,802.52,48V59.09a2.38,2.38,0,0,0,2.39,2.39h46.18a2.38,2.38,0,0,0,2.39-2.39V48A2.38,2.38,0,0,0,851.09,45.56ZM839.15,58.7a2,2,0,1,1,2-2A2,2,0,0,1,839.15,58.7Zm6.37,0a2,2,0,1,1,2-2A2,2,0,0,1,845.52,58.7Z"/><path class="cls-2" d="M320,10.52h8a2.38,2.38,0,0,1,2.39,2.39V29.63h8.73A2,2,0,0,1,340.5,33L325.36,48.17a1.91,1.91,0,0,1-2.71,0L307.49,33a2,2,0,0,1,1.4-3.39h8.74V12.91A2.38,2.38,0,0,1,320,10.52Z"/><path class="cls-2" d="M347.09,45.56h-14.6l-4.88,4.87a5.08,5.08,0,0,1-7.22,0l-4.88-4.87h-14.6A2.38,2.38,0,0,0,298.52,48V59.09a2.38,2.38,0,0,0,2.39,2.39h46.18a2.38,2.38,0,0,0,2.39-2.39V48A2.38,2.38,0,0,0,347.09,45.56ZM335.15,58.7a2,2,0,1,1,2-2A2,2,0,0,1,335.15,58.7Zm6.37,0a2,2,0,1,1,2-2A2,2,0,0,1,341.52,58.7Z"/></g></g></svg>