<svg xmlns="http://www.w3.org/2000/svg" viewBox="0 0 72 72"><defs><style>.cls-1{fill:none;}.cls-2{fill:#6f7ead;}</style></defs><title>export</title><g id="Layer_2" data-name="Layer 2"><g id="Layer_1-2" data-name="Layer 1"><rect class="cls-1" width="72" height="72"/><path class="cls-2" d="M32,10.52h8a2.38,2.38,0,0,1,2.39,2.39V29.63H51.1A2,2,0,0,1,52.5,33L37.36,48.17a1.91,1.91,0,0,1-2.71,0L19.49,33a2,2,0,0,1,1.4-3.39h8.74V12.91A2.38,2.38,0,0,1,32,10.52ZM61.48,48V59.09a2.38,2.38,0,0,1-2.39,2.39H12.91a2.38,2.38,0,0,1-2.39-2.39V48a2.38,2.38,0,0,1,2.39-2.39h14.6l4.88,4.87a5.08,5.08,0,0,0,7.22,0l4.88-4.87h14.6A2.38,2.38,0,0,1,61.48,48ZM49.14,56.71a2,2,0,1,0-2,2A2,2,0,0,0,49.14,56.71Zm6.37,0a2,2,0,1,0-2,2A2,2,0,0,0,55.51,56.71Z"/></g></g></svg>