<svg xmlns="http://www.w3.org/2000/svg" viewBox="0 0 864 72"><defs><style>.cls-1{fill:none;}.cls-2,.cls-3,.cls-4,.cls-5,.cls-6,.cls-7{fill:#6f7ead;}.cls-3{opacity:0.5;}.cls-4{opacity:0.75;}.cls-5{opacity:0.85;}.cls-6{opacity:0.25;}.cls-7{opacity:0.35;}</style></defs><title>import_1</title><g id="Layer_2" data-name="Layer 2"><g id="Layer_1-2" data-name="Layer 1"><rect class="cls-1" width="864" height="72"/><path class="cls-2" d="M40,48.75H32a2.39,2.39,0,0,1-2.4-2.39V29.62H20.89a2,2,0,0,1-1.41-3.4L34.64,11.06a1.91,1.91,0,0,1,2.71,0L52.52,26.22a2,2,0,0,1-1.41,3.4H42.38V46.36A2.39,2.39,0,0,1,40,48.75Z"/><path class="cls-2" d="M59.11,45.56H45.56v.8A5.59,5.59,0,0,1,40,51.94H32a5.59,5.59,0,0,1-5.58-5.58v-.8H12.89A2.38,2.38,0,0,0,10.5,48V59.11a2.38,2.38,0,0,0,2.39,2.39H59.11a2.38,2.38,0,0,0,2.39-2.39V48A2.38,2.38,0,0,0,59.11,45.56Zm-12,13.15a2,2,0,1,1,2-2A2,2,0,0,1,47.16,58.71Zm6.37,0a2,2,0,1,1,2-2A2,2,0,0,1,53.53,58.71Z"/><path class="cls-2" d="M328,48.75h-8a2.39,2.39,0,0,1-2.4-2.39V29.62h-8.73a2,2,0,0,1-1.41-3.4l15.16-15.16a1.91,1.91,0,0,1,2.71,0l15.17,15.16a2,2,0,0,1-1.41,3.4h-8.73V46.36A2.39,2.39,0,0,1,328,48.75Z"/><path class="cls-2" d="M347.11,45.56H333.56v.8A5.59,5.59,0,0,1,328,51.94h-8a5.59,5.59,0,0,1-5.58-5.58v-.8H300.89A2.38,2.38,0,0,0,298.5,48V59.11a2.38,2.38,0,0,0,2.39,2.39h46.22a2.38,2.38,0,0,0,2.39-2.39V48A2.38,2.38,0,0,0,347.11,45.56ZM335.16,58.71a2,2,0,1,1,2-2A2,2,0,0,1,335.16,58.71Zm6.37,0a2,2,0,1,1,2-2A2,2,0,0,1,341.53,58.71Z"/><path class="cls-2" d="M112,51.07h-8a2.39,2.39,0,0,1-2.4-2.39V31.94H92.89a2,2,0,0,1-1.41-3.39l15.16-15.17a1.93,1.93,0,0,1,2.71,0l15.17,15.17a2,2,0,0,1-1.41,3.39h-8.73V48.68A2.39,2.39,0,0,1,112,51.07Z"/><path class="cls-2" d="M131.11,45.56H117.56v.8c0,.18,0,.37,0,.55v1.77A5.56,5.56,0,0,1,112,54.23h-8a5.56,5.56,0,0,1-5.56-5.55V46.91c0-.18,0-.37,0-.55v-.8H84.89A2.38,2.38,0,0,0,82.5,48V59.11a2.38,2.38,0,0,0,2.39,2.39h46.22a2.38,2.38,0,0,0,2.39-2.39V48A2.38,2.38,0,0,0,131.11,45.56Zm-12,13.15a2,2,0,1,1,2-2A2,2,0,0,1,119.16,58.71Zm6.37,0a2,2,0,1,1,2-2A2,2,0,0,1,125.53,58.71Z"/><path class="cls-2" d="M256,51.07h-8a2.39,2.39,0,0,1-2.4-2.39V31.94h-8.73a2,2,0,0,1-1.41-3.39l15.16-15.17a1.93,1.93,0,0,1,2.71,0l15.17,15.17a2,2,0,0,1-1.41,3.39h-8.73V48.68A2.39,2.39,0,0,1,256,51.07Z"/><path class="cls-2" d="M275.11,45.56H261.56v.8c0,.18,0,.37,0,.55v1.77A5.56,5.56,0,0,1,256,54.23h-8a5.56,5.56,0,0,1-5.56-5.55V46.91c0-.18,0-.37,0-.55v-.8H228.89A2.38,2.38,0,0,0,226.5,48V59.11a2.38,2.38,0,0,0,2.39,2.39h46.22a2.38,2.38,0,0,0,2.39-2.39V48A2.38,2.38,0,0,0,275.11,45.56ZM263.16,58.71a2,2,0,1,1,2-2A2,2,0,0,1,263.16,58.71Zm6.37,0a2,2,0,1,1,2-2A2,2,0,0,1,269.53,58.71Z"/><path class="cls-2" d="M184,52.75h-8a2.39,2.39,0,0,1-2.4-2.39V33.62h-8.73a2,2,0,0,1-1.41-3.4l15.16-15.16a1.91,1.91,0,0,1,2.71,0l15.17,15.16a2,2,0,0,1-1.41,3.4h-8.73V50.36A2.39,2.39,0,0,1,184,52.75Z"/><path class="cls-2" d="M203.11,45.56H189.56v.8c0,.18,0,.37,0,.55v3.45A5.56,5.56,0,0,1,184,55.91h-8a5.56,5.56,0,0,1-5.56-5.55V46.91c0-.18,0-.37,0-.55v-.8H156.89A2.38,2.38,0,0,0,154.5,48V59.11a2.38,2.38,0,0,0,2.39,2.39h14.77A5.51,5.51,0,0,0,176,63.65h8a5.51,5.51,0,0,0,4.36-2.15h14.77a2.38,2.38,0,0,0,2.39-2.39V48A2.38,2.38,0,0,0,203.11,45.56Zm-12,13.15a2,2,0,1,1,2-2A2,2,0,0,1,191.16,58.71Zm6.37,0a2,2,0,1,1,2-2A2,2,0,0,1,197.53,58.71Z"/><circle class="cls-2" cx="116.94" cy="43.59" r="1.04"/><circle class="cls-2" cx="99.02" cy="42.4" r="1.4"/><circle class="cls-2" cx="190.3" cy="42.21" r="1.04"/><circle class="cls-2" cx="194.16" cy="39.17" r="1.51"/><circle class="cls-2" cx="172.01" cy="44.1" r="1.04"/><circle class="cls-2" cx="168.29" cy="39.49" r="1.83"/><circle class="cls-2" cx="263.01" cy="38.37" r="1.04"/><circle class="cls-2" cx="269.26" cy="36.13" r="2.02"/><circle class="cls-2" cx="241.93" cy="39.17" r="1.21"/><circle class="cls-2" cx="242.94" cy="43.63" r="0.71"/><circle class="cls-2" cx="235.48" cy="36.42" r="2.06"/><circle class="cls-2" cx="338.98" cy="37.89" r="1.04"/><circle class="cls-2" cx="343.29" cy="33.32" r="2.02"/><circle class="cls-2" cx="311.01" cy="35.8" r="1.57"/><circle class="cls-2" cx="313.12" cy="42.45" r="0.82"/><circle class="cls-2" cx="303.17" cy="32.38" r="2.46"/><path class="cls-2" d="M419.11,45.56H405.56v.8A5.59,5.59,0,0,1,400,51.94h-8a5.59,5.59,0,0,1-5.58-5.58v-.8H372.89A2.38,2.38,0,0,0,370.5,48V59.11a2.38,2.38,0,0,0,2.39,2.39h46.22a2.38,2.38,0,0,0,2.39-2.39V48A2.38,2.38,0,0,0,419.11,45.56ZM407.16,58.71a2,2,0,1,1,2-2A2,2,0,0,1,407.16,58.71Zm6.37,0a2,2,0,1,1,2-2A2,2,0,0,1,413.53,58.71Z"/><circle class="cls-3" cx="374.07" cy="31.3" r="3.02"/><circle class="cls-4" cx="415.31" cy="35.86" r="1.55"/><circle class="cls-3" cx="418.77" cy="29.78" r="2.59"/><circle class="cls-4" cx="378" cy="35.61" r="1.89"/><circle class="cls-5" cx="384.74" cy="39.39" r="0.85"/><path class="cls-2" d="M399.36,9h-6.73L379.48,22.16a2,2,0,0,0,1.41,3.4h8.73V42.29a2.39,2.39,0,0,0,2.4,2.39h8a2.39,2.39,0,0,0,2.4-2.39V25.56h8.73a2,2,0,0,0,1.41-3.4Z"/><path class="cls-2" d="M491.11,45.56H477.56v.8A5.59,5.59,0,0,1,472,51.94h-8a5.59,5.59,0,0,1-5.58-5.58v-.8H444.89A2.38,2.38,0,0,0,442.5,48V59.11a2.38,2.38,0,0,0,2.39,2.39h46.22a2.38,2.38,0,0,0,2.39-2.39V48A2.38,2.38,0,0,0,491.11,45.56ZM479.16,58.71a2,2,0,1,1,2-2A2,2,0,0,1,479.16,58.71Zm6.37,0a2,2,0,1,1,2-2A2,2,0,0,1,485.53,58.71Z"/><circle class="cls-6" cx="489.1" cy="31.89" r="1.55"/><circle class="cls-6" cx="446.29" cy="27.45" r="1.89"/><circle class="cls-7" cx="455.03" cy="35.1" r="0.85"/><path class="cls-2" d="M480.36,9H455.64l-4.16,4.16a2,2,0,0,0,1.41,3.4h8.73V33.29a2.39,2.39,0,0,0,2.4,2.39h8a2.39,2.39,0,0,0,2.4-2.39V16.56h8.73a2,2,0,0,0,1.41-3.4Z"/><path class="cls-2" d="M563.11,45.56H549.56v.8A5.59,5.59,0,0,1,544,51.94h-8a5.59,5.59,0,0,1-5.58-5.58v-.8H516.89A2.38,2.38,0,0,0,514.5,48V59.11a2.38,2.38,0,0,0,2.39,2.39h46.22a2.38,2.38,0,0,0,2.39-2.39V48A2.38,2.38,0,0,0,563.11,45.56Zm-12,13.15a2,2,0,1,1,2-2A2,2,0,0,1,551.16,58.71Zm6.37,0a2,2,0,1,1,2-2A2,2,0,0,1,557.53,58.71Z"/><path class="cls-2" d="M533.62,9v7a2.39,2.39,0,0,0,2.4,2.39h8a2.39,2.39,0,0,0,2.4-2.39V9Z"/><path class="cls-2" d="M635.11,45.56H621.56v.8A5.59,5.59,0,0,1,616,51.94h-8a5.59,5.59,0,0,1-5.58-5.58v-.8H588.89A2.38,2.38,0,0,0,586.5,48V59.11a2.38,2.38,0,0,0,2.39,2.39h46.22a2.38,2.38,0,0,0,2.39-2.39V48A2.38,2.38,0,0,0,635.11,45.56Zm-12,13.15a2,2,0,1,1,2-2A2,2,0,0,1,623.16,58.71Zm6.37,0a2,2,0,1,1,2-2A2,2,0,0,1,629.53,58.71Z"/><path class="cls-2" d="M707.11,45.56H693.56v.8A5.59,5.59,0,0,1,688,51.94h-8a5.59,5.59,0,0,1-5.58-5.58v-.8H660.89A2.38,2.38,0,0,0,658.5,48V59.11a2.38,2.38,0,0,0,2.39,2.39h46.22a2.38,2.38,0,0,0,2.39-2.39V48A2.38,2.38,0,0,0,707.11,45.56Zm-12,13.15a2,2,0,1,1,2-2A2,2,0,0,1,695.16,58.71Zm6.37,0a2,2,0,1,1,2-2A2,2,0,0,1,701.53,58.71Z"/><path class="cls-2" d="M779.11,45.56H765.56v.8A5.59,5.59,0,0,1,760,51.94h-8a5.59,5.59,0,0,1-5.58-5.58v-.8H732.89A2.38,2.38,0,0,0,730.5,48V59.11a2.38,2.38,0,0,0,2.39,2.39h46.22a2.38,2.38,0,0,0,2.39-2.39V48A2.38,2.38,0,0,0,779.11,45.56Zm-12,13.15a2,2,0,1,1,2-2A2,2,0,0,1,767.16,58.71Zm6.37,0a2,2,0,1,1,2-2A2,2,0,0,1,773.53,58.71Z"/><path class="cls-2" d="M851.11,45.56H837.56v.8A5.59,5.59,0,0,1,832,51.94h-8a5.59,5.59,0,0,1-5.58-5.58v-.8H804.89A2.38,2.38,0,0,0,802.5,48V59.11a2.38,2.38,0,0,0,2.39,2.39h46.22a2.38,2.38,0,0,0,2.39-2.39V48A2.38,2.38,0,0,0,851.11,45.56Zm-12,13.15a2,2,0,1,1,2-2A2,2,0,0,1,839.16,58.71Zm6.37,0a2,2,0,1,1,2-2A2,2,0,0,1,845.53,58.71Z"/><path class="cls-2" d="M605.62,9v1.2a2.39,2.39,0,0,0,2.4,2.39h8a2.39,2.39,0,0,0,2.4-2.39V9Z"/></g></g></svg>