<svg xmlns="http://www.w3.org/2000/svg" viewBox="0 0 72 72"><defs><style>.cls-1{fill:none;}.cls-2{fill:#6f7ead;}</style></defs><title>import</title><g id="Layer_2" data-name="Layer 2"><g id="Layer_1-2" data-name="Layer 1"><rect class="cls-1" width="72" height="72"/><path class="cls-2" d="M40,48.75H32a2.39,2.39,0,0,1-2.4-2.39V29.62H20.89a2,2,0,0,1-1.41-3.4L34.64,11.06a1.91,1.91,0,0,1,2.71,0L52.52,26.22a2,2,0,0,1-1.41,3.4H42.38V46.36A2.39,2.39,0,0,1,40,48.75ZM61.5,48V59.11a2.38,2.38,0,0,1-2.39,2.39H12.89a2.38,2.38,0,0,1-2.39-2.39V48a2.38,2.38,0,0,1,2.39-2.39H26.44v.8A5.58,5.58,0,0,0,32,51.94h8a5.58,5.58,0,0,0,5.58-5.58v-.8H59.11A2.38,2.38,0,0,1,61.5,48ZM49.15,56.72a2,2,0,1,0-2,2A2,2,0,0,0,49.15,56.72Zm6.38,0a2,2,0,1,0-2,2A2,2,0,0,0,55.53,56.72Z"/></g></g></svg>