<svg xmlns="http://www.w3.org/2000/svg" viewBox="0 0 72 72"><defs><style>.cls-1{fill:none;}.cls-2{fill:#6f7ead;}</style></defs><title>profiles-ns</title><g id="Layer_2" data-name="Layer 2"><g id="Layer_1-2" data-name="Layer 1"><rect class="cls-1" width="72" height="72"/><path class="cls-2" d="M16.2,33.17a5.66,5.66,0,1,0-5.65-5.65A5.66,5.66,0,0,0,16.2,33.17Zm39.6,0a5.66,5.66,0,1,0-5.66-5.65A5.65,5.65,0,0,0,55.8,33.17ZM58.63,36H53a5.67,5.67,0,0,0-4,1.64,13,13,0,0,1,6.64,9.67h5.83a2.82,2.82,0,0,0,2.83-2.83V41.66A5.66,5.66,0,0,0,58.63,36ZM36,36a9.9,9.9,0,1,0-9.9-9.9A9.9,9.9,0,0,0,36,36Zm6.79,2.83h-.74a13.68,13.68,0,0,1-12.1,0h-.74A10.18,10.18,0,0,0,19,49v2.55a4.24,4.24,0,0,0,4.24,4.24H48.73A4.24,4.24,0,0,0,53,51.56V49A10.18,10.18,0,0,0,42.79,38.83ZM23,37.64A5.67,5.67,0,0,0,19,36H13.37a5.66,5.66,0,0,0-5.65,5.66v2.82a2.82,2.82,0,0,0,2.83,2.83h5.82A13,13,0,0,1,23,37.64Z"/></g></g></svg>