<svg xmlns="http://www.w3.org/2000/svg" viewBox="0 0 864 72"><defs><style>.cls-1{fill:none;}.cls-2{fill:#59bce4;}</style></defs><title>profiles_1</title><g id="Layer_2" data-name="Layer 2"><g id="Layer_1-2" data-name="Layer 1"><rect class="cls-1" width="864" height="72"/><circle class="cls-2" cx="448.2" cy="27.52" r="5.66"/><circle class="cls-2" cx="487.8" cy="25.97" r="5.66"/><path class="cls-2" d="M490.63,34.45H485a5.64,5.64,0,0,0-4,1.65,12.94,12.94,0,0,1,6.64,9.66h5.83a2.82,2.82,0,0,0,2.83-2.82V40.11A5.66,5.66,0,0,0,490.63,34.45Z"/><circle class="cls-2" cx="468" cy="26.1" r="9.9"/><path class="cls-2" d="M474.79,38.83h-.74a13.68,13.68,0,0,1-12.1,0h-.74A10.18,10.18,0,0,0,451,49v2.55a4.24,4.24,0,0,0,4.24,4.24h25.46A4.24,4.24,0,0,0,485,51.56V49A10.18,10.18,0,0,0,474.79,38.83Z"/><path class="cls-2" d="M455,37.64A5.67,5.67,0,0,0,451,36h-5.66a5.66,5.66,0,0,0-5.65,5.66v2.82a2.82,2.82,0,0,0,2.83,2.83h5.82A13,13,0,0,1,455,37.64Z"/><circle class="cls-2" cx="520.07" cy="25.71" r="5.66"/><circle class="cls-2" cx="559.8" cy="26.61" r="5.66"/><path class="cls-2" d="M562.63,35.1H557a5.63,5.63,0,0,0-4,1.64,12.94,12.94,0,0,1,6.64,9.67h5.83a2.82,2.82,0,0,0,2.83-2.83V40.75A5.65,5.65,0,0,0,562.63,35.1Z"/><circle class="cls-2" cx="540" cy="26.1" r="9.9"/><path class="cls-2" d="M546.79,38.83h-.74a13.68,13.68,0,0,1-12.1,0h-.74A10.18,10.18,0,0,0,523,49v2.55a4.24,4.24,0,0,0,4.24,4.24h25.46A4.24,4.24,0,0,0,557,51.56V49A10.18,10.18,0,0,0,546.79,38.83Z"/><path class="cls-2" d="M526.89,35.84a5.64,5.64,0,0,0-4-1.65h-5.65a5.67,5.67,0,0,0-5.66,5.66v2.83a2.83,2.83,0,0,0,2.83,2.83h5.82a13,13,0,0,1,6.65-9.67Z"/><circle class="cls-2" cx="592.2" cy="26.48" r="5.66"/><circle class="cls-2" cx="631.8" cy="27.52" r="5.66"/><path class="cls-2" d="M634.63,36H629a5.67,5.67,0,0,0-4,1.64,13,13,0,0,1,6.64,9.67h5.83a2.82,2.82,0,0,0,2.83-2.83V41.66A5.66,5.66,0,0,0,634.63,36Z"/><circle class="cls-2" cx="612" cy="26.1" r="9.9"/><path class="cls-2" d="M618.79,38.83h-.74a13.68,13.68,0,0,1-12.1,0h-.74A10.18,10.18,0,0,0,595,49v2.55a4.24,4.24,0,0,0,4.24,4.24h25.46A4.24,4.24,0,0,0,629,51.56V49A10.18,10.18,0,0,0,618.79,38.83Z"/><path class="cls-2" d="M599,36.61A5.67,5.67,0,0,0,595,35h-5.66a5.65,5.65,0,0,0-5.65,5.65v2.83a2.82,2.82,0,0,0,2.83,2.83h5.82A13,13,0,0,1,599,36.61Z"/><path class="cls-2" d="M664.2,33.17a5.66,5.66,0,1,0-5.65-5.65A5.66,5.66,0,0,0,664.2,33.17Zm39.6,0a5.66,5.66,0,1,0-5.66-5.65A5.65,5.65,0,0,0,703.8,33.17ZM706.63,36H701a5.67,5.67,0,0,0-4,1.64,13,13,0,0,1,6.64,9.67h5.83a2.82,2.82,0,0,0,2.83-2.83V41.66A5.66,5.66,0,0,0,706.63,36ZM684,36a9.9,9.9,0,1,0-9.9-9.9A9.9,9.9,0,0,0,684,36Zm6.79,2.83h-.74a13.68,13.68,0,0,1-12.1,0h-.74A10.18,10.18,0,0,0,667,49v2.55a4.24,4.24,0,0,0,4.24,4.24h25.46A4.24,4.24,0,0,0,701,51.56V49A10.18,10.18,0,0,0,690.79,38.83ZM671,37.64A5.67,5.67,0,0,0,667,36h-5.66a5.66,5.66,0,0,0-5.65,5.66v2.82a2.82,2.82,0,0,0,2.83,2.83h5.82A13,13,0,0,1,671,37.64Z"/><path class="cls-2" d="M736.2,33.17a5.66,5.66,0,1,0-5.65-5.65A5.66,5.66,0,0,0,736.2,33.17Zm39.6,0a5.66,5.66,0,1,0-5.66-5.65A5.65,5.65,0,0,0,775.8,33.17ZM778.63,36H773a5.67,5.67,0,0,0-4,1.64,13,13,0,0,1,6.64,9.67h5.83a2.82,2.82,0,0,0,2.83-2.83V41.66A5.66,5.66,0,0,0,778.63,36ZM756,36a9.9,9.9,0,1,0-9.9-9.9A9.9,9.9,0,0,0,756,36Zm6.79,2.83h-.74a13.68,13.68,0,0,1-12.1,0h-.74A10.18,10.18,0,0,0,739,49v2.55a4.24,4.24,0,0,0,4.24,4.24h25.46A4.24,4.24,0,0,0,773,51.56V49A10.18,10.18,0,0,0,762.79,38.83ZM743,37.64A5.67,5.67,0,0,0,739,36h-5.66a5.66,5.66,0,0,0-5.65,5.66v2.82a2.82,2.82,0,0,0,2.83,2.83h5.82A13,13,0,0,1,743,37.64Z"/><path class="cls-2" d="M808.2,33.17a5.66,5.66,0,1,0-5.65-5.65A5.66,5.66,0,0,0,808.2,33.17Zm39.6,0a5.66,5.66,0,1,0-5.66-5.65A5.65,5.65,0,0,0,847.8,33.17ZM850.63,36H845a5.67,5.67,0,0,0-4,1.64,13,13,0,0,1,6.64,9.67h5.83a2.82,2.82,0,0,0,2.83-2.83V41.66A5.66,5.66,0,0,0,850.63,36ZM828,36a9.9,9.9,0,1,0-9.9-9.9A9.9,9.9,0,0,0,828,36Zm6.79,2.83h-.74a13.68,13.68,0,0,1-12.1,0h-.74A10.18,10.18,0,0,0,811,49v2.55a4.24,4.24,0,0,0,4.24,4.24h25.46A4.24,4.24,0,0,0,845,51.56V49A10.18,10.18,0,0,0,834.79,38.83ZM815,37.64A5.67,5.67,0,0,0,811,36h-5.66a5.66,5.66,0,0,0-5.65,5.66v2.82a2.82,2.82,0,0,0,2.83,2.83h5.82A13,13,0,0,1,815,37.64Z"/><path class="cls-2" d="M16.2,33.17a5.66,5.66,0,1,0-5.65-5.65A5.66,5.66,0,0,0,16.2,33.17Zm39.6,0a5.66,5.66,0,1,0-5.66-5.65A5.65,5.65,0,0,0,55.8,33.17ZM58.63,36H53a5.67,5.67,0,0,0-4,1.64,13,13,0,0,1,6.64,9.67h5.83a2.82,2.82,0,0,0,2.83-2.83V41.66A5.66,5.66,0,0,0,58.63,36ZM36,36a9.9,9.9,0,1,0-9.9-9.9A9.9,9.9,0,0,0,36,36Zm6.79,2.83h-.74a13.68,13.68,0,0,1-12.1,0h-.74A10.18,10.18,0,0,0,19,49v2.55a4.24,4.24,0,0,0,4.24,4.24H48.73A4.24,4.24,0,0,0,53,51.56V49A10.18,10.18,0,0,0,42.79,38.83ZM23,37.64A5.67,5.67,0,0,0,19,36H13.37a5.66,5.66,0,0,0-5.65,5.66v2.82a2.82,2.82,0,0,0,2.83,2.83h5.82A13,13,0,0,1,23,37.64Z"/><circle class="cls-2" cx="108" cy="26.1" r="9.9"/><path class="cls-2" d="M114.79,38.83h-.74a13.68,13.68,0,0,1-12.1,0h-.74A10.18,10.18,0,0,0,91,49v2.55a4.24,4.24,0,0,0,4.24,4.24h25.46A4.24,4.24,0,0,0,125,51.56V49A10.18,10.18,0,0,0,114.79,38.83Z"/><circle class="cls-2" cx="180" cy="26.1" r="9.9"/><path class="cls-2" d="M186.79,38.83h-.74a13.68,13.68,0,0,1-12.1,0h-.74A10.18,10.18,0,0,0,163,49v2.55a4.24,4.24,0,0,0,4.24,4.24h25.46A4.24,4.24,0,0,0,197,51.56V49A10.18,10.18,0,0,0,186.79,38.83Z"/><circle class="cls-2" cx="252" cy="26.1" r="9.9"/><path class="cls-2" d="M258.79,38.83h-.74a13.68,13.68,0,0,1-12.1,0h-.74A10.18,10.18,0,0,0,235,49v2.55a4.24,4.24,0,0,0,4.24,4.24h25.46A4.24,4.24,0,0,0,269,51.56V49A10.18,10.18,0,0,0,258.79,38.83Z"/><circle class="cls-2" cx="343.8" cy="31.9" r="5.66"/><circle class="cls-2" cx="324" cy="26.1" r="9.9"/><path class="cls-2" d="M330.79,38.83h-.74a13.68,13.68,0,0,1-12.1,0h-.74A10.18,10.18,0,0,0,307,49v2.55a4.24,4.24,0,0,0,4.24,4.24h25.46A4.24,4.24,0,0,0,341,51.56V49A10.18,10.18,0,0,0,330.79,38.83Z"/><path class="cls-2" d="M307,51.55a4.1,4.1,0,0,0,.48,1.91c.31-3.05.7-5.57,3.51-7.11A5.69,5.69,0,0,0,308,44.79,10.1,10.1,0,0,0,307,49Z"/><path class="cls-2" d="M304.27,51.55V49a13,13,0,0,1,.75-4.3h-3.65a5.66,5.66,0,0,0-5.65,5.66v2.82A2.82,2.82,0,0,0,298.55,56h7.34A7,7,0,0,1,304.27,51.55Z"/><circle class="cls-2" cx="376.2" cy="30.23" r="5.66"/><circle class="cls-2" cx="415.8" cy="27.52" r="5.66"/><path class="cls-2" d="M418.63,36H413a5.67,5.67,0,0,0-4,1.64,13,13,0,0,1,6.64,9.67h5.83a2.82,2.82,0,0,0,2.83-2.83V41.66A5.66,5.66,0,0,0,418.63,36Z"/><circle class="cls-2" cx="396" cy="26.1" r="9.9"/><path class="cls-2" d="M402.79,38.83h-.74a13.68,13.68,0,0,1-12.1,0h-.74A10.18,10.18,0,0,0,379,49v2.55a4.24,4.24,0,0,0,4.24,4.24h25.46A4.24,4.24,0,0,0,413,51.56V49A10.18,10.18,0,0,0,402.79,38.83Z"/><path class="cls-2" d="M376.27,49a12.94,12.94,0,0,1,4.69-10,5.84,5.84,0,0,0-1.93-.34h-5.66a5.66,5.66,0,0,0-5.65,5.66v2.82A2.82,2.82,0,0,0,370.55,50h5.72Z"/><path class="cls-2" d="M162.14,56.29a7.05,7.05,0,0,1-1.46-2.41l-.48,0a5.64,5.64,0,0,0-4.64,2.43Z"/><path class="cls-2" d="M205.34,56.29a5.83,5.83,0,0,0,.11-1.12,5.65,5.65,0,0,0-5.65-5.65h-.07v2a7,7,0,0,1-1.87,4.74Z"/><path class="cls-2" d="M237.86,46.23a5.62,5.62,0,0,0-.94-3.11A10.14,10.14,0,0,0,235,49v2.1A5.64,5.64,0,0,0,237.86,46.23Z"/><path class="cls-2" d="M232.27,51.55V49a12.8,12.8,0,0,1,2.62-7.76,5.57,5.57,0,0,0-2.69-.68,5.66,5.66,0,0,0,0,11.31h.09C232.29,51.77,232.27,51.66,232.27,51.55Z"/><path class="cls-2" d="M266.14,42.23A5.66,5.66,0,0,0,268.77,47a10.16,10.16,0,0,0-2.62-5C266.15,42.07,266.14,42.15,266.14,42.23Z"/><path class="cls-2" d="M271.8,36.57a5.67,5.67,0,0,0-4.71,2.52,12.91,12.91,0,0,1,4.58,8.79h.13a5.66,5.66,0,0,0,0-11.31Z"/><path class="cls-2" d="M234.17,56.29A7.39,7.39,0,0,1,233,54.71h-3.66a5.63,5.63,0,0,0-3.91,1.58Z"/><path class="cls-2" d="M280.28,56.29a5.66,5.66,0,0,0-5.65-5.58h-2.9v.84a7,7,0,0,1-1.86,4.74Z"/><path class="cls-2" d="M309.2,38.87a5.67,5.67,0,1,0-2.26,2.3A13,13,0,0,1,309.2,38.87Z"/><path class="cls-2" d="M346.63,40.39H341l-.53,0a12.89,12.89,0,0,1,3.29,8.6v2.54a.76.76,0,0,1,0,.15h5.73a2.82,2.82,0,0,0,2.83-2.83V46A5.65,5.65,0,0,0,346.63,40.39Z"/><path class="cls-2" d="M339.62,44a10.28,10.28,0,0,0-2-2.46A4.78,4.78,0,0,0,337,42,13.21,13.21,0,0,1,339.62,44Z"/></g></g></svg>