<svg xmlns="http://www.w3.org/2000/svg" viewBox="0 0 432 72"><defs><style>.cls-1{fill:none;}.cls-2{fill:#59bce4;}</style></defs><title>proxies_3</title><g id="Layer_2" data-name="Layer 2"><g id="Layer_1-2" data-name="Layer 1"><rect class="cls-1" width="432" height="72"/><path class="cls-2" d="M59.34,56.77A46,46,0,0,0,15.23,12.66a1.57,1.57,0,0,0-1.63,1.59l0,4.77a1.61,1.61,0,0,0,1.54,1.6A38,38,0,0,1,51.38,56.84,1.61,1.61,0,0,0,53,58.38l4.77,0a1.57,1.57,0,0,0,1.59-1.63ZM23.48,48.52a6.34,6.34,0,1,0,0,9A6.33,6.33,0,0,0,23.48,48.52Zm20.05,8.34A30.42,30.42,0,0,0,15.14,28.47a1.57,1.57,0,0,0-1.66,1.58l0,4.8A1.63,1.63,0,0,0,15,36.45,22.29,22.29,0,0,1,35.55,57a1.63,1.63,0,0,0,1.6,1.49l4.8,0A1.57,1.57,0,0,0,43.53,56.86Z"/><path class="cls-2" d="M419.34,56.77a46,46,0,0,0-44.11-44.11,1.57,1.57,0,0,0-1.63,1.59l0,4.77a1.61,1.61,0,0,0,1.54,1.6,38,38,0,0,1,36.22,36.22,1.61,1.61,0,0,0,1.6,1.54l4.77,0a1.57,1.57,0,0,0,1.59-1.63Zm-35.86-8.25a6.34,6.34,0,1,0,0,9A6.33,6.33,0,0,0,383.48,48.52Zm20,8.34a30.42,30.42,0,0,0-28.39-28.39,1.57,1.57,0,0,0-1.66,1.58l0,4.8a1.63,1.63,0,0,0,1.49,1.6A22.29,22.29,0,0,1,395.55,57a1.63,1.63,0,0,0,1.6,1.49l4.8,0A1.57,1.57,0,0,0,403.53,56.86Z"/><path class="cls-2" d="M95.48,48.52a6.34,6.34,0,1,0,0,9A6.33,6.33,0,0,0,95.48,48.52Z"/><path class="cls-2" d="M167.48,48.52a6.34,6.34,0,1,0,0,9A6.33,6.33,0,0,0,167.48,48.52Z"/><path class="cls-2" d="M239.48,48.52a6.34,6.34,0,1,0,0,9A6.33,6.33,0,0,0,239.48,48.52Zm20,8.34a30.42,30.42,0,0,0-28.39-28.39,1.57,1.57,0,0,0-1.66,1.58l0,4.8a1.63,1.63,0,0,0,1.49,1.6A22.29,22.29,0,0,1,251.55,57a1.63,1.63,0,0,0,1.6,1.49l4.8,0A1.57,1.57,0,0,0,259.53,56.86Z"/><path class="cls-2" d="M311.48,48.52a6.34,6.34,0,1,0,0,9A6.33,6.33,0,0,0,311.48,48.52Zm20,8.34a30.42,30.42,0,0,0-28.39-28.39,1.57,1.57,0,0,0-1.66,1.58l0,4.8a1.63,1.63,0,0,0,1.49,1.6A22.29,22.29,0,0,1,323.55,57a1.63,1.63,0,0,0,1.6,1.49l4.8,0A1.57,1.57,0,0,0,331.53,56.86Z"/></g></g></svg>