<svg xmlns="http://www.w3.org/2000/svg" viewBox="0 0 72 72"><defs><style>.cls-1{fill:none;}.cls-2{fill:#59bce4;}</style></defs><title>settings-s</title><g id="Layer_2" data-name="Layer 2"><g id="Layer_1-2" data-name="Layer 1"><rect class="cls-1" width="72" height="72"/><path class="cls-2" d="M60.59,23a1,1,0,0,0-1-.8H58.37a6.81,6.81,0,0,0-1.23-2.12l.64-1.1a1,1,0,0,0-.22-1.21,8.52,8.52,0,0,0-2.48-1.44,1,1,0,0,0-1.17.42l-.63,1.1a7.2,7.2,0,0,0-2.45,0l-.63-1.1A1,1,0,0,0,49,16.36a8.52,8.52,0,0,0-2.48,1.44A.94.94,0,0,0,46.34,19l.63,1.1a6.59,6.59,0,0,0-1.22,2.12H44.47a1,1,0,0,0-.94.8,8.91,8.91,0,0,0,0,2.87,1,1,0,0,0,.94.79h1.28A6.59,6.59,0,0,0,47,28.81l-.63,1.1a1,1,0,0,0,.22,1.21A8.4,8.4,0,0,0,49,32.56a1,1,0,0,0,1.16-.42l.63-1.1a6.73,6.73,0,0,0,2.45,0l.63,1.1a1,1,0,0,0,1.17.42,8.66,8.66,0,0,0,2.48-1.44,1,1,0,0,0,.22-1.21l-.64-1.1a6.81,6.81,0,0,0,1.23-2.12h1.27a1,1,0,0,0,1-.8A8.85,8.85,0,0,0,60.59,23ZM50,26.5a2.89,2.89,0,0,1,4.08-4.08A2.89,2.89,0,0,1,50,26.5Z"/><path class="cls-2" d="M43.72,39.68l-2.6-1.3a13.45,13.45,0,0,0,0-4.9l2.6-1.3a1.85,1.85,0,0,0,.78-2.24,18,18,0,0,0-3.25-5.08,1.84,1.84,0,0,0-2.34-.41l-2.25,1.29a13.45,13.45,0,0,0-4.24-2.44V20.7a1.86,1.86,0,0,0-1.54-1.82,17.52,17.52,0,0,0-5.87,0A1.83,1.83,0,0,0,23.5,20.7v2.6a13.18,13.18,0,0,0-4.24,2.45L17,24.45a1.86,1.86,0,0,0-2.34.41,18.22,18.22,0,0,0-3.26,5.08,1.85,1.85,0,0,0,.81,2.24l2.57,1.31a13.4,13.4,0,0,0,0,4.89l-2.57,1.3a1.86,1.86,0,0,0-.81,2.25A18.32,18.32,0,0,0,14.67,47a1.84,1.84,0,0,0,2.34.41l2.25-1.29a13.37,13.37,0,0,0,4.24,2.45v2.59A1.85,1.85,0,0,0,25,53a17.21,17.21,0,0,0,5.86,0,1.84,1.84,0,0,0,1.52-1.82V48.57a13.29,13.29,0,0,0,4.24-2.45l2.25,1.3A1.87,1.87,0,0,0,41.25,47a18.21,18.21,0,0,0,3.28-5.08A1.86,1.86,0,0,0,43.72,39.68ZM32,40c-5.94,4.57-12.73-2.21-8.16-8.16C29.83,27.28,36.61,34.07,32,40Z"/><path class="cls-2" d="M60.59,46.1a1,1,0,0,0-1-.79H58.37a6.81,6.81,0,0,0-1.23-2.12l.64-1.1a1,1,0,0,0-.22-1.21,8.52,8.52,0,0,0-2.48-1.44,1,1,0,0,0-1.17.42L53.28,41a6.73,6.73,0,0,0-2.45,0l-.63-1.1A1,1,0,0,0,49,39.44a8.52,8.52,0,0,0-2.48,1.44.94.94,0,0,0-.22,1.21l.63,1.1a6.59,6.59,0,0,0-1.22,2.12H44.47a1,1,0,0,0-.94.8,8.85,8.85,0,0,0,0,2.86,1,1,0,0,0,.94.8h1.28A6.59,6.59,0,0,0,47,51.89L46.34,53a1,1,0,0,0,.22,1.21A8.4,8.4,0,0,0,49,55.64a1,1,0,0,0,1.16-.42l.63-1.1a7.2,7.2,0,0,0,2.45,0l.63,1.1a1,1,0,0,0,1.17.42,8.66,8.66,0,0,0,2.48-1.44A1,1,0,0,0,57.78,53l-.64-1.1a6.81,6.81,0,0,0,1.23-2.12h1.27a1,1,0,0,0,1-.8A8.91,8.91,0,0,0,60.59,46.1ZM50,49.57a2.89,2.89,0,0,1,4.08-4.08A2.89,2.89,0,0,1,50,49.57Z"/></g></g></svg>