<svg xmlns="http://www.w3.org/2000/svg" viewBox="0 0 864 72"><defs><style>.cls-1{fill:none;}.cls-2{fill:#59bce4;}</style></defs><title>settings_1</title><g id="Layer_2" data-name="Layer 2"><g id="Layer_1-2" data-name="Layer 1"><rect class="cls-1" width="864" height="72"/><path class="cls-2" d="M60.59,23a1,1,0,0,0-1-.8H58.37a6.81,6.81,0,0,0-1.23-2.12l.64-1.1a1,1,0,0,0-.22-1.21,8.52,8.52,0,0,0-2.48-1.44,1,1,0,0,0-1.17.42l-.63,1.1a7.2,7.2,0,0,0-2.45,0l-.63-1.1A1,1,0,0,0,49,16.36a8.52,8.52,0,0,0-2.48,1.44A.94.94,0,0,0,46.34,19l.63,1.1a6.59,6.59,0,0,0-1.22,2.12H44.47a1,1,0,0,0-.94.8,8.91,8.91,0,0,0,0,2.87,1,1,0,0,0,.94.79h1.28A6.59,6.59,0,0,0,47,28.81l-.63,1.1a1,1,0,0,0,.22,1.21A8.4,8.4,0,0,0,49,32.56a1,1,0,0,0,1.16-.42l.63-1.1a6.73,6.73,0,0,0,2.45,0l.63,1.1a1,1,0,0,0,1.17.42,8.66,8.66,0,0,0,2.48-1.44,1,1,0,0,0,.22-1.21l-.64-1.1a6.81,6.81,0,0,0,1.23-2.12h1.27a1,1,0,0,0,1-.8A8.85,8.85,0,0,0,60.59,23ZM50,26.5a2.89,2.89,0,0,1,4.08-4.08A2.89,2.89,0,0,1,50,26.5Z"/><path class="cls-2" d="M43.72,39.68l-2.6-1.3a13.45,13.45,0,0,0,0-4.9l2.6-1.3a1.85,1.85,0,0,0,.78-2.24,18,18,0,0,0-3.25-5.08,1.84,1.84,0,0,0-2.34-.41l-2.25,1.29a13.45,13.45,0,0,0-4.24-2.44V20.7a1.86,1.86,0,0,0-1.54-1.82,17.52,17.52,0,0,0-5.87,0A1.83,1.83,0,0,0,23.5,20.7v2.6a13.18,13.18,0,0,0-4.24,2.45L17,24.45a1.86,1.86,0,0,0-2.34.41,18.22,18.22,0,0,0-3.26,5.08,1.85,1.85,0,0,0,.81,2.24l2.57,1.31a13.4,13.4,0,0,0,0,4.89l-2.57,1.3a1.86,1.86,0,0,0-.81,2.25A18.32,18.32,0,0,0,14.67,47a1.84,1.84,0,0,0,2.34.41l2.25-1.29a13.37,13.37,0,0,0,4.24,2.45v2.59A1.85,1.85,0,0,0,25,53a17.21,17.21,0,0,0,5.86,0,1.84,1.84,0,0,0,1.52-1.82V48.57a13.29,13.29,0,0,0,4.24-2.45l2.25,1.3A1.87,1.87,0,0,0,41.25,47a18.21,18.21,0,0,0,3.28-5.08A1.86,1.86,0,0,0,43.72,39.68ZM32,40c-5.94,4.57-12.73-2.21-8.16-8.16C29.83,27.28,36.61,34.07,32,40Z"/><path class="cls-2" d="M60.59,46.1a1,1,0,0,0-1-.79H58.37a6.81,6.81,0,0,0-1.23-2.12l.64-1.1a1,1,0,0,0-.22-1.21,8.52,8.52,0,0,0-2.48-1.44,1,1,0,0,0-1.17.42L53.28,41a6.73,6.73,0,0,0-2.45,0l-.63-1.1A1,1,0,0,0,49,39.44a8.52,8.52,0,0,0-2.48,1.44.94.94,0,0,0-.22,1.21l.63,1.1a6.59,6.59,0,0,0-1.22,2.12H44.47a1,1,0,0,0-.94.8,8.85,8.85,0,0,0,0,2.86,1,1,0,0,0,.94.8h1.28A6.59,6.59,0,0,0,47,51.89L46.34,53a1,1,0,0,0,.22,1.21A8.4,8.4,0,0,0,49,55.64a1,1,0,0,0,1.16-.42l.63-1.1a7.2,7.2,0,0,0,2.45,0l.63,1.1a1,1,0,0,0,1.17.42,8.66,8.66,0,0,0,2.48-1.44A1,1,0,0,0,57.78,53l-.64-1.1a6.81,6.81,0,0,0,1.23-2.12h1.27a1,1,0,0,0,1-.8A8.91,8.91,0,0,0,60.59,46.1ZM50,49.57a2.89,2.89,0,0,1,4.08-4.08A2.89,2.89,0,0,1,50,49.57Z"/><path class="cls-2" d="M129.07,17.42a.94.94,0,0,0-1.23.1l-.9.9a6.72,6.72,0,0,0-2.36-.63l-.33-1.23a1,1,0,0,0-1-.7,8.44,8.44,0,0,0-2.77.74.94.94,0,0,0-.53,1.12l.33,1.22a6.81,6.81,0,0,0-1.73,1.74l-1.23-.34a1,1,0,0,0-1.12.53,8.67,8.67,0,0,0-.73,2.77,1,1,0,0,0,.7,1l1.23.33a6.57,6.57,0,0,0,.63,2.37l-.9.9a1,1,0,0,0-.1,1.23,8.85,8.85,0,0,0,2,2,1,1,0,0,0,1.23-.11l.9-.9a6.57,6.57,0,0,0,2.37.63l.33,1.23a1,1,0,0,0,1,.7,8.48,8.48,0,0,0,2.77-.73,1,1,0,0,0,.53-1.12L127.84,30a6.77,6.77,0,0,0,1.73-1.73l1.23.33a.94.94,0,0,0,1.12-.53,8.69,8.69,0,0,0,.74-2.77,1,1,0,0,0-.7-1l-1.23-.33a6.72,6.72,0,0,0-.63-2.36l.9-.9a1,1,0,0,0,.1-1.24A8.46,8.46,0,0,0,129.07,17.42Zm-5,9.92a2.88,2.88,0,0,1,0-5.76A2.88,2.88,0,0,1,124.06,27.34Z"/><path class="cls-2" d="M108.46,49.72,107.54,47A13.43,13.43,0,0,0,111,43.5l2.75.92a1.85,1.85,0,0,0,2.14-1,18.15,18.15,0,0,0,1.29-5.89,1.86,1.86,0,0,0-1.36-2l-2.51-.67a13.42,13.42,0,0,0-1.27-4.73l1.84-1.83a1.85,1.85,0,0,0,.19-2.38,17.58,17.58,0,0,0-4.15-4.15,1.84,1.84,0,0,0-2.35.22l-1.84,1.84A13.42,13.42,0,0,0,101,22.57l-.67-2.51a1.86,1.86,0,0,0-2-1.36A17.89,17.89,0,0,0,92.5,20a1.83,1.83,0,0,0-1,2.15l.89,2.75a13.24,13.24,0,0,0-3.46,3.46l-2.73-.9a1.85,1.85,0,0,0-2.16,1,18.35,18.35,0,0,0-1.29,5.89,1.85,1.85,0,0,0,1.37,1.95l2.5.67a13.4,13.4,0,0,0,1.26,4.73L86,43.53a1.87,1.87,0,0,0-.2,2.39A17.35,17.35,0,0,0,90,50.06a1.85,1.85,0,0,0,2.36-.21L94.19,48a13.31,13.31,0,0,0,4.72,1.27l.67,2.5a1.86,1.86,0,0,0,2,1.37,18.29,18.29,0,0,0,5.92-1.27A1.84,1.84,0,0,0,108.46,49.72Zm-8.49-8c-7.44-1-7.44-10.57,0-11.55C107.4,31.13,107.4,40.72,100,41.7Z"/><path class="cls-2" d="M129.07,40.49a1,1,0,0,0-1.23.11l-.9.9a6.52,6.52,0,0,0-2.36-.63l-.33-1.23a1,1,0,0,0-1-.7,8.42,8.42,0,0,0-2.77.73,1,1,0,0,0-.53,1.12l.33,1.23a7.11,7.11,0,0,0-1.73,1.73l-1.23-.33a1,1,0,0,0-1.12.53,8.67,8.67,0,0,0-.73,2.77,1,1,0,0,0,.7,1l1.23.33a6.52,6.52,0,0,0,.63,2.36l-.9.9a1,1,0,0,0-.1,1.24,8.61,8.61,0,0,0,2,2,.94.94,0,0,0,1.23-.1l.9-.9a6.78,6.78,0,0,0,2.37.63l.33,1.23a1,1,0,0,0,1,.7,8.5,8.5,0,0,0,2.77-.74,1,1,0,0,0,.53-1.12l-.34-1.22a6.66,6.66,0,0,0,1.73-1.74l1.23.34a1,1,0,0,0,1.12-.53,8.69,8.69,0,0,0,.74-2.77,1,1,0,0,0-.7-1L130.73,47a6.78,6.78,0,0,0-.63-2.37l.9-.9a1,1,0,0,0,.1-1.23A8.69,8.69,0,0,0,129.07,40.49Zm-5,9.92a2.88,2.88,0,0,1,0-5.76A2.88,2.88,0,0,1,124.06,50.41Z"/><path class="cls-2" d="M194.62,15.93a1,1,0,0,0-.79.95v1.27a6.62,6.62,0,0,0-2.12,1.23l-1.1-.64a1,1,0,0,0-1.21.22A8.52,8.52,0,0,0,188,21.44a1,1,0,0,0,.42,1.16l1.1.64a6.73,6.73,0,0,0,0,2.45l-1.1.63a1,1,0,0,0-.42,1.16A8.52,8.52,0,0,0,189.4,30a.94.94,0,0,0,1.21.22l1.1-.63a6.59,6.59,0,0,0,2.12,1.22v1.28a1,1,0,0,0,.8.94,8.85,8.85,0,0,0,2.86,0,1,1,0,0,0,.8-.94V30.77a6.44,6.44,0,0,0,2.11-1.22l1.11.63a1,1,0,0,0,1.21-.22,8.4,8.4,0,0,0,1.44-2.48,1,1,0,0,0-.42-1.16l-1.1-.63a7.2,7.2,0,0,0,0-2.45l1.1-.64a1,1,0,0,0,.42-1.16A8.66,8.66,0,0,0,202.72,19a1,1,0,0,0-1.21-.22l-1.11.64a6.47,6.47,0,0,0-2.11-1.23V16.88a1,1,0,0,0-.8-.95A8.91,8.91,0,0,0,194.62,15.93ZM198.1,26.5A2.89,2.89,0,0,1,194,22.42,2.89,2.89,0,0,1,198.1,26.5Z"/><path class="cls-2" d="M168.23,51.69l1.29-2.61a13.08,13.08,0,0,0,4.91,0l1.29,2.61a1.85,1.85,0,0,0,2.25.77,18.19,18.19,0,0,0,5.08-3.25,1.84,1.84,0,0,0,.41-2.34l-1.3-2.25a13.37,13.37,0,0,0,2.45-4.24h2.59A1.86,1.86,0,0,0,189,38.84,17.79,17.79,0,0,0,189,33a1.84,1.84,0,0,0-1.82-1.51h-2.6a13.18,13.18,0,0,0-2.45-4.24l1.3-2.25a1.84,1.84,0,0,0-.41-2.34A18.22,18.22,0,0,0,178,19.37a1.86,1.86,0,0,0-2.24.82l-1.3,2.57a13.45,13.45,0,0,0-4.9,0l-1.29-2.57a1.88,1.88,0,0,0-2.25-.82,18.32,18.32,0,0,0-5.07,3.26A1.84,1.84,0,0,0,160.5,25l1.29,2.25a13.37,13.37,0,0,0-2.45,4.24h-2.59A1.86,1.86,0,0,0,154.92,33a17.47,17.47,0,0,0,0,5.86,1.86,1.86,0,0,0,1.83,1.52h2.59a13.18,13.18,0,0,0,2.45,4.24l-1.3,2.25a1.84,1.84,0,0,0,.41,2.34A18.32,18.32,0,0,0,166,52.5,1.86,1.86,0,0,0,168.23,51.69ZM167.89,40c-4.57-5.94,2.22-12.73,8.17-8.16C180.63,37.79,173.84,44.58,167.89,40Z"/><path class="cls-2" d="M194.62,39a1,1,0,0,0-.79.94v1.28a6.59,6.59,0,0,0-2.12,1.22l-1.1-.63a1,1,0,0,0-1.21.22A8.4,8.4,0,0,0,188,44.52a1,1,0,0,0,.42,1.16l1.1.63a6.73,6.73,0,0,0,0,2.45l-1.1.64a1,1,0,0,0-.42,1.16A8.66,8.66,0,0,0,189.4,53a1,1,0,0,0,1.21.22l1.1-.64a6.62,6.62,0,0,0,2.12,1.23v1.27a1,1,0,0,0,.8,1,8.85,8.85,0,0,0,2.86,0,1,1,0,0,0,.8-1V53.85a6.47,6.47,0,0,0,2.11-1.23l1.11.64a1,1,0,0,0,1.21-.22,8.52,8.52,0,0,0,1.44-2.48,1,1,0,0,0-.42-1.16l-1.1-.64a7.2,7.2,0,0,0,0-2.45l1.1-.63a1,1,0,0,0,.42-1.16A8.52,8.52,0,0,0,202.72,42a.94.94,0,0,0-1.21-.22l-1.11.63a6.44,6.44,0,0,0-2.11-1.22V40a1,1,0,0,0-.8-.94A8.91,8.91,0,0,0,194.62,39Zm3.47,10.56A2.88,2.88,0,0,1,194,45.5,2.88,2.88,0,0,1,198.09,49.57Z"/><path class="cls-2" d="M261,19.45a1,1,0,0,0,.11,1.23l.9.9a6.52,6.52,0,0,0-.63,2.36l-1.23.33a1,1,0,0,0-.7,1,8.42,8.42,0,0,0,.73,2.77,1,1,0,0,0,1.12.53l1.23-.33A6.94,6.94,0,0,0,264.27,30l-.33,1.23a1,1,0,0,0,.53,1.12,8.67,8.67,0,0,0,2.77.73,1,1,0,0,0,1-.7l.33-1.23a6.52,6.52,0,0,0,2.36-.63l.9.9a1,1,0,0,0,1.24.1,8.61,8.61,0,0,0,2-2,.94.94,0,0,0-.1-1.23l-.9-.9a6.78,6.78,0,0,0,.63-2.37l1.23-.33a1,1,0,0,0,.7-1,8.5,8.5,0,0,0-.74-2.77,1,1,0,0,0-1.12-.53l-1.23.34a6.66,6.66,0,0,0-1.73-1.74l.34-1.22a1,1,0,0,0-.53-1.12,8.69,8.69,0,0,0-2.77-.74,1,1,0,0,0-1,.7l-.33,1.23a6.78,6.78,0,0,0-2.37.63l-.9-.9a1,1,0,0,0-1.23-.1A8.69,8.69,0,0,0,261,19.45Zm9.93,5a2.89,2.89,0,0,1-5.77,0A2.89,2.89,0,0,1,270.94,24.46Z"/><path class="cls-2" d="M230.19,44.42l2.75-.92A13.63,13.63,0,0,0,236.41,47l-.92,2.76a1.84,1.84,0,0,0,1,2.13,17.89,17.89,0,0,0,5.89,1.29,1.83,1.83,0,0,0,1.94-1.36l.67-2.51A13.35,13.35,0,0,0,249.76,48l1.84,1.83a1.85,1.85,0,0,0,2.38.2,17.77,17.77,0,0,0,4.14-4.16,1.84,1.84,0,0,0-.21-2.35l-1.84-1.84A13.19,13.19,0,0,0,257.33,37l2.51-.67a1.84,1.84,0,0,0,1.37-1.94,18.41,18.41,0,0,0-1.29-5.9,1.85,1.85,0,0,0-2.16-1l-2.74.9a13.43,13.43,0,0,0-3.46-3.47l.9-2.73a1.85,1.85,0,0,0-1-2.16,18.29,18.29,0,0,0-5.89-1.29,1.85,1.85,0,0,0-1.94,1.37l-.68,2.5a13.47,13.47,0,0,0-4.73,1.27L236.37,22a1.85,1.85,0,0,0-2.38-.19A17.31,17.31,0,0,0,229.85,26a1.84,1.84,0,0,0,.21,2.36l1.83,1.84a13.08,13.08,0,0,0-1.26,4.73l-2.51.67a1.82,1.82,0,0,0-1.36,1.94A18.28,18.28,0,0,0,228,43.41,1.86,1.86,0,0,0,230.19,44.42Zm8-8.49c1-7.44,10.57-7.44,11.54,0C248.78,43.36,239.18,43.36,238.21,35.93Z"/><path class="cls-2" d="M261,42.52a1,1,0,0,0,.11,1.23l.9.9a6.57,6.57,0,0,0-.63,2.37l-1.23.33a1,1,0,0,0-.7,1,8.48,8.48,0,0,0,.73,2.77,1,1,0,0,0,1.12.53l1.23-.34a7,7,0,0,0,1.73,1.74l-.33,1.22a.94.94,0,0,0,.53,1.12,8.69,8.69,0,0,0,2.77.74,1,1,0,0,0,1-.7l.33-1.23a6.72,6.72,0,0,0,2.36-.63l.9.9a1,1,0,0,0,1.24.1,8.46,8.46,0,0,0,2-2,.94.94,0,0,0-.1-1.23l-.9-.9a6.72,6.72,0,0,0,.63-2.36l1.23-.33a1,1,0,0,0,.7-1,8.44,8.44,0,0,0-.74-2.77.94.94,0,0,0-1.12-.53l-1.23.33A6.77,6.77,0,0,0,271.84,42l.34-1.23a1,1,0,0,0-.53-1.12,8.67,8.67,0,0,0-2.77-.73,1,1,0,0,0-1,.7l-.33,1.23a6.57,6.57,0,0,0-2.37.63l-.9-.9a1,1,0,0,0-1.23-.1A8.85,8.85,0,0,0,261,42.52Zm9.92,5a2.88,2.88,0,0,1-5.76,0A2.88,2.88,0,0,1,270.93,47.54Z"/><path class="cls-2" d="M417.07,17.42a.94.94,0,0,0-1.23.1l-.9.9a6.72,6.72,0,0,0-2.36-.63l-.33-1.23a1,1,0,0,0-1-.7,8.44,8.44,0,0,0-2.77.74.94.94,0,0,0-.53,1.12l.33,1.22a6.81,6.81,0,0,0-1.73,1.74l-1.23-.34a1,1,0,0,0-1.12.53,8.67,8.67,0,0,0-.73,2.77,1,1,0,0,0,.7,1l1.23.33a6.57,6.57,0,0,0,.63,2.37l-.9.9a1,1,0,0,0-.1,1.23,8.85,8.85,0,0,0,2,2,1,1,0,0,0,1.23-.11l.9-.9a6.57,6.57,0,0,0,2.37.63l.33,1.23a1,1,0,0,0,1,.7,8.48,8.48,0,0,0,2.77-.73,1,1,0,0,0,.53-1.12L415.84,30a6.77,6.77,0,0,0,1.73-1.73l1.23.33a.94.94,0,0,0,1.12-.53,8.69,8.69,0,0,0,.74-2.77,1,1,0,0,0-.7-1l-1.23-.33a6.72,6.72,0,0,0-.63-2.36l.9-.9a1,1,0,0,0,.1-1.24A8.46,8.46,0,0,0,417.07,17.42Zm-5,9.92a2.88,2.88,0,0,1,0-5.76A2.88,2.88,0,0,1,412.06,27.34Z"/><path class="cls-2" d="M396.46,49.72,395.54,47A13.43,13.43,0,0,0,399,43.5l2.75.92a1.85,1.85,0,0,0,2.14-1,18.15,18.15,0,0,0,1.29-5.89,1.86,1.86,0,0,0-1.36-2l-2.51-.67a13.42,13.42,0,0,0-1.27-4.73l1.84-1.83a1.85,1.85,0,0,0,.19-2.38,17.58,17.58,0,0,0-4.15-4.15,1.84,1.84,0,0,0-2.35.22l-1.84,1.84A13.42,13.42,0,0,0,389,22.57l-.67-2.51a1.86,1.86,0,0,0-1.95-1.36A17.89,17.89,0,0,0,380.5,20a1.83,1.83,0,0,0-1,2.15l.89,2.75a13.24,13.24,0,0,0-3.46,3.46l-2.73-.9a1.85,1.85,0,0,0-2.16,1,18.35,18.35,0,0,0-1.29,5.89,1.85,1.85,0,0,0,1.37,1.95l2.5.67a13.4,13.4,0,0,0,1.26,4.73L374,43.53a1.87,1.87,0,0,0-.2,2.39A17.35,17.35,0,0,0,378,50.06a1.85,1.85,0,0,0,2.36-.21L382.19,48a13.31,13.31,0,0,0,4.72,1.27l.67,2.5a1.86,1.86,0,0,0,1.95,1.37,18.29,18.29,0,0,0,5.92-1.27A1.84,1.84,0,0,0,396.46,49.72Zm-8.49-8c-7.44-1-7.44-10.57,0-11.55C395.4,31.13,395.4,40.72,388,41.7Z"/><path class="cls-2" d="M417.07,40.49a1,1,0,0,0-1.23.11l-.9.9a6.52,6.52,0,0,0-2.36-.63l-.33-1.23a1,1,0,0,0-1-.7,8.42,8.42,0,0,0-2.77.73,1,1,0,0,0-.53,1.12l.33,1.23a7.11,7.11,0,0,0-1.73,1.73l-1.23-.33a1,1,0,0,0-1.12.53,8.67,8.67,0,0,0-.73,2.77,1,1,0,0,0,.7,1l1.23.33a6.52,6.52,0,0,0,.63,2.36l-.9.9a1,1,0,0,0-.1,1.24,8.61,8.61,0,0,0,2,2,.94.94,0,0,0,1.23-.1l.9-.9a6.78,6.78,0,0,0,2.37.63l.33,1.23a1,1,0,0,0,1,.7,8.5,8.5,0,0,0,2.77-.74,1,1,0,0,0,.53-1.12l-.34-1.22a6.66,6.66,0,0,0,1.73-1.74l1.23.34a1,1,0,0,0,1.12-.53,8.69,8.69,0,0,0,.74-2.77,1,1,0,0,0-.7-1L418.73,47a6.78,6.78,0,0,0-.63-2.37l.9-.9a1,1,0,0,0,.1-1.23A8.69,8.69,0,0,0,417.07,40.49Zm-5,9.92a2.88,2.88,0,0,1,0-5.76A2.88,2.88,0,0,1,412.06,50.41Z"/><path class="cls-2" d="M482.62,15.93a1,1,0,0,0-.79.95v1.27a6.62,6.62,0,0,0-2.12,1.23l-1.1-.64a1,1,0,0,0-1.21.22A8.52,8.52,0,0,0,476,21.44a1,1,0,0,0,.42,1.16l1.1.64a6.73,6.73,0,0,0,0,2.45l-1.1.63a1,1,0,0,0-.42,1.16A8.52,8.52,0,0,0,477.4,30a.94.94,0,0,0,1.21.22l1.1-.63a6.59,6.59,0,0,0,2.12,1.22v1.28a1,1,0,0,0,.8.94,8.85,8.85,0,0,0,2.86,0,1,1,0,0,0,.8-.94V30.77a6.44,6.44,0,0,0,2.11-1.22l1.11.63a1,1,0,0,0,1.21-.22,8.4,8.4,0,0,0,1.44-2.48,1,1,0,0,0-.42-1.16l-1.1-.63a7.2,7.2,0,0,0,0-2.45l1.1-.64a1,1,0,0,0,.42-1.16A8.66,8.66,0,0,0,490.72,19a1,1,0,0,0-1.21-.22l-1.11.64a6.47,6.47,0,0,0-2.11-1.23V16.88a1,1,0,0,0-.8-.95A8.91,8.91,0,0,0,482.62,15.93ZM486.1,26.5A2.89,2.89,0,0,1,482,22.42,2.89,2.89,0,0,1,486.1,26.5Z"/><path class="cls-2" d="M456.23,51.69l1.29-2.61a13.08,13.08,0,0,0,4.91,0l1.29,2.61a1.85,1.85,0,0,0,2.25.77,18.19,18.19,0,0,0,5.08-3.25,1.84,1.84,0,0,0,.41-2.34l-1.3-2.25a13.37,13.37,0,0,0,2.45-4.24h2.59A1.86,1.86,0,0,0,477,38.84,17.79,17.79,0,0,0,477,33a1.84,1.84,0,0,0-1.82-1.51h-2.6a13.18,13.18,0,0,0-2.45-4.24l1.3-2.25a1.84,1.84,0,0,0-.41-2.34A18.22,18.22,0,0,0,466,19.37a1.86,1.86,0,0,0-2.24.82l-1.3,2.57a13.45,13.45,0,0,0-4.9,0l-1.29-2.57a1.88,1.88,0,0,0-2.25-.82,18.32,18.32,0,0,0-5.07,3.26A1.84,1.84,0,0,0,448.5,25l1.29,2.25a13.37,13.37,0,0,0-2.45,4.24h-2.59A1.86,1.86,0,0,0,442.92,33a17.47,17.47,0,0,0,0,5.86,1.86,1.86,0,0,0,1.83,1.52h2.59a13.18,13.18,0,0,0,2.45,4.24l-1.3,2.25a1.84,1.84,0,0,0,.41,2.34A18.32,18.32,0,0,0,454,52.5,1.86,1.86,0,0,0,456.23,51.69ZM455.89,40c-4.57-5.94,2.22-12.73,8.17-8.16C468.63,37.79,461.84,44.58,455.89,40Z"/><path class="cls-2" d="M482.62,39a1,1,0,0,0-.79.94v1.28a6.59,6.59,0,0,0-2.12,1.22l-1.1-.63a1,1,0,0,0-1.21.22A8.4,8.4,0,0,0,476,44.52a1,1,0,0,0,.42,1.16l1.1.63a6.73,6.73,0,0,0,0,2.45l-1.1.64a1,1,0,0,0-.42,1.16A8.66,8.66,0,0,0,477.4,53a1,1,0,0,0,1.21.22l1.1-.64a6.62,6.62,0,0,0,2.12,1.23v1.27a1,1,0,0,0,.8,1,8.85,8.85,0,0,0,2.86,0,1,1,0,0,0,.8-1V53.85a6.47,6.47,0,0,0,2.11-1.23l1.11.64a1,1,0,0,0,1.21-.22,8.52,8.52,0,0,0,1.44-2.48,1,1,0,0,0-.42-1.16l-1.1-.64a7.2,7.2,0,0,0,0-2.45l1.1-.63a1,1,0,0,0,.42-1.16A8.52,8.52,0,0,0,490.72,42a.94.94,0,0,0-1.21-.22l-1.11.63a6.44,6.44,0,0,0-2.11-1.22V40a1,1,0,0,0-.8-.94A8.91,8.91,0,0,0,482.62,39Zm3.47,10.56A2.88,2.88,0,0,1,482,45.5,2.88,2.88,0,0,1,486.09,49.57Z"/><path class="cls-2" d="M549,19.45a1,1,0,0,0,.11,1.23l.9.9a6.52,6.52,0,0,0-.63,2.36l-1.23.33a1,1,0,0,0-.7,1,8.42,8.42,0,0,0,.73,2.77,1,1,0,0,0,1.12.53l1.23-.33A6.94,6.94,0,0,0,552.27,30l-.33,1.23a1,1,0,0,0,.53,1.12,8.67,8.67,0,0,0,2.77.73,1,1,0,0,0,1-.7l.33-1.23a6.52,6.52,0,0,0,2.36-.63l.9.9a1,1,0,0,0,1.24.1,8.61,8.61,0,0,0,2-2,.94.94,0,0,0-.1-1.23l-.9-.9a6.78,6.78,0,0,0,.63-2.37l1.23-.33a1,1,0,0,0,.7-1,8.5,8.5,0,0,0-.74-2.77,1,1,0,0,0-1.12-.53l-1.23.34a6.66,6.66,0,0,0-1.73-1.74l.34-1.22a1,1,0,0,0-.53-1.12,8.69,8.69,0,0,0-2.77-.74,1,1,0,0,0-1,.7l-.33,1.23a6.78,6.78,0,0,0-2.37.63l-.9-.9a1,1,0,0,0-1.23-.1A8.69,8.69,0,0,0,549,19.45Zm9.93,5a2.89,2.89,0,0,1-5.77,0A2.89,2.89,0,0,1,558.94,24.46Z"/><path class="cls-2" d="M518.19,44.42l2.75-.92A13.63,13.63,0,0,0,524.41,47l-.92,2.76a1.84,1.84,0,0,0,1,2.13,17.89,17.89,0,0,0,5.89,1.29,1.83,1.83,0,0,0,1.94-1.36l.67-2.51A13.35,13.35,0,0,0,537.76,48l1.84,1.83a1.85,1.85,0,0,0,2.38.2,17.77,17.77,0,0,0,4.14-4.16,1.84,1.84,0,0,0-.21-2.35l-1.84-1.84A13.19,13.19,0,0,0,545.33,37l2.51-.67a1.84,1.84,0,0,0,1.37-1.94,18.41,18.41,0,0,0-1.29-5.9,1.85,1.85,0,0,0-2.16-1l-2.74.9a13.43,13.43,0,0,0-3.46-3.47l.9-2.73a1.85,1.85,0,0,0-1-2.16,18.29,18.29,0,0,0-5.89-1.29,1.85,1.85,0,0,0-1.94,1.37l-.68,2.5a13.47,13.47,0,0,0-4.73,1.27L524.37,22a1.85,1.85,0,0,0-2.38-.19A17.31,17.31,0,0,0,517.85,26a1.84,1.84,0,0,0,.21,2.36l1.83,1.84a13.08,13.08,0,0,0-1.26,4.73l-2.51.67a1.82,1.82,0,0,0-1.36,1.94A18.28,18.28,0,0,0,516,43.41,1.86,1.86,0,0,0,518.19,44.42Zm8-8.49c1-7.44,10.57-7.44,11.54,0C536.78,43.36,527.18,43.36,526.21,35.93Z"/><path class="cls-2" d="M549,42.52a1,1,0,0,0,.11,1.23l.9.9a6.57,6.57,0,0,0-.63,2.37l-1.23.33a1,1,0,0,0-.7,1,8.48,8.48,0,0,0,.73,2.77,1,1,0,0,0,1.12.53l1.23-.34a7,7,0,0,0,1.73,1.74l-.33,1.22a.94.94,0,0,0,.53,1.12,8.69,8.69,0,0,0,2.77.74,1,1,0,0,0,1-.7l.33-1.23a6.72,6.72,0,0,0,2.36-.63l.9.9a1,1,0,0,0,1.24.1,8.46,8.46,0,0,0,2-2,.94.94,0,0,0-.1-1.23l-.9-.9a6.72,6.72,0,0,0,.63-2.36l1.23-.33a1,1,0,0,0,.7-1,8.44,8.44,0,0,0-.74-2.77.94.94,0,0,0-1.12-.53l-1.23.33A6.77,6.77,0,0,0,559.84,42l.34-1.23a1,1,0,0,0-.53-1.12,8.67,8.67,0,0,0-2.77-.73,1,1,0,0,0-1,.7l-.33,1.23a6.57,6.57,0,0,0-2.37.63l-.9-.9a1,1,0,0,0-1.23-.1A8.85,8.85,0,0,0,549,42.52Zm9.92,5a2.88,2.88,0,0,1-5.76,0A2.88,2.88,0,0,1,558.93,47.54Z"/><path class="cls-2" d="M705.07,17.42a.94.94,0,0,0-1.23.1l-.9.9a6.72,6.72,0,0,0-2.36-.63l-.33-1.23a1,1,0,0,0-1-.7,8.44,8.44,0,0,0-2.77.74.94.94,0,0,0-.53,1.12l.33,1.22a6.81,6.81,0,0,0-1.73,1.74l-1.23-.34a1,1,0,0,0-1.12.53,8.67,8.67,0,0,0-.73,2.77,1,1,0,0,0,.7,1l1.23.33a6.57,6.57,0,0,0,.63,2.37l-.9.9a1,1,0,0,0-.1,1.23,8.85,8.85,0,0,0,2,2,1,1,0,0,0,1.23-.11l.9-.9a6.57,6.57,0,0,0,2.37.63l.33,1.23a1,1,0,0,0,1,.7,8.48,8.48,0,0,0,2.77-.73,1,1,0,0,0,.53-1.12L703.84,30a6.77,6.77,0,0,0,1.73-1.73l1.23.33a.94.94,0,0,0,1.12-.53,8.69,8.69,0,0,0,.74-2.77,1,1,0,0,0-.7-1l-1.23-.33a6.72,6.72,0,0,0-.63-2.36l.9-.9a1,1,0,0,0,.1-1.24A8.46,8.46,0,0,0,705.07,17.42Zm-5,9.92a2.88,2.88,0,0,1,0-5.76A2.88,2.88,0,0,1,700.06,27.34Z"/><path class="cls-2" d="M684.46,49.72,683.54,47A13.43,13.43,0,0,0,687,43.5l2.75.92a1.85,1.85,0,0,0,2.14-1,18.15,18.15,0,0,0,1.29-5.89,1.86,1.86,0,0,0-1.36-2l-2.51-.67a13.42,13.42,0,0,0-1.27-4.73l1.84-1.83a1.85,1.85,0,0,0,.19-2.38,17.58,17.58,0,0,0-4.15-4.15,1.84,1.84,0,0,0-2.35.22l-1.84,1.84A13.42,13.42,0,0,0,677,22.57l-.67-2.51a1.86,1.86,0,0,0-2-1.36A17.89,17.89,0,0,0,668.5,20a1.83,1.83,0,0,0-1,2.15l.89,2.75a13.24,13.24,0,0,0-3.46,3.46l-2.73-.9a1.85,1.85,0,0,0-2.16,1,18.35,18.35,0,0,0-1.29,5.89,1.85,1.85,0,0,0,1.37,1.95l2.5.67a13.4,13.4,0,0,0,1.26,4.73L662,43.53a1.87,1.87,0,0,0-.2,2.39A17.35,17.35,0,0,0,666,50.06a1.85,1.85,0,0,0,2.36-.21L670.19,48a13.31,13.31,0,0,0,4.72,1.27l.67,2.5a1.86,1.86,0,0,0,1.95,1.37,18.29,18.29,0,0,0,5.92-1.27A1.84,1.84,0,0,0,684.46,49.72Zm-8.49-8c-7.44-1-7.44-10.57,0-11.55C683.4,31.13,683.4,40.72,676,41.7Z"/><path class="cls-2" d="M705.07,40.49a1,1,0,0,0-1.23.11l-.9.9a6.52,6.52,0,0,0-2.36-.63l-.33-1.23a1,1,0,0,0-1-.7,8.42,8.42,0,0,0-2.77.73,1,1,0,0,0-.53,1.12l.33,1.23a7.11,7.11,0,0,0-1.73,1.73l-1.23-.33a1,1,0,0,0-1.12.53,8.67,8.67,0,0,0-.73,2.77,1,1,0,0,0,.7,1l1.23.33a6.52,6.52,0,0,0,.63,2.36l-.9.9a1,1,0,0,0-.1,1.24,8.61,8.61,0,0,0,2,2,.94.94,0,0,0,1.23-.1l.9-.9a6.78,6.78,0,0,0,2.37.63l.33,1.23a1,1,0,0,0,1,.7,8.5,8.5,0,0,0,2.77-.74,1,1,0,0,0,.53-1.12l-.34-1.22a6.66,6.66,0,0,0,1.73-1.74l1.23.34a1,1,0,0,0,1.12-.53,8.69,8.69,0,0,0,.74-2.77,1,1,0,0,0-.7-1L706.73,47a6.78,6.78,0,0,0-.63-2.37l.9-.9a1,1,0,0,0,.1-1.23A8.69,8.69,0,0,0,705.07,40.49Zm-5,9.92a2.88,2.88,0,0,1,0-5.76A2.88,2.88,0,0,1,700.06,50.41Z"/><path class="cls-2" d="M770.62,15.93a1,1,0,0,0-.79.95v1.27a6.62,6.62,0,0,0-2.12,1.23l-1.1-.64a1,1,0,0,0-1.21.22A8.52,8.52,0,0,0,764,21.44a1,1,0,0,0,.42,1.16l1.1.64a6.73,6.73,0,0,0,0,2.45l-1.1.63a1,1,0,0,0-.42,1.16A8.52,8.52,0,0,0,765.4,30a.94.94,0,0,0,1.21.22l1.1-.63a6.59,6.59,0,0,0,2.12,1.22v1.28a1,1,0,0,0,.8.94,8.85,8.85,0,0,0,2.86,0,1,1,0,0,0,.8-.94V30.77a6.44,6.44,0,0,0,2.11-1.22l1.11.63a1,1,0,0,0,1.21-.22,8.4,8.4,0,0,0,1.44-2.48,1,1,0,0,0-.42-1.16l-1.1-.63a7.2,7.2,0,0,0,0-2.45l1.1-.64a1,1,0,0,0,.42-1.16A8.66,8.66,0,0,0,778.72,19a1,1,0,0,0-1.21-.22l-1.11.64a6.47,6.47,0,0,0-2.11-1.23V16.88a1,1,0,0,0-.8-.95A8.91,8.91,0,0,0,770.62,15.93ZM774.1,26.5A2.89,2.89,0,0,1,770,22.42,2.89,2.89,0,0,1,774.1,26.5Z"/><path class="cls-2" d="M744.23,51.69l1.29-2.61a13.08,13.08,0,0,0,4.91,0l1.29,2.61a1.85,1.85,0,0,0,2.25.77,18.19,18.19,0,0,0,5.08-3.25,1.84,1.84,0,0,0,.41-2.34l-1.3-2.25a13.37,13.37,0,0,0,2.45-4.24h2.59A1.86,1.86,0,0,0,765,38.84,17.79,17.79,0,0,0,765,33a1.84,1.84,0,0,0-1.82-1.51h-2.6a13.18,13.18,0,0,0-2.45-4.24l1.3-2.25a1.84,1.84,0,0,0-.41-2.34A18.22,18.22,0,0,0,754,19.37a1.86,1.86,0,0,0-2.24.82l-1.3,2.57a13.45,13.45,0,0,0-4.9,0l-1.29-2.57a1.88,1.88,0,0,0-2.25-.82,18.32,18.32,0,0,0-5.07,3.26A1.84,1.84,0,0,0,736.5,25l1.29,2.25a13.37,13.37,0,0,0-2.45,4.24h-2.59A1.86,1.86,0,0,0,730.92,33a17.47,17.47,0,0,0,0,5.86,1.86,1.86,0,0,0,1.83,1.52h2.59a13.18,13.18,0,0,0,2.45,4.24l-1.3,2.25a1.84,1.84,0,0,0,.41,2.34A18.32,18.32,0,0,0,742,52.5,1.86,1.86,0,0,0,744.23,51.69ZM743.89,40c-4.57-5.94,2.22-12.73,8.17-8.16C756.63,37.79,749.84,44.58,743.89,40Z"/><path class="cls-2" d="M770.62,39a1,1,0,0,0-.79.94v1.28a6.59,6.59,0,0,0-2.12,1.22l-1.1-.63a1,1,0,0,0-1.21.22A8.4,8.4,0,0,0,764,44.52a1,1,0,0,0,.42,1.16l1.1.63a6.73,6.73,0,0,0,0,2.45l-1.1.64a1,1,0,0,0-.42,1.16A8.66,8.66,0,0,0,765.4,53a1,1,0,0,0,1.21.22l1.1-.64a6.62,6.62,0,0,0,2.12,1.23v1.27a1,1,0,0,0,.8,1,8.85,8.85,0,0,0,2.86,0,1,1,0,0,0,.8-1V53.85a6.47,6.47,0,0,0,2.11-1.23l1.11.64a1,1,0,0,0,1.21-.22,8.52,8.52,0,0,0,1.44-2.48,1,1,0,0,0-.42-1.16l-1.1-.64a7.2,7.2,0,0,0,0-2.45l1.1-.63a1,1,0,0,0,.42-1.16A8.52,8.52,0,0,0,778.72,42a.94.94,0,0,0-1.21-.22l-1.11.63a6.44,6.44,0,0,0-2.11-1.22V40a1,1,0,0,0-.8-.94A8.91,8.91,0,0,0,770.62,39Zm3.47,10.56A2.88,2.88,0,0,1,770,45.5,2.88,2.88,0,0,1,774.09,49.57Z"/><path class="cls-2" d="M837,19.45a1,1,0,0,0,.11,1.23l.9.9a6.52,6.52,0,0,0-.63,2.36l-1.23.33a1,1,0,0,0-.7,1,8.42,8.42,0,0,0,.73,2.77,1,1,0,0,0,1.12.53l1.23-.33A6.94,6.94,0,0,0,840.27,30l-.33,1.23a1,1,0,0,0,.53,1.12,8.67,8.67,0,0,0,2.77.73,1,1,0,0,0,1-.7l.33-1.23a6.52,6.52,0,0,0,2.36-.63l.9.9a1,1,0,0,0,1.24.1,8.61,8.61,0,0,0,2-2,.94.94,0,0,0-.1-1.23l-.9-.9a6.78,6.78,0,0,0,.63-2.37l1.23-.33a1,1,0,0,0,.7-1,8.5,8.5,0,0,0-.74-2.77,1,1,0,0,0-1.12-.53l-1.23.34a6.66,6.66,0,0,0-1.73-1.74l.34-1.22a1,1,0,0,0-.53-1.12,8.69,8.69,0,0,0-2.77-.74,1,1,0,0,0-1,.7l-.33,1.23a6.78,6.78,0,0,0-2.37.63l-.9-.9a1,1,0,0,0-1.23-.1A8.69,8.69,0,0,0,837,19.45Zm9.93,5a2.89,2.89,0,0,1-5.77,0A2.89,2.89,0,0,1,846.94,24.46Z"/><path class="cls-2" d="M806.19,44.42l2.75-.92A13.63,13.63,0,0,0,812.41,47l-.92,2.76a1.84,1.84,0,0,0,1,2.13,17.89,17.89,0,0,0,5.89,1.29,1.83,1.83,0,0,0,1.94-1.36l.67-2.51A13.35,13.35,0,0,0,825.76,48l1.84,1.83a1.85,1.85,0,0,0,2.38.2,17.77,17.77,0,0,0,4.14-4.16,1.84,1.84,0,0,0-.21-2.35l-1.84-1.84A13.19,13.19,0,0,0,833.33,37l2.51-.67a1.84,1.84,0,0,0,1.37-1.94,18.41,18.41,0,0,0-1.29-5.9,1.85,1.85,0,0,0-2.16-1l-2.74.9a13.43,13.43,0,0,0-3.46-3.47l.9-2.73a1.85,1.85,0,0,0-1-2.16,18.29,18.29,0,0,0-5.89-1.29,1.85,1.85,0,0,0-1.94,1.37l-.68,2.5a13.47,13.47,0,0,0-4.73,1.27L812.37,22a1.85,1.85,0,0,0-2.38-.19A17.31,17.31,0,0,0,805.85,26a1.84,1.84,0,0,0,.21,2.36l1.83,1.84a13.08,13.08,0,0,0-1.26,4.73l-2.51.67a1.82,1.82,0,0,0-1.36,1.94A18.28,18.28,0,0,0,804,43.41,1.86,1.86,0,0,0,806.19,44.42Zm8-8.49c1-7.44,10.57-7.44,11.54,0C824.78,43.36,815.18,43.36,814.21,35.93Z"/><path class="cls-2" d="M837,42.52a1,1,0,0,0,.11,1.23l.9.9a6.57,6.57,0,0,0-.63,2.37l-1.23.33a1,1,0,0,0-.7,1,8.48,8.48,0,0,0,.73,2.77,1,1,0,0,0,1.12.53l1.23-.34a7,7,0,0,0,1.73,1.74l-.33,1.22a.94.94,0,0,0,.53,1.12,8.69,8.69,0,0,0,2.77.74,1,1,0,0,0,1-.7l.33-1.23a6.72,6.72,0,0,0,2.36-.63l.9.9a1,1,0,0,0,1.24.1,8.46,8.46,0,0,0,2-2,.94.94,0,0,0-.1-1.23l-.9-.9a6.72,6.72,0,0,0,.63-2.36l1.23-.33a1,1,0,0,0,.7-1,8.44,8.44,0,0,0-.74-2.77.94.94,0,0,0-1.12-.53l-1.23.33A6.77,6.77,0,0,0,847.84,42l.34-1.23a1,1,0,0,0-.53-1.12,8.67,8.67,0,0,0-2.77-.73,1,1,0,0,0-1,.7l-.33,1.23a6.57,6.57,0,0,0-2.37.63l-.9-.9a1,1,0,0,0-1.23-.1A8.85,8.85,0,0,0,837,42.52Zm9.92,5a2.88,2.88,0,0,1-5.76,0A2.88,2.88,0,0,1,846.93,47.54Z"/><path class="cls-2" d="M331.53,25.9a1,1,0,0,0,.94.79h1.28A6.59,6.59,0,0,0,335,28.81l-.63,1.1a1,1,0,0,0,.22,1.21A8.4,8.4,0,0,0,337,32.56a1,1,0,0,0,1.16-.42l.63-1.1a6.73,6.73,0,0,0,2.45,0l.63,1.1a1,1,0,0,0,1.17.42,8.66,8.66,0,0,0,2.48-1.44,1,1,0,0,0,.22-1.21l-.64-1.1a6.81,6.81,0,0,0,1.23-2.12h1.27a1,1,0,0,0,.95-.8,8.85,8.85,0,0,0,0-2.86,1,1,0,0,0-.95-.8h-1.27a6.81,6.81,0,0,0-1.23-2.12l.64-1.1a1,1,0,0,0-.22-1.21,8.52,8.52,0,0,0-2.48-1.44,1,1,0,0,0-1.17.42l-.63,1.1a7.2,7.2,0,0,0-2.45,0l-.63-1.1a1,1,0,0,0-1.16-.42,8.52,8.52,0,0,0-2.48,1.44.94.94,0,0,0-.22,1.21l.63,1.1a6.59,6.59,0,0,0-1.22,2.12h-1.28a1,1,0,0,0-.94.8A8.91,8.91,0,0,0,331.53,25.9Zm10.56-3.48A2.88,2.88,0,0,1,338,26.5,2.88,2.88,0,0,1,342.09,22.42Z"/><path class="cls-2" d="M300.22,32.19l2.6,1.3a13.45,13.45,0,0,0,0,4.9l-2.6,1.3a1.83,1.83,0,0,0-.77,2.24A18,18,0,0,0,302.7,47a1.84,1.84,0,0,0,2.34.41l2.24-1.3a13.4,13.4,0,0,0,4.24,2.45v2.6A1.86,1.86,0,0,0,313.07,53a17.46,17.46,0,0,0,5.86,0,1.84,1.84,0,0,0,1.52-1.81V48.56a13.26,13.26,0,0,0,4.24-2.44l2.24,1.29a1.84,1.84,0,0,0,2.34-.41,18.08,18.08,0,0,0,3.26-5.08,1.82,1.82,0,0,0-.81-2.23l-2.57-1.31a13.4,13.4,0,0,0,0-4.89l2.57-1.3a1.87,1.87,0,0,0,.81-2.25,18.32,18.32,0,0,0-3.26-5.07,1.84,1.84,0,0,0-2.34-.41l-2.24,1.29a13.48,13.48,0,0,0-4.24-2.45V20.71a1.85,1.85,0,0,0-1.55-1.82,17.21,17.21,0,0,0-5.86,0,1.84,1.84,0,0,0-1.52,1.82V23.3a13.4,13.4,0,0,0-4.24,2.45L305,24.45a1.84,1.84,0,0,0-2.34.41,18.32,18.32,0,0,0-3.29,5.08A1.86,1.86,0,0,0,300.22,32.19Zm11.68-.33c6-4.57,12.73,2.21,8.16,8.16C314.12,44.59,307.33,37.8,311.9,31.86Z"/><path class="cls-2" d="M331.53,49a1,1,0,0,0,.94.8h1.28A6.59,6.59,0,0,0,335,51.89l-.63,1.1a1,1,0,0,0,.22,1.21A8.4,8.4,0,0,0,337,55.64a1,1,0,0,0,1.16-.42l.63-1.1a7.2,7.2,0,0,0,2.45,0l.63,1.1a1,1,0,0,0,1.17.42,8.66,8.66,0,0,0,2.48-1.44,1,1,0,0,0,.22-1.21l-.64-1.1a6.81,6.81,0,0,0,1.23-2.12h1.27a1,1,0,0,0,.95-.8,8.91,8.91,0,0,0,0-2.87,1,1,0,0,0-.95-.79h-1.27a6.81,6.81,0,0,0-1.23-2.12l.64-1.1a1,1,0,0,0-.22-1.21,8.52,8.52,0,0,0-2.48-1.44,1,1,0,0,0-1.17.42l-.63,1.1a6.73,6.73,0,0,0-2.45,0l-.63-1.1a1,1,0,0,0-1.16-.42,8.52,8.52,0,0,0-2.48,1.44.94.94,0,0,0-.22,1.21l.63,1.1a6.59,6.59,0,0,0-1.22,2.12h-1.28a1,1,0,0,0-.94.8A8.85,8.85,0,0,0,331.53,49Zm10.56-3.46A2.88,2.88,0,0,1,338,49.58,2.88,2.88,0,0,1,342.09,45.51Z"/><path class="cls-2" d="M619.53,25.9a1,1,0,0,0,.94.79h1.28A6.59,6.59,0,0,0,623,28.81l-.63,1.1a1,1,0,0,0,.22,1.21A8.4,8.4,0,0,0,625,32.56a1,1,0,0,0,1.16-.42l.63-1.1a6.73,6.73,0,0,0,2.45,0l.63,1.1a1,1,0,0,0,1.17.42,8.66,8.66,0,0,0,2.48-1.44,1,1,0,0,0,.22-1.21l-.64-1.1a6.81,6.81,0,0,0,1.23-2.12h1.27a1,1,0,0,0,1-.8,8.85,8.85,0,0,0,0-2.86,1,1,0,0,0-1-.8h-1.27a6.81,6.81,0,0,0-1.23-2.12l.64-1.1a1,1,0,0,0-.22-1.21,8.52,8.52,0,0,0-2.48-1.44,1,1,0,0,0-1.17.42l-.63,1.1a7.2,7.2,0,0,0-2.45,0l-.63-1.1a1,1,0,0,0-1.16-.42,8.52,8.52,0,0,0-2.48,1.44.94.94,0,0,0-.22,1.21l.63,1.1a6.59,6.59,0,0,0-1.22,2.12h-1.28a1,1,0,0,0-.94.8A8.91,8.91,0,0,0,619.53,25.9Zm10.56-3.48A2.88,2.88,0,0,1,626,26.5,2.88,2.88,0,0,1,630.09,22.42Z"/><path class="cls-2" d="M588.22,32.19l2.6,1.3a13.45,13.45,0,0,0,0,4.9l-2.6,1.3a1.83,1.83,0,0,0-.77,2.24A18,18,0,0,0,590.7,47a1.84,1.84,0,0,0,2.34.41l2.24-1.3a13.4,13.4,0,0,0,4.24,2.45v2.6A1.86,1.86,0,0,0,601.07,53a17.46,17.46,0,0,0,5.86,0,1.84,1.84,0,0,0,1.52-1.81V48.56a13.26,13.26,0,0,0,4.24-2.44l2.24,1.29a1.84,1.84,0,0,0,2.34-.41,18.08,18.08,0,0,0,3.26-5.08,1.82,1.82,0,0,0-.81-2.23l-2.57-1.31a13.4,13.4,0,0,0,0-4.89l2.57-1.3a1.87,1.87,0,0,0,.81-2.25,18.32,18.32,0,0,0-3.26-5.07,1.84,1.84,0,0,0-2.34-.41l-2.24,1.29a13.48,13.48,0,0,0-4.24-2.45V20.71a1.85,1.85,0,0,0-1.55-1.82,17.21,17.21,0,0,0-5.86,0,1.84,1.84,0,0,0-1.52,1.82V23.3a13.4,13.4,0,0,0-4.24,2.45L593,24.45a1.84,1.84,0,0,0-2.34.41,18.32,18.32,0,0,0-3.29,5.08A1.86,1.86,0,0,0,588.22,32.19Zm11.68-.33c6-4.57,12.73,2.21,8.16,8.16C602.12,44.59,595.33,37.8,599.9,31.86Z"/><path class="cls-2" d="M619.53,49a1,1,0,0,0,.94.8h1.28A6.59,6.59,0,0,0,623,51.89l-.63,1.1a1,1,0,0,0,.22,1.21A8.4,8.4,0,0,0,625,55.64a1,1,0,0,0,1.16-.42l.63-1.1a7.2,7.2,0,0,0,2.45,0l.63,1.1a1,1,0,0,0,1.17.42,8.66,8.66,0,0,0,2.48-1.44,1,1,0,0,0,.22-1.21l-.64-1.1a6.81,6.81,0,0,0,1.23-2.12h1.27a1,1,0,0,0,1-.8,8.91,8.91,0,0,0,0-2.87,1,1,0,0,0-1-.79h-1.27a6.81,6.81,0,0,0-1.23-2.12l.64-1.1a1,1,0,0,0-.22-1.21,8.52,8.52,0,0,0-2.48-1.44,1,1,0,0,0-1.17.42l-.63,1.1a6.73,6.73,0,0,0-2.45,0l-.63-1.1a1,1,0,0,0-1.16-.42,8.52,8.52,0,0,0-2.48,1.44.94.94,0,0,0-.22,1.21l.63,1.1a6.59,6.59,0,0,0-1.22,2.12h-1.28a1,1,0,0,0-.94.8A8.85,8.85,0,0,0,619.53,49Zm10.56-3.46A2.88,2.88,0,0,1,626,49.58,2.88,2.88,0,0,1,630.09,45.51Z"/></g></g></svg>