<svg xmlns="http://www.w3.org/2000/svg" viewBox="0 0 864 72"><defs><style>.cls-1{fill:none;}.cls-2{fill:#59bce4;}</style></defs><title>tasks_1</title><g id="Layer_2" data-name="Layer 2"><g id="Layer_1-2" data-name="Layer 1"><rect class="cls-1" width="72" height="72"/><rect class="cls-1" x="72" width="72" height="72"/><rect class="cls-1" x="144" width="72" height="72"/><rect class="cls-1" x="216" width="72" height="72"/><rect class="cls-1" x="288" width="72" height="72"/><rect class="cls-1" x="360" width="72" height="72"/><rect class="cls-1" x="432" width="72" height="72"/><rect class="cls-1" x="504" width="72" height="72"/><rect class="cls-1" x="576" width="72" height="72"/><rect class="cls-1" x="648" width="72" height="72"/><rect class="cls-1" x="720" width="72" height="72"/><rect class="cls-1" x="792" width="72" height="72"/><path class="cls-2" d="M18.81,46.94H12.56A1.56,1.56,0,0,0,11,48.5v6.25a1.56,1.56,0,0,0,1.56,1.56h6.25a1.56,1.56,0,0,0,1.57-1.56V48.5A1.56,1.56,0,0,0,18.81,46.94Zm0-31.25H12.56A1.56,1.56,0,0,0,11,17.25V23.5a1.56,1.56,0,0,0,1.56,1.56h6.25a1.56,1.56,0,0,0,1.57-1.56V17.25A1.56,1.56,0,0,0,18.81,15.69Zm0,15.62H12.56A1.56,1.56,0,0,0,11,32.88v6.25a1.56,1.56,0,0,0,1.56,1.56h6.25a1.56,1.56,0,0,0,1.57-1.56V32.88A1.57,1.57,0,0,0,18.81,31.31ZM59.44,48.5H28.19a1.56,1.56,0,0,0-1.56,1.56v3.13a1.56,1.56,0,0,0,1.56,1.56H59.44A1.56,1.56,0,0,0,61,53.19V50.06A1.56,1.56,0,0,0,59.44,48.5Zm0-31.25H28.19a1.56,1.56,0,0,0-1.56,1.56v3.13a1.56,1.56,0,0,0,1.56,1.56H59.44A1.56,1.56,0,0,0,61,21.94V18.81A1.56,1.56,0,0,0,59.44,17.25Zm0,15.63H28.19a1.55,1.55,0,0,0-1.56,1.56v3.12a1.56,1.56,0,0,0,1.56,1.57H59.44A1.56,1.56,0,0,0,61,37.56V34.44A1.56,1.56,0,0,0,59.44,32.88Z"/><path class="cls-2" d="M594.81,46.94h-6.25A1.56,1.56,0,0,0,587,48.5v6.25a1.56,1.56,0,0,0,1.56,1.56h6.25a1.56,1.56,0,0,0,1.57-1.56V48.5A1.56,1.56,0,0,0,594.81,46.94Zm0-31.25h-6.25A1.56,1.56,0,0,0,587,17.25V23.5a1.56,1.56,0,0,0,1.56,1.56h6.25a1.56,1.56,0,0,0,1.57-1.56V17.25A1.56,1.56,0,0,0,594.81,15.69Zm0,15.62h-6.25A1.56,1.56,0,0,0,587,32.88v6.25a1.56,1.56,0,0,0,1.56,1.56h6.25a1.56,1.56,0,0,0,1.57-1.56V32.88A1.57,1.57,0,0,0,594.81,31.31ZM635.44,48.5H604.19a1.56,1.56,0,0,0-1.56,1.56v3.13a1.56,1.56,0,0,0,1.56,1.56h31.25A1.56,1.56,0,0,0,637,53.19V50.06A1.56,1.56,0,0,0,635.44,48.5Zm0-31.25H604.19a1.56,1.56,0,0,0-1.56,1.56v3.13a1.56,1.56,0,0,0,1.56,1.56h31.25A1.56,1.56,0,0,0,637,21.94V18.81A1.56,1.56,0,0,0,635.44,17.25Zm0,15.63H604.19a1.55,1.55,0,0,0-1.56,1.56v3.12a1.56,1.56,0,0,0,1.56,1.57h31.25A1.56,1.56,0,0,0,637,37.56V34.44A1.56,1.56,0,0,0,635.44,32.88Z"/><path class="cls-2" d="M666.81,46.94h-6.25A1.56,1.56,0,0,0,659,48.5v6.25a1.56,1.56,0,0,0,1.56,1.56h6.25a1.56,1.56,0,0,0,1.57-1.56V48.5A1.56,1.56,0,0,0,666.81,46.94Zm0-31.25h-6.25A1.56,1.56,0,0,0,659,17.25V23.5a1.56,1.56,0,0,0,1.56,1.56h6.25a1.56,1.56,0,0,0,1.57-1.56V17.25A1.56,1.56,0,0,0,666.81,15.69Zm0,15.62h-6.25A1.56,1.56,0,0,0,659,32.88v6.25a1.56,1.56,0,0,0,1.56,1.56h6.25a1.56,1.56,0,0,0,1.57-1.56V32.88A1.57,1.57,0,0,0,666.81,31.31ZM707.44,48.5H676.19a1.56,1.56,0,0,0-1.56,1.56v3.13a1.56,1.56,0,0,0,1.56,1.56h31.25A1.56,1.56,0,0,0,709,53.19V50.06A1.56,1.56,0,0,0,707.44,48.5Zm0-31.25H676.19a1.56,1.56,0,0,0-1.56,1.56v3.13a1.56,1.56,0,0,0,1.56,1.56h31.25A1.56,1.56,0,0,0,709,21.94V18.81A1.56,1.56,0,0,0,707.44,17.25Zm0,15.63H676.19a1.55,1.55,0,0,0-1.56,1.56v3.12a1.56,1.56,0,0,0,1.56,1.57h31.25A1.56,1.56,0,0,0,709,37.56V34.44A1.56,1.56,0,0,0,707.44,32.88Z"/><path class="cls-2" d="M738.81,46.94h-6.25A1.56,1.56,0,0,0,731,48.5v6.25a1.56,1.56,0,0,0,1.56,1.56h6.25a1.56,1.56,0,0,0,1.57-1.56V48.5A1.56,1.56,0,0,0,738.81,46.94Zm0-31.25h-6.25A1.56,1.56,0,0,0,731,17.25V23.5a1.56,1.56,0,0,0,1.56,1.56h6.25a1.56,1.56,0,0,0,1.57-1.56V17.25A1.56,1.56,0,0,0,738.81,15.69Zm0,15.62h-6.25A1.56,1.56,0,0,0,731,32.88v6.25a1.56,1.56,0,0,0,1.56,1.56h6.25a1.56,1.56,0,0,0,1.57-1.56V32.88A1.57,1.57,0,0,0,738.81,31.31ZM779.44,48.5H748.19a1.56,1.56,0,0,0-1.56,1.56v3.13a1.56,1.56,0,0,0,1.56,1.56h31.25A1.56,1.56,0,0,0,781,53.19V50.06A1.56,1.56,0,0,0,779.44,48.5Zm0-31.25H748.19a1.56,1.56,0,0,0-1.56,1.56v3.13a1.56,1.56,0,0,0,1.56,1.56h31.25A1.56,1.56,0,0,0,781,21.94V18.81A1.56,1.56,0,0,0,779.44,17.25Zm0,15.63H748.19a1.55,1.55,0,0,0-1.56,1.56v3.12a1.56,1.56,0,0,0,1.56,1.57h31.25A1.56,1.56,0,0,0,781,37.56V34.44A1.56,1.56,0,0,0,779.44,32.88Z"/><path class="cls-2" d="M810.81,46.94h-6.25A1.56,1.56,0,0,0,803,48.5v6.25a1.56,1.56,0,0,0,1.56,1.56h6.25a1.56,1.56,0,0,0,1.57-1.56V48.5A1.56,1.56,0,0,0,810.81,46.94Zm0-31.25h-6.25A1.56,1.56,0,0,0,803,17.25V23.5a1.56,1.56,0,0,0,1.56,1.56h6.25a1.56,1.56,0,0,0,1.57-1.56V17.25A1.56,1.56,0,0,0,810.81,15.69Zm0,15.62h-6.25A1.56,1.56,0,0,0,803,32.88v6.25a1.56,1.56,0,0,0,1.56,1.56h6.25a1.56,1.56,0,0,0,1.57-1.56V32.88A1.57,1.57,0,0,0,810.81,31.31ZM851.44,48.5H820.19a1.56,1.56,0,0,0-1.56,1.56v3.13a1.56,1.56,0,0,0,1.56,1.56h31.25A1.56,1.56,0,0,0,853,53.19V50.06A1.56,1.56,0,0,0,851.44,48.5Zm0-31.25H820.19a1.56,1.56,0,0,0-1.56,1.56v3.13a1.56,1.56,0,0,0,1.56,1.56h31.25A1.56,1.56,0,0,0,853,21.94V18.81A1.56,1.56,0,0,0,851.44,17.25Zm0,15.63H820.19a1.55,1.55,0,0,0-1.56,1.56v3.12a1.56,1.56,0,0,0,1.56,1.57h31.25A1.56,1.56,0,0,0,853,37.56V34.44A1.56,1.56,0,0,0,851.44,32.88Z"/><rect class="cls-2" x="83" y="42.29" width="9.38" height="9.38" rx="1.56"/><rect class="cls-2" x="83" y="26.67" width="9.38" height="9.38" rx="1.56"/><rect class="cls-2" x="98.63" y="43.85" width="34.38" height="6.25" rx="1.56"/><rect class="cls-2" x="98.63" y="28.23" width="34.38" height="6.25" rx="1.56"/><path class="cls-2" d="M98.63,15.68v1.61a1.55,1.55,0,0,0,1.56,1.56h31.25A1.56,1.56,0,0,0,133,17.29V15.68Z"/><path class="cls-2" d="M83,15.68v3.17a1.56,1.56,0,0,0,1.56,1.57h6.25a1.57,1.57,0,0,0,1.57-1.57V15.68Z"/><rect class="cls-2" x="155" y="38.52" width="9.38" height="9.38" rx="1.56"/><rect class="cls-2" x="155" y="22.9" width="9.38" height="9.38" rx="1.56"/><rect class="cls-2" x="170.63" y="40.08" width="34.38" height="6.25" rx="1.56"/><rect class="cls-2" x="170.63" y="24.46" width="34.38" height="6.25" rx="1.56"/><path class="cls-2" d="M155.12,15.68a1.55,1.55,0,0,0,1.44,1h6.25a1.58,1.58,0,0,0,1.45-1Z"/><path class="cls-2" d="M160.49,56.32c-.12-.58-.46-1-.87-1h-3.7c-.4,0-.74.42-.87,1Z"/><rect class="cls-2" x="227" y="32.61" width="9.38" height="9.38" rx="1.56"/><rect class="cls-2" x="227" y="16.99" width="9.38" height="9.38" rx="1.56"/><rect class="cls-2" x="242.63" y="34.18" width="34.38" height="6.25" rx="1.56"/><rect class="cls-2" x="242.63" y="18.55" width="34.38" height="6.25" rx="1.56"/><path class="cls-2" d="M243.37,56.32h3.86v-6h-3a1.56,1.56,0,0,0-1.56,1.56V55A1.55,1.55,0,0,0,243.37,56.32Z"/><path class="cls-2" d="M227.72,56.32h5.93a1.21,1.21,0,0,0,.71-1.11v-4.9a1.23,1.23,0,0,0-1.23-1.23h-4.9A1.23,1.23,0,0,0,227,50.31v4.9A1.22,1.22,0,0,0,227.72,56.32Z"/><rect class="cls-2" x="299" y="46.94" width="9.38" height="9.38" rx="1.56"/><rect class="cls-2" x="299" y="15.69" width="9.38" height="9.38" rx="1.56"/><rect class="cls-2" x="299" y="31.31" width="9.38" height="9.38" rx="1.56"/><rect class="cls-2" x="314.63" y="17.25" width="34.38" height="6.25" rx="1.56"/><rect class="cls-2" x="314.63" y="32.88" width="34.38" height="6.25" rx="1.56"/><path class="cls-2" d="M324,48.5h-7.81a1.56,1.56,0,0,0-1.56,1.56v3.13a1.56,1.56,0,0,0,1.56,1.56H324Z"/><rect class="cls-2" x="371" y="46.94" width="9.38" height="9.38" rx="1.56"/><rect class="cls-2" x="371" y="15.69" width="9.38" height="9.38" rx="1.56"/><rect class="cls-2" x="371" y="31.31" width="9.38" height="9.38" rx="1.56"/><rect class="cls-2" x="386.63" y="17.25" width="34.38" height="6.25" rx="1.56"/><rect class="cls-2" x="386.63" y="32.88" width="34.38" height="6.25" rx="1.56"/><path class="cls-2" d="M409.26,48.5H388.19a1.56,1.56,0,0,0-1.56,1.56v3.13a1.56,1.56,0,0,0,1.56,1.56h21.07Z"/><rect class="cls-2" x="443" y="46.94" width="9.38" height="9.38" rx="1.56"/><rect class="cls-2" x="443" y="15.69" width="9.38" height="9.38" rx="1.56"/><rect class="cls-2" x="443" y="31.31" width="9.38" height="9.38" rx="1.56"/><rect class="cls-2" x="458.63" y="17.25" width="34.38" height="6.25" rx="1.56"/><rect class="cls-2" x="458.63" y="32.88" width="34.38" height="6.25" rx="1.56"/><path class="cls-2" d="M484.87,48.5H460.19a1.56,1.56,0,0,0-1.56,1.56v3.13a1.56,1.56,0,0,0,1.56,1.56h24.68Z"/><rect class="cls-2" x="515" y="46.94" width="9.38" height="9.38" rx="1.56"/><rect class="cls-2" x="515" y="15.69" width="9.38" height="9.38" rx="1.56"/><rect class="cls-2" x="515" y="31.31" width="9.38" height="9.38" rx="1.56"/><rect class="cls-2" x="530.63" y="17.25" width="34.38" height="6.25" rx="1.56"/><rect class="cls-2" x="530.63" y="32.88" width="34.38" height="6.25" rx="1.56"/><path class="cls-2" d="M561.65,48.5H532.19a1.56,1.56,0,0,0-1.56,1.56v3.13a1.56,1.56,0,0,0,1.56,1.56h29.46Z"/></g></g></svg>