<svg xmlns="http://www.w3.org/2000/svg" viewBox="0 0 72 72"><defs><style>.cls-1{fill:none;}.cls-2{fill:#59bce4;}</style></defs><title>tasks-s_1</title><g id="Layer_2" data-name="Layer 2"><g id="Layer_1-2" data-name="Layer 1"><rect class="cls-1" width="72" height="72"/><path class="cls-2" d="M18.81,46.94H12.56A1.56,1.56,0,0,0,11,48.5v6.25a1.56,1.56,0,0,0,1.56,1.56h6.25a1.56,1.56,0,0,0,1.57-1.56V48.5A1.56,1.56,0,0,0,18.81,46.94Zm0-31.25H12.56A1.56,1.56,0,0,0,11,17.25V23.5a1.56,1.56,0,0,0,1.56,1.56h6.25a1.56,1.56,0,0,0,1.57-1.56V17.25A1.56,1.56,0,0,0,18.81,15.69Zm0,15.62H12.56A1.56,1.56,0,0,0,11,32.88v6.25a1.56,1.56,0,0,0,1.56,1.56h6.25a1.56,1.56,0,0,0,1.57-1.56V32.88A1.57,1.57,0,0,0,18.81,31.31ZM59.44,48.5H28.19a1.56,1.56,0,0,0-1.56,1.56v3.13a1.56,1.56,0,0,0,1.56,1.56H59.44A1.56,1.56,0,0,0,61,53.19V50.06A1.56,1.56,0,0,0,59.44,48.5Zm0-31.25H28.19a1.56,1.56,0,0,0-1.56,1.56v3.13a1.56,1.56,0,0,0,1.56,1.56H59.44A1.56,1.56,0,0,0,61,21.94V18.81A1.56,1.56,0,0,0,59.44,17.25Zm0,15.63H28.19a1.55,1.55,0,0,0-1.56,1.56v3.12a1.56,1.56,0,0,0,1.56,1.57H59.44A1.56,1.56,0,0,0,61,37.56V34.44A1.56,1.56,0,0,0,59.44,32.88Z"/></g></g></svg>