<svg xmlns="http://www.w3.org/2000/svg" viewBox="0 0 72 72"><defs><style>.cls-1{fill:none;}.cls-2{fill:#6f7ead;}</style></defs><title>tools-ns</title><g id="Layer_2" data-name="Layer 2"><g id="Layer_1-2" data-name="Layer 1"><rect class="cls-1" width="72" height="72"/><path class="cls-2" d="M62.91,31.49,58,26.55a3.49,3.49,0,0,0-2.47-1H50V16.79a5.24,5.24,0,0,0-5.24-5.23H27.27A5.24,5.24,0,0,0,22,16.79v8.73H16.49a3.5,3.5,0,0,0-2.47,1L9.09,31.49a3.46,3.46,0,0,0-1,2.47v9H22V41.24a1.75,1.75,0,0,1,1.75-1.75h3.49A1.75,1.75,0,0,1,29,41.24V43H43V41.24a1.75,1.75,0,0,1,1.75-1.75h3.49A1.75,1.75,0,0,1,50,41.24V43h14V34A3.46,3.46,0,0,0,62.91,31.49ZM43,25.52H29v-7H43Zm7,22.7A1.75,1.75,0,0,1,48.22,50H44.73A1.75,1.75,0,0,1,43,48.22V46.48H29v1.74A1.75,1.75,0,0,1,27.27,50H23.78A1.75,1.75,0,0,1,22,48.22V46.48h-14V57a3.5,3.5,0,0,0,3.5,3.49H60.44A3.5,3.5,0,0,0,63.94,57V46.48H50Z"/></g></g></svg>