<svg xmlns="http://www.w3.org/2000/svg" viewBox="0 0 864 72"><defs><style>.cls-1{fill:none;}.cls-2,.cls-3{fill:#59bce4;}.cls-3{opacity:0.1;}.cls-4{opacity:0.25;}.cls-5{opacity:0.4;}.cls-6{opacity:0.55;}.cls-7{opacity:0.7;}.cls-8{opacity:0.85;}</style></defs><title>tools</title><g id="Layer_2" data-name="Layer 2"><g id="Layer_1-2" data-name="Layer 1"><rect class="cls-1" width="72" height="72"/><path class="cls-2" d="M62.91,31.49,58,26.55a3.49,3.49,0,0,0-2.47-1H50V16.79a5.24,5.24,0,0,0-5.24-5.23H27.27A5.24,5.24,0,0,0,22,16.79v8.73H16.49a3.5,3.5,0,0,0-2.47,1L9.09,31.49a3.46,3.46,0,0,0-1,2.47v9H22V41.24a1.75,1.75,0,0,1,1.75-1.75h3.49A1.75,1.75,0,0,1,29,41.24V43H43V41.24a1.75,1.75,0,0,1,1.75-1.75h3.49A1.75,1.75,0,0,1,50,41.24V43h14V34A3.46,3.46,0,0,0,62.91,31.49ZM43,25.52H29v-7H43Zm7,22.7A1.75,1.75,0,0,1,48.22,50H44.73A1.75,1.75,0,0,1,43,48.22V46.48H29v1.74A1.75,1.75,0,0,1,27.27,50H23.78A1.75,1.75,0,0,1,22,48.22V46.48h-14V57a3.5,3.5,0,0,0,3.5,3.49H60.44A3.5,3.5,0,0,0,63.94,57V46.48H50Z"/><rect class="cls-1" x="72" width="72" height="72"/><path class="cls-2" d="M116.73,13H99.27A5.24,5.24,0,0,0,94,18.21v8.73H122V18.21A5.24,5.24,0,0,0,116.73,13ZM115,24.49H101V18.55h14Z"/><path class="cls-2" d="M122,48.22A1.75,1.75,0,0,1,120.22,50h-3.49A1.75,1.75,0,0,1,115,48.22V46.48H101v1.74A1.75,1.75,0,0,1,99.27,50H95.78A1.75,1.75,0,0,1,94,48.22V46.48h-14V57a3.5,3.5,0,0,0,3.5,3.49h48.88a3.5,3.5,0,0,0,3.5-3.49V46.48H122Z"/><path class="cls-2" d="M134.91,30.58,130,25.64a3.53,3.53,0,0,0-2.47-1h-39a3.53,3.53,0,0,0-2.47,1l-4.93,4.94a3.5,3.5,0,0,0-1,2.47v9H94V40.33a1.74,1.74,0,0,1,1.75-1.74h3.49A1.75,1.75,0,0,1,101,40.33v1.75h14V40.33a1.75,1.75,0,0,1,1.75-1.74h3.49A1.74,1.74,0,0,1,122,40.33v1.75h14v-9A3.5,3.5,0,0,0,134.91,30.58Z"/><rect class="cls-1" x="144" width="72" height="72"/><path class="cls-2" d="M188.73,13H171.27A5.24,5.24,0,0,0,166,18.21v8.73H194V18.21A5.24,5.24,0,0,0,188.73,13ZM187,24.49H173V18.55h14Z"/><path class="cls-2" d="M194,48.22A1.75,1.75,0,0,1,192.22,50h-3.49A1.75,1.75,0,0,1,187,48.22V46.48H173v1.74A1.75,1.75,0,0,1,171.27,50h-3.49A1.75,1.75,0,0,1,166,48.22V46.48h-14V57a3.5,3.5,0,0,0,3.5,3.49h48.88a3.5,3.5,0,0,0,3.5-3.49V46.48H194Z"/><path class="cls-2" d="M206.91,29.29,202,24.35a3.53,3.53,0,0,0-2.47-1h-39a3.53,3.53,0,0,0-2.47,1l-4.93,4.94a3.5,3.5,0,0,0-1,2.47v9h14V39c0-1,.78-1.09,1.75-1.09h3.49c1,0,1.75.13,1.75,1.09v1.75h14V39c0-1,.79-1.09,1.75-1.09h3.66c1,0,1.58.14,1.58,1.1v1.75h14v-9A3.5,3.5,0,0,0,206.91,29.29Z"/><polygon class="cls-3" points="152.06 40.79 153.71 46.48 206.29 46.48 207.94 40.79 152.06 40.79"/><rect class="cls-1" x="216" width="72" height="72"/><path class="cls-2" d="M260.86,12.87H243.4a5,5,0,0,0-5.24,4.75v7.9H266.1v-7.9A5,5,0,0,0,260.86,12.87Zm-1.75,10.44h-14V17.92h14Z"/><path class="cls-2" d="M266,48.22A1.75,1.75,0,0,1,264.22,50h-3.49A1.75,1.75,0,0,1,259,48.22V46.48H245v1.74A1.75,1.75,0,0,1,243.27,50h-3.49A1.75,1.75,0,0,1,238,48.22V46.48h-14V57a3.5,3.5,0,0,0,3.5,3.49h48.88a3.5,3.5,0,0,0,3.5-3.49V46.48H266Z"/><path class="cls-2" d="M279,27.66l-4.94-4.48a3.68,3.68,0,0,0-2.47-.92h-39a3.72,3.72,0,0,0-2.47.92l-4.93,4.48a3,3,0,0,0-1,2.24v8.18h14V37c0-.88.78-.68,1.75-.68h3.49c1,0,1.75-.15,1.75.73v1h14V37c0-.88.78-.8,1.75-.8h3.66c1,0,1.58-.08,1.58.8v1.07h14V29.9A3,3,0,0,0,279,27.66Z"/><g class="cls-4"><path class="cls-2" d="M276.45,41.06,276,43.48h-47.7l-.47-2.42h48.64m3.65-3H224.16l1.65,8.42h52.64l1.65-8.42Z"/></g><rect class="cls-1" x="288" width="72" height="72"/><path class="cls-2" d="M332.73,12.84H315.27c-2.89,0-5.24,2-5.24,4.37v7.28H338V17.21C338,14.8,335.62,12.84,332.73,12.84ZM331,22.45H317v-5h14Z"/><path class="cls-2" d="M338,48.22A1.75,1.75,0,0,1,336.22,50h-3.49A1.75,1.75,0,0,1,331,48.22V46.48H317v1.74A1.75,1.75,0,0,1,315.27,50h-3.49A1.75,1.75,0,0,1,310,48.22V46.48h-14V57a3.5,3.5,0,0,0,3.5,3.49h48.88a3.5,3.5,0,0,0,3.5-3.49V46.48H338Z"/><path class="cls-2" d="M350.91,26.45,346,22.33a3.93,3.93,0,0,0-2.47-.85h-39a3.93,3.93,0,0,0-2.47.85l-4.93,4.12a2.69,2.69,0,0,0-1,2.06v7.54h14v-.32c0-.81.78-.58,1.75-.58h3.49c1,0,1.75-.25,1.75.55v.35h14v-.23c0-.8.79-.61,1.75-.61h3.75c1,0,1.47-.14,1.47.66l0,.18h14V28.51A2.69,2.69,0,0,0,350.91,26.45Z"/><g class="cls-5"><path class="cls-2" d="M348.42,39.06l-.69,4.42H300.27l-.69-4.42h48.84m3.52-3H296.06l1.65,10.42h52.58l1.65-10.42Z"/></g><rect class="cls-1" x="360" width="72" height="72"/><path class="cls-2" d="M404.73,12.87H387.27c-2.89,0-5.24,1.7-5.24,3.81V23H410V16.68C410,14.57,407.62,12.87,404.73,12.87ZM403,21.24H389V16.92h14Z"/><path class="cls-2" d="M410,48.22A1.75,1.75,0,0,1,408.22,50h-3.49A1.75,1.75,0,0,1,403,48.22V46.48H389v1.74A1.75,1.75,0,0,1,387.27,50h-3.49A1.75,1.75,0,0,1,382,48.22V46.48h-14V57a3.5,3.5,0,0,0,3.5,3.49h48.88a3.5,3.5,0,0,0,3.5-3.49V46.48H410Z"/><path class="cls-2" d="M410,31.15h14V24.58a2.25,2.25,0,0,0-1-1.79L418,19.2a4.32,4.32,0,0,0-2.47-.74h-39a4.32,4.32,0,0,0-2.47.74l-4.93,3.59a2.25,2.25,0,0,0-1,1.79v6.57h14"/><line class="cls-2" x1="389.02" y1="30.5" x2="402.98" y2="30.5"/><g class="cls-6"><path class="cls-2" d="M420.6,34.19l-1,9.29H372.4l-1-9.29h49.2m3.34-3H368.06l1.65,15.29h52.58l1.65-15.29Z"/></g><rect class="cls-1" x="432" width="72" height="72"/><path class="cls-2" d="M476.73,12.81H459.27c-2.89,0-5.24,1.42-5.24,3.18V21.3H482V16C482,14.23,479.62,12.81,476.73,12.81Zm-1.75,7H461V16.2h14Z"/><path class="cls-2" d="M482,48.22A1.75,1.75,0,0,1,480.22,50h-3.49A1.75,1.75,0,0,1,475,48.22V46.48H461v1.74A1.75,1.75,0,0,1,459.27,50h-3.49A1.75,1.75,0,0,1,454,48.22V46.48h-14V57a3.5,3.5,0,0,0,3.5,3.49h48.88a3.5,3.5,0,0,0,3.5-3.49V46.48H482Z"/><path class="cls-2" d="M482,27.34h14v-5.5a1.84,1.84,0,0,0-1-1.5l-4.93-3a4.87,4.87,0,0,0-2.47-.63h-39a4.87,4.87,0,0,0-2.47.63l-4.93,3a1.84,1.84,0,0,0-1,1.5v5.5h14"/><g class="cls-7"><path class="cls-2" d="M492.67,30.26l-1.13,13.22H444.46l-1.13-13.22h49.34m3.27-3H440.06l1.65,19.22h52.58l1.65-19.22Z"/></g><rect class="cls-1" x="504" width="72" height="72"/><path class="cls-2" d="M548.73,12.84H531.27c-2.89,0-5.24,1.11-5.24,2.48v4.13H554V15.32C554,14,551.62,12.84,548.73,12.84ZM547,18.29H533V15.48h14Z"/><path class="cls-2" d="M554,48.22A1.75,1.75,0,0,1,552.22,50h-3.49A1.75,1.75,0,0,1,547,48.22V46.48H533v1.74A1.75,1.75,0,0,1,531.27,50h-3.49A1.75,1.75,0,0,1,526,48.22V46.48h-14V57a3.5,3.5,0,0,0,3.5,3.49h48.88a3.5,3.5,0,0,0,3.5-3.49V46.48H554Z"/><path class="cls-2" d="M554,22.21h14V17.93c0-.43-.37-.85-1-1.16L562,14.43a6,6,0,0,0-2.47-.49h-39a6,6,0,0,0-2.47.49l-4.93,2.34c-.66.31-1,.73-1,1.16v4.28h14"/><g class="cls-8"><path class="cls-2" d="M564.73,25.13l-1.24,18.35h-47l-1.24-18.35h49.46m3.21-3H512.06l1.65,24.35h52.58l1.65-24.35Z"/></g><rect class="cls-1" x="576" width="72" height="72"/><path class="cls-2" d="M626,48.22A1.75,1.75,0,0,1,624.22,50h-3.49A1.75,1.75,0,0,1,619,48.22V46.48H605v1.74A1.75,1.75,0,0,1,603.27,50h-3.49A1.75,1.75,0,0,1,598,48.22V46.48h-14V57a3.5,3.5,0,0,0,3.5,3.49h48.88a3.5,3.5,0,0,0,3.5-3.49V46.48H626Z"/><path class="cls-2" d="M626,18.92h14V15.79c0-.32-.37-.63-1-.85L634,13.23a7.85,7.85,0,0,0-2.47-.36h-39a7.85,7.85,0,0,0-2.47.36l-4.93,1.71c-.66.22-1,.53-1,.85v3.13h14"/><path class="cls-2" d="M636.75,21.94l-1.29,21.54H588.54l-1.29-21.54h49.5m3.19-3H584.06l1.65,27.54h52.58l1.65-27.54Z"/><rect class="cls-1" x="648" width="72" height="72"/><path class="cls-2" d="M698,48.22A1.75,1.75,0,0,1,696.22,50h-3.49A1.75,1.75,0,0,1,691,48.22V46.48H677v1.74A1.75,1.75,0,0,1,675.27,50h-3.49A1.75,1.75,0,0,1,670,48.22V46.48h-14V57a3.5,3.5,0,0,0,3.5,3.49h48.88a3.5,3.5,0,0,0,3.5-3.49V46.48H698Z"/><path class="cls-2" d="M698,18.92h14V15.79c0-.32-.37-.63-1-.85L706,13.23a7.85,7.85,0,0,0-2.47-.36h-39a7.85,7.85,0,0,0-2.47.36l-4.93,1.71c-.66.22-1,.53-1,.85v3.13h14"/><path class="cls-2" d="M708.75,21.94l-1.29,21.54H660.54l-1.29-21.54h49.5m3.19-3H656.06l1.65,27.54h52.58l1.65-27.54Z"/><rect class="cls-1" x="720" width="72" height="72"/><path class="cls-2" d="M770,48.22A1.75,1.75,0,0,1,768.22,50h-3.49A1.75,1.75,0,0,1,763,48.22V46.48H749v1.74A1.75,1.75,0,0,1,747.27,50h-3.49A1.75,1.75,0,0,1,742,48.22V46.48h-14V57a3.5,3.5,0,0,0,3.5,3.49h48.88a3.5,3.5,0,0,0,3.5-3.49V46.48H770Z"/><path class="cls-2" d="M770,18.92h14V15.79c0-.32-.37-.63-1-.85L778,13.23a7.85,7.85,0,0,0-2.47-.36h-39a7.85,7.85,0,0,0-2.47.36l-4.93,1.71c-.66.22-1,.53-1,.85v3.13h14"/><path class="cls-2" d="M780.75,21.94l-1.29,21.54H732.54l-1.29-21.54h49.5m3.19-3H728.06l1.65,27.54h52.58l1.65-27.54Z"/><rect class="cls-1" x="792" width="72" height="72"/><path class="cls-2" d="M842,48.22A1.75,1.75,0,0,1,840.22,50h-3.49A1.75,1.75,0,0,1,835,48.22V46.48H821v1.74A1.75,1.75,0,0,1,819.27,50h-3.49A1.75,1.75,0,0,1,814,48.22V46.48h-14V57a3.5,3.5,0,0,0,3.5,3.49h48.88a3.5,3.5,0,0,0,3.5-3.49V46.48H842Z"/><path class="cls-2" d="M842,18.92h14V15.79c0-.32-.37-.63-1-.85L850,13.23a7.85,7.85,0,0,0-2.47-.36h-39a7.85,7.85,0,0,0-2.47.36l-4.93,1.71c-.66.22-1,.53-1,.85v3.13h14"/><path class="cls-2" d="M852.75,21.94l-1.29,21.54H804.54l-1.29-21.54h49.5m3.19-3H800.06l1.65,27.54h52.58l1.65-27.54Z"/></g></g></svg>