<svg xmlns="http://www.w3.org/2000/svg" viewBox="0 0 27.29 22.26"><defs><style>.cls-1{fill:#fff;}</style></defs><title>card-chip</title><g id="Layer_2" data-name="Layer 2"><g id="Layer_1-2" data-name="Layer 1"><path class="cls-1" d="M27.26,17.65V14.26H20.68a4,4,0,1,0,0,8h2A4.62,4.62,0,0,0,27.26,17.65Z"/><rect class="cls-1" x="20.94" y="9.61" width="6.32" height="3.39"/><rect class="cls-1" y="9.94" width="6.26" height="3.39"/><path class="cls-1" d="M6.52,14.58H0v3.07a4.62,4.62,0,0,0,4.61,4.61H8.09a4,4,0,0,0-1.57-7.68Z"/><path class="cls-1" d="M22.68,0H4.61A4.62,4.62,0,0,0,0,4.61V8.69H7.58a2.42,2.42,0,0,0,0-4.84H5.63V2.58h2a3.67,3.67,0,0,1,0,7.34H7.51v3.51a5.23,5.23,0,0,1,2.74,8.83h7.07a5.22,5.22,0,0,1,2.37-9.15V9.61h-.08a3.67,3.67,0,0,1,0-7.34h1.95V3.51H19.61a2.42,2.42,0,1,0,0,4.84h7.68V4.61A4.61,4.61,0,0,0,22.68,0Z"/></g></g></svg>