<svg xmlns="http://www.w3.org/2000/svg" viewBox="0 0 505.4 87.29"><defs><style>.cls-1{fill:#fff;}</style></defs><title>discover-white</title><g id="Layer_2" data-name="Layer 2"><g id="Layer_1-2" data-name="Layer 1"><g id="g16"><path id="path22" class="cls-1" d="M41.68,63.62c-5,4.49-11.42,6.44-21.64,6.44H15.8V16.47H20c10.22,0,16.42,1.82,21.64,6.55A27.28,27.28,0,0,1,50.43,43.2C50.43,51,47.15,58.76,41.68,63.62ZM23.21,2.73H0V83.79H23.09c12.27,0,21.14-2.9,28.92-9.36A40.69,40.69,0,0,0,66.72,43.32c0-23.92-17.87-40.59-43.51-40.59"/><path id="path24" class="cls-1" d="M74,83.79H89.81V2.73H74Z"/><path id="path26" class="cls-1" d="M128.46,33.84C119,30.33,116.19,28,116.19,23.63c0-5.1,5-9,11.78-9,4.74,0,8.63,1.94,12.75,6.56L149,10.38a35.45,35.45,0,0,0-23.82-9c-14.34,0-25.28,10-25.28,23.23,0,11.16,5.1,16.88,20,22.23,6.18,2.18,9.33,3.63,10.92,4.61a9.71,9.71,0,0,1,4.75,8.39c0,6.57-5.23,11.43-12.28,11.43-7.54,0-13.62-3.77-17.26-10.81L95.76,70.31c7.28,10.69,16,15.43,28.06,15.43,16.43,0,28-10.93,28-26.62,0-12.88-5.33-18.71-23.32-25.28"/><path id="path28" class="cls-1" d="M156.77,43.32c0,23.82,18.7,42.29,42.78,42.29,6.81,0,12.63-1.33,19.82-4.72V62.28c-6.32,6.33-11.92,8.88-19.09,8.88-15.92,0-27.22-11.55-27.22-28,0-15.56,11.66-27.84,26.49-27.84,7.54,0,13.25,2.69,19.82,9.12V5.88c-6.94-3.52-12.65-5-19.45-5C176,.9,156.77,19.75,156.77,43.32"/><path id="path30" class="cls-1" d="M344.73,57.18,323.12,2.73H305.84l34.4,83.14h8.51l35-83.14H366.63l-21.9,54.45"/><path id="path32" class="cls-1" d="M390.91,83.79h44.84V70.06h-29V48.19h28V34.46h-28v-18h29V2.73H390.91V83.79"/><path id="path34" class="cls-1" d="M466.63,40.05H462V15.5h4.87c9.85,0,15.2,4.12,15.2,12C482.08,35.66,476.73,40.05,466.63,40.05Zm31.72-13.39c0-15.17-10.45-23.93-28.68-23.93H446.22V83.79H462V51.23h2.07L486,83.79H505.4L479.89,49.64c11.9-2.42,18.46-10.57,18.46-23"/></g><g id="g68"><path class="cls-1" d="M224.54,43.56v0a43.12,43.12,0,0,1,86.24,0v0a43.12,43.12,0,0,1-86.24,0"/><circle class="cls-1" cx="267.6" cy="43.65" r="43.65"/></g></g></g></svg>