<svg xmlns="http://www.w3.org/2000/svg" viewBox="0 0 789.29 486.19"><defs><style>.cls-1{fill:#fff;}</style></defs><title>mastercard-white_2</title><g id="Layer_2" data-name="Layer 2"><g id="Layer_1-2" data-name="Layer 1"><ellipse class="cls-1" cx="394.65" cy="243.1" rx="91.55" ry="190.07"/><path class="cls-1" d="M546.19,0A241.93,241.93,0,0,0,429.34,29.89q7.16,6.27,13.94,13a282.91,282.91,0,0,1,0,400.36q-6.78,6.77-13.94,13a241.93,241.93,0,0,0,116.85,29.89c134.26,0,243.1-108.83,243.1-243.09S680.45,0,546.19,0Z"/><ellipse class="cls-1" cx="394.65" cy="243.1" rx="91.55" ry="190.07"/><path class="cls-1" d="M346,443.28a282.9,282.9,0,0,1,0-400.36q6.78-6.78,13.94-13A241.93,241.93,0,0,0,243.1,0C108.84,0,0,108.84,0,243.1S108.84,486.19,243.1,486.19A241.93,241.93,0,0,0,360,456.3Q352.8,450,346,443.28Z"/></g></g></svg>