<svg xmlns="http://www.w3.org/2000/svg" viewBox="0 0 659.61 202.07"><defs><style>.cls-1{fill:#fff;}</style></defs><title>visa-white</title><g id="Layer_2" data-name="Layer 2"><g id="Layer_1-2" data-name="Layer 1"><path class="cls-1" d="M187.71,4h0L135.47,137.5l-5.57-27.13c-.26-.83-.54-1.66-.82-2.5L110.91,20.52C107.68,8.13,98.31,4.43,86.72,4H.68L0,8.06A223.85,223.85,0,0,1,56.42,29.75l47.35,169.7,56.46-.06L244.23,4Z"/><path class="cls-1" d="M616.42,4H575.19c-12.77,0-22.33,3.48-27.94,16.23L468,199.63h56s9.16-24.12,11.23-29.42c6.12,0,60.56.09,68.34.09,1.59,6.85,6.49,29.33,6.49,29.33h49.51ZM551,130.41Zm0,0c4.41-11.29,21.26-54.73,21.26-54.73-.32.53,4.38-11.33,7.07-18.68L583,73.88l12.35,56.53Z"/><polygon class="cls-1" points="266.36 4 233 199.76 286.34 199.76 319.72 4 266.36 4"/><path class="cls-1" d="M426.56,82c-18.65-9.06-30.08-15.1-30-24.27,0-8.14,9.67-16.84,30.56-16.84a98.4,98.4,0,0,1,39.94,7.5l4.78,2.26,7.23-42.43h0A137.92,137.92,0,0,0,431.29,0c-52.72,0-89.86,26.55-90.18,64.6-.3,28.13,26.52,43.83,46.75,53.19,20.78,9.6,27.76,15.71,27.66,24.28-.14,13.12-16.59,19.12-31.93,19.12-21.35,0-32.7-3-50.22-10.28l-6.88-3.11L319,191.62c12.47,5.47,35.51,10.2,59.44,10.45,56.09,0,92.5-26.25,92.92-66.89C471.56,112.91,457.34,96,426.56,82Z"/></g></g></svg>