<svg xmlns="http://www.w3.org/2000/svg" viewBox="0 0 408.41 408.53"><defs><style>.cls-1{fill:#fff;}.cls-2{fill:#006fcf;}</style></defs><title>amex</title><g id="Layer_2" data-name="Layer 2"><g id="Layer_1-2" data-name="Layer 1"><path class="cls-1" d="M408.41,38.68h-.13c0-10.74,0-21.48,0-32.21,0-6.47,0-6.47-6.76-6.47H7.26C0,0,0,0,0,7.48V401.25c0,7.28,0,7.28,7.42,7.28H401.71c6.61,0,6.61,0,6.61-6.59V369.26h.09Z"/><g id="Layer_2-2" data-name="Layer 2"><g id="Layer_1-2-2" data-name="Layer 1-2"><path class="cls-2" d="M335.1,101.3c-3.82-10.89-7.36-20.34-10.42-29.94-1.58-5-4-7-9.56-7-21.95.33-43.92.24-65.87,0-4.71,0-6.35,1.34-6.23,6.23.32,13.27.11,26.55-.8,40.1Q236,96.85,229.75,82.92c-2.17-4.85-4-9.88-6.61-14.5-1-1.77-3.6-3.69-5.5-3.71q-27.94-.42-55.89,0a7.5,7.5,0,0,0-5.47,3.67q-28.15,63-55.91,126.28c-2.6,5.88-5.21,11.75-8.2,18.47,2.78.22,4.65.49,6.52.5,13.48,0,27,.18,40.43-.08,4.43-.09,5.68,1.35,5.66,5.69-.13,39.26-.08,78.52-.07,117.78,0,8,0,8,8,8q75.12,0,150.23.07c4.13,0,7.12-1,9.92-4.3,6.77-7.93,14-15.47,21.4-23.58,6.91,7.65,13.61,14.77,19.93,22.21,3.37,4,6.95,5.92,12.37,5.73,11.63-.41,23.29-.14,34.94-.12,6.79,0,6.81,0,6.82,7v49.91c0,6.58,0,6.59-6.61,6.59H7.42c-7.4,0-7.42,0-7.42-7.28V7.48C0,0,0,0,7.26,0H401.55c6.73,0,6.75,0,6.76,6.47,0,17.3-.14,34.61.1,51.91.07,4.84-1.58,6.29-6.32,6.23-16.14-.24-32.28,0-48.41-.16-4,0-6,1.34-7.28,5.09C343,79.72,339.22,89.8,335.1,101.3Z"/><path class="cls-2" d="M291.09,118c-.18,2.06-.5,4.12-.51,6.17,0,22-.11,43.92.06,65.87,0,4.44-1.12,6.26-5.9,6-7.46-.39-14.95-.1-22.74-.1a26.73,26.73,0,0,1-.47-3.45V89.2c0-6.53,0-6.55,6.75-6.56,11.64,0,23.29.22,34.93-.11,4.66-.13,6.75,1.55,8.22,5.86,6.47,18.85,13.24,37.6,19.94,56.37.94,2.63,2.07,5.18,3.62,9a59.14,59.14,0,0,0,2.75-5.45q10.49-29.07,20.87-58.16c2.68-7.51,2.62-7.54,10.38-7.54,11.31,0,22.62.14,33.93-.07,4.15-.08,5.46,1.42,5.45,5.49q-.17,51.41,0,102.8c0,3.83-1.16,5.34-5.18,5.16-6.47-.3-13-.3-19.45,0-4,.18-5.11-1.23-5.09-5.14.16-22.28.08-44.57.08-66.86v-5.65l-1.37-.27a25,25,0,0,0-1.68,3.15c-8.6,23.2-17.25,46.39-25.66,69.66-1.33,3.67-2.94,5.42-7.08,5.12a129.15,129.15,0,0,0-16.46,0c-3.64.2-5.27-1.2-6.48-4.55-8.38-23.11-16.94-46.15-25.46-69.21-.56-1.49-1.25-2.94-1.88-4.41Z"/><path class="cls-2" d="M164,270c0-16.8.11-33.61-.08-50.41,0-4.31.82-6.11,5.73-6.07q42.67.36,85.35,0c4.24,0,5.51,1.36,5.27,5.43a117.31,117.31,0,0,0,0,15c.29,4.13-1.41,5.06-5.19,5-18.47-.14-36.94.07-55.41-.15-4.78-.06-6.42,1.46-6.28,6.27.45,15.47-2.06,13.13,13.19,13.25,15.47.13,30.94.15,46.41-.05,4.15,0,5.64,1.27,5.37,5.42a112.75,112.75,0,0,0,0,14c.23,3.9-1.07,5.19-5.08,5.15-17.64-.2-35.28-.09-52.91-.08-6.87,0-7,0-6.89,6.89.13,14.06-1.85,12.5,12.43,12.56,16.3.06,32.61.11,48.91-.06,4,0,5.74,1.05,5.45,5.34a144.33,144.33,0,0,0,0,15c.11,3.14-.88,4.52-4.21,4.51q-43.93-.12-87.85,0c-3.87,0-4.22-2-4.21-5.06Z"/><path class="cls-2" d="M120.09,195.89c4.63-10.57,8.8-20.14,13-29.69,11.62-26.3,23.33-52.56,34.83-78.91,1.58-3.64,3.66-4.88,7.55-4.79,10,.26,20-.06,29.94.23,1.88.06,4.71,1.45,5.4,3q23.72,53,47,106.24c.44,1,.69,2.11,1.27,3.89-10.81,0-21.06.1-31.3-.14-1.11,0-2.58-1.84-3.18-3.15-2.36-5.13-4.51-10.37-6.6-15.62-1.11-2.78-2.72-4.11-6-4.08q-22.71.24-45.42,0c-3.17,0-4.84,1.1-5.92,4-1.82,5-4.07,9.82-5.94,14.8-1.15,3-2.91,4.34-6.32,4.26C139.33,195.74,130.2,195.89,120.09,195.89Zm85.79-47.71c-5.75-13-10-25.59-16-37.44l-1.63.4-15.22,37Z"/><path class="cls-2" d="M262.17,213.65c13,0,24.76-.13,36.55.13,1.81,0,4,1.52,5.33,2.95,8.94,9.62,17.73,19.39,26.5,29.17a55.3,55.3,0,0,1,3.77,5.47c3.63-3.82,6.16-6.4,8.61-9.07,7.88-8.57,15.68-17.21,23.63-25.72,1.16-1.25,2.88-2.76,4.38-2.79,11.9-.23,23.81-.13,36.73-.13l-28.12,29.53c-7.35,7.71-14.58,15.53-22.11,23.05-2.84,2.84-3,4.74-.16,7.73,15.08,15.73,30,31.63,44.93,47.48,1.35,1.43,2.62,2.94,4.89,5.49H394.32c-7,0-14-.15-21,.05a10,10,0,0,1-8.67-3.69c-8.54-9.75-17.47-19.17-26-28.94-3.1-3.55-5.07-4-8.44-.13-8.82,10.17-18,20-27.24,29.85-1.23,1.32-3.23,2.67-4.91,2.7-11.29.24-22.59.12-35.25.12,2.06-2.34,3.35-3.91,4.73-5.38,14.83-15.74,29.59-31.54,44.55-47.15,2.76-2.88,3-4.66.11-7.68-15.66-16.31-31.1-32.84-46.62-49.3C264.72,216.44,263.84,215.46,262.17,213.65Z"/><path class="cls-2" d="M407.72,301.2l-29.09-31,29.09-30.74Z"/></g></g></g></g></svg>