<svg xmlns="http://www.w3.org/2000/svg" viewBox="0 0 430 350"><defs><style>.cls-1{fill:#f9f9f9;}.cls-2{fill:#ff6f00;}</style></defs><title>discover</title><g id="Layer_2" data-name="Layer 2"><g id="Layer_1-2" data-name="Layer 1"><g id="_93-discover_Credit_card" data-name="93-discover, Credit card"><path class="cls-1" d="M393.33,0H36.67A36.67,36.67,0,0,0,0,36.67V313.33A36.67,36.67,0,0,0,36.67,350H390c20.24,0,40-16.42,40-36.67V36.67A36.67,36.67,0,0,0,393.33,0Z"/><path d="M391.77,147.35c9.24-1.9,14.28-8.09,14.28-17.72,0-21.77-23.14-18.64-40.4-18.64v62.64h12.22v-25h1.68l17,25h15ZM381.46,140h-3.59V121h3.74c7.72,0,11.92,3.21,11.92,9.24C393.53,136.66,389.33,140,381.46,140Z"/><polygon points="322.94 111.07 357.55 111.07 357.55 121.76 335.17 121.76 335.17 135.67 356.78 135.67 356.78 146.21 335.17 146.21 335.17 163.17 357.55 163.17 357.55 173.71 322.94 173.71 322.94 111.07"/><polygon points="270.46 111.07 287.19 153.24 304.15 111.07 317.52 111.07 290.4 175.39 283.83 175.39 257.1 111.07 270.46 111.07"/><path class="cls-2" d="M227.76,108.78a34.07,34.07,0,1,1-34.06,34.07A34.05,34.05,0,0,1,227.76,108.78Z"/><path d="M190.1,113.44V128c-15.35-15.35-35.74-3.59-35.74,14.52,0,19.09,21,29.41,35.74,14.66v14.52c-22.68,10.92-48.35-4.36-48.35-29.18C141.75,118.63,167,102,190.1,113.44Z"/><path d="M115.85,164.08c8.71,0,17.12-11.68-2.52-18.64-11.45-4.2-15.43-8.7-15.43-17.34,0-17.72,23.38-24,38-10.92l-6.42,8.25c-7.94-8.86-19-4.73-19,1.91,0,3.36,2.06,5.27,9.4,7.87,13.9,5,18,9.55,18,19.55,0,22.54-29.63,28.58-43.23,8.64l7.87-7.57a14.44,14.44,0,0,0,13.36,8.25Z"/><rect x="77.66" y="111.07" width="12.22" height="62.64"/><path class="cls-2" d="M430,313.33V212C400.35,230.49,228.63,318.33,60,350H390.46C410.55,349.74,430,333.42,430,313.33Z"/><path d="M38.32,111.07H20.44v62.64H38.32c23.6,0,33.69-17.11,33.69-31.24C72,124.06,58.26,111.07,38.32,111.07ZM52.6,158.28c-3.74,3.36-8.86,4.89-16.72,4.89H32.67V121.76h3.21c7.86,0,12.75,1.3,16.72,5a20.84,20.84,0,0,1,6.8,15.66A21.41,21.41,0,0,1,52.6,158.28Z"/></g><rect class="cls-1" x="8.79" y="93.18" width="408.77" height="104.26"/><circle class="cls-2" cx="215" cy="138.35" r="87.47"/></g></g></svg>