<svg xmlns="http://www.w3.org/2000/svg" viewBox="0 0 192.85 144.32"><defs><style>.cls-1{fill:#fff;}.cls-2{fill:#009540;}.cls-3{fill:#e20613;}.cls-4{fill:#0069b3;}</style></defs><title>jcb_1</title><g id="Layer_2" data-name="Layer 2"><g id="Layer_1-2" data-name="Layer 1"><polygon class="cls-1" points="186.14 114.85 133.56 95.13 133.44 49.64 185.88 30.6 186.14 114.85"/><polygon class="cls-1" points="125.63 89.5 88.17 110.11 67.04 89.57 67.15 55.77 111.5 15.76 125.63 89.5"/><path class="cls-2" d="M192.85,123.56c-.25,1-.52,2-.76,3.07a22.64,22.64,0,0,1-21.85,17.63c-11.48.11-23,0-34.46.05-1.51,0-2.36-.37-2.35-2.09q0-23.14,0-46.3a6.81,6.81,0,0,1,.1-.79c1.85,0,3.65-.07,5.44,0,10.35.45,20.7.65,30.95-1.26a24.75,24.75,0,0,0,10.85-4.45c6.18-4.76,6-11.88-.68-15.93-2.46-1.49-5.31-2.33-7.68-3.34a50.58,50.58,0,0,0,5.42-2.42c6.57-3.77,6.68-10.49.24-14.46a26.26,26.26,0,0,0-13.41-3.88c-9.71-.16-19.43.13-29.14.24h-2.11v-1.9c0-8.09,0-16.18,0-24.28A23,23,0,0,1,152.8.29a20.32,20.32,0,0,1,3.75-.24q16.84,0,33.7,0a9.68,9.68,0,0,1,2.6.74Z"/><path class="cls-3" d="M67,89.57c9.34,6,19.45,6.31,29.68,5.58,6.37-.46,12.71-1.36,19.07-2,1.72-.18,2.53-.87,2.39-2.74-.16-2.16,0-4.35,0-6.74-3.46.83-6.65,1.68-9.87,2.36a29.12,29.12,0,0,1-18.59-1.75c-4.87-2.24-7.79-6-8-11.55-.18-5.86,2.53-10,7.69-12.48,7.19-3.43,14.67-3.34,22.21-1.18l6.56,1.87c0-3,.11-5.68-.1-8.34,0-.5-1.31-1.17-2.09-1.3q-5.48-.9-11-1.52c-3.24-.36-6.5-.68-9.75-.79-9.89-.34-19.36.67-28.11,6.79,0-.62-.1-1.15-.1-1.68,0-10.48,0-21,0-31.44A22.67,22.67,0,0,1,89.2.09C100.81-.09,112.43.07,124,0c1.87,0,2.17.84,2.17,2.42q0,41,0,82.08c0,12,0,24.1,0,36.14S118.81,141.7,107.13,144a21.8,21.8,0,0,1-4.12.3q-16.67,0-33.34,0c-2.56,0-2.63-.08-2.63-2.66V89.57Z"/><path class="cls-2" d="M148.85,87.37c0-4,0-7.64,0-11.32,0-.4.69-1.14,1-1.12a100.44,100.44,0,0,1,11.91.93c3.28.56,4.67,2.55,4.7,5.21,0,2.83-1.37,4.62-4.59,5.59C157.72,87.93,153.41,87.56,148.85,87.37Z"/><path class="cls-2" d="M148.94,57c4.31-.49,8.53-.76,12.69.43a4.1,4.1,0,0,1,3.26,3.89,4.16,4.16,0,0,1-2.81,4.6A18.09,18.09,0,0,1,157,67c-2.65.19-5.33,0-8.06,0Z"/><path class="cls-1" d="M57.5,118.21l-44.71-4.42c0-8-12.78-11.61-12.78-19.63V25.82H57.5Z"/><path class="cls-4" d="M28.76,49.1V73.73c0,1.38,0,2.77,0,4.14-.27,4.21-2,6.42-6,7.61a28.55,28.55,0,0,1-13.59.63c-2.46-.46-4.88-1.19-7.34-1.59C.31,84.28,0,83.65,0,82.28c.05-12,0-24.1,0-36.14q0-11.31,0-22.6C.05,10.11,10,.08,23.43,0,34.55,0,45.66,0,56.77,0c2.39,0,2.58.19,2.58,2.58q0,59.12,0,118.24c0,13.35-10,23.34-23.29,23.42-11.18.07-22.35,0-33.53,0C1,144.31,0,144.07,0,142.18c0-15.56,0-31.12,0-46.69,0-.36.07-.72.12-1.21,3.38.31,6.67.72,10,.9,10,.52,20,.41,29.59-2.82,5.12-1.72,9.42-4.53,11.14-10a14.06,14.06,0,0,0,.69-4.06c.06-9.35,0-18.7,0-28,0-.31-.06-.62-.11-1.1Z"/><path class="cls-4" d="M28.76,49.1V73.73c0,1.38,0,2.77,0,4.14-.27,4.21-2,6.42-6,7.61a28.55,28.55,0,0,1-13.59.63c-2.46-.46-4.88-1.19-7.34-1.59C.31,84.28,0,83.65,0,82.28c.05-12,0-24.1,0-36.14q0-11.31,0-22.6C.05,10.11,10,.08,23.43,0,34.55,0,45.66,0,56.77,0c2.39,0,2.58.19,2.58,2.58q0,59.12,0,118.24c0,13.35-10,23.34-23.29,23.42-11.18.07-22.35,0-33.53,0C1,144.31,0,144.07,0,142.18c0-15.56,0-31.12,0-46.69,0-.36.07-.72.12-1.21,3.38.31,6.67.72,10,.9,10,.52,20,.41,29.59-2.82,5.12-1.72,9.42-4.53,11.14-10a14.06,14.06,0,0,0,.69-4.06c.06-9.35,0-18.7,0-28,0-.31-.06-.62-.11-1.1Z"/></g></g></svg>