<svg id="layer" xmlns="http://www.w3.org/2000/svg" viewBox="0 0 652 652"><defs><style>.cls-1{fill:#fff;}.cls-2{fill:#eb6209;}</style></defs><title>snipes</title><path class="cls-1" d="M295.7,352.3c0,5,1.6,8.9,4.4,11.4a15.88,15.88,0,0,0,10.6,4,15,15,0,0,0,10.6-4.1c3-2.7,4.4-6.6,4.4-11.3V267.1c0-4.9-1.4-8.6-4.6-11.3a15.22,15.22,0,0,0-21,0c-2.9,2.7-4.4,6.4-4.4,11.3Zm15.2-130.9a40.19,40.19,0,0,1,16.3,3.2,46.17,46.17,0,0,1,13.9,9.4,42.59,42.59,0,0,1,9.4,13,55.06,55.06,0,0,1,3.3,20.1v85.2c0,13-3.8,23.7-11.5,32.3a33.73,33.73,0,0,1-10.5,8q-9.15,4.5-21.6,3.9a19,19,0,0,1-14.4-8.6v44.7H267.9V264.7c0-11.9,4.3-22,13-30.6a45.45,45.45,0,0,1,13-9.2,40.76,40.76,0,0,1,17-3.5Z"/><rect class="cls-1" x="224.7" y="267.7" width="27.9" height="125.9"/><path class="cls-1" d="M197.3,235.1c8.7,8.4,13,18.4,13,30V393.6h-28V267.1a15.31,15.31,0,0,0-4.4-11.1,14.77,14.77,0,0,0-10.7-4.6,15,15,0,0,0-10.6,4.4,15.3,15.3,0,0,0-4.6,11.3V393.6H124.1V265.8c0-11.9,4.2-22,13-30.6,8.6-8.6,18.7-12.9,30-12.9,11.5.1,21.6,4.3,30.2,12.8Z"/><path class="cls-2" d="M625.1,271.5a12.42,12.42,0,0,1-12.3,12.3H574.2a12.42,12.42,0,0,1-12.3-12.3V233.1a12.36,12.36,0,0,1,12.3-12.3h38.6a12.29,12.29,0,0,1,12.3,12.3Z"/><path class="cls-2" d="M247.7,221.9a5.55,5.55,0,0,1,5.7,5.6v16a5.76,5.76,0,0,1-5.7,5.7H230.3a5.61,5.61,0,0,1-5.6-5.7v-16a5.47,5.47,0,0,1,5.6-5.6Z"/><path class="cls-1" d="M538.8,295.2a47.74,47.74,0,0,0-30.7-12.6,17.73,17.73,0,0,1-10.8-5.1,15.56,15.56,0,0,1-4.1-10.7,16.51,16.51,0,0,1,4-10.9c2.5-3.3,6.3-4.9,11-4.9q12.6,0,15,12h28c0-11.9-4.4-21.7-13.1-29.4A43.93,43.93,0,0,0,508.2,222c-11.8,0-21.8,4.3-30.3,13-8.3,8.6-12.4,19.3-12.4,31.7,0,12.6,4.1,23.2,12.3,31.6a41.92,41.92,0,0,0,30.4,13.3c5,0,8.7,1.1,11.5,3.3,2.6,2.3,3.9,5.8,3.9,10.7v24.8a18.58,18.58,0,0,1-3.6,11.3c-2.4,3.1-6.3,4.7-11.7,4.7-7.1,0-11.7-3.1-14-9.6l-.7-3.7V328.4h-28v23.3l.3,4.6v.5a46.46,46.46,0,0,0,13.9,26.3c8.3,8.1,17.9,12.2,28.5,12.2,12.9,0,23.4-4,31.3-12.2,8-8,12-18.2,12-30.5V325.2c-.2-12.3-4.5-22.3-12.8-30Z"/><path class="cls-1" d="M98.6,295.2a47.74,47.74,0,0,0-30.7-12.6A18.28,18.28,0,0,1,57,277.5a15.56,15.56,0,0,1-4.1-10.7,16.51,16.51,0,0,1,4-10.9c2.6-3.3,6.3-4.9,11-4.9q12.6,0,15,12h28q0-17.85-13.2-29.4A43.93,43.93,0,0,0,67.8,222C56,222,46,226.3,37.5,235c-8.3,8.6-12.4,19.3-12.4,31.7,0,12.6,4.2,23.2,12.3,31.6a41.92,41.92,0,0,0,30.4,13.3c5,0,8.7,1.1,11.4,3.3s3.9,5.8,3.9,10.7v24.8a18,18,0,0,1-3.6,11.3c-2.4,3.1-6.3,4.7-11.7,4.7-7.1,0-11.7-3.1-14-9.6l-.7-3.7V328.4h-28v23.3l.3,4.6v.5a46.91,46.91,0,0,0,13.8,26.3c8.3,8.1,17.9,12.2,28.6,12.2,12.9,0,23.4-4,31.3-12.2,8-8,12-18.2,12-30.5V325.2c0-12.3-4.3-22.3-12.5-30Z"/><path class="cls-1" d="M394.9,266.5a15.05,15.05,0,0,1,15.4-15.7,15.14,15.14,0,0,1,10.7,4.4,14.57,14.57,0,0,1,4.6,11.3v16.2H394.9Zm58.4,42.3V264.5a39.82,39.82,0,0,0-13.1-30c-8.7-8.4-18.9-12.7-30.3-12.7-12.4,0-22.7,4.1-30.7,12.3s-12,18.6-12,31.2V352c0,12.4,4,22.9,12.1,31,8.2,8.3,18.4,12.3,30.7,12.3,11.8,0,21.9-3.9,29.8-11.4,8.2-7.6,12.6-17.4,13.3-29.4V329.2H424.8v24.3l-.1,1.4c-1.8,7.6-6.9,11.4-14.9,11.4a14.35,14.35,0,0,1-10.6-4.4,15.14,15.14,0,0,1-4.4-11.3V308.9h58.5Z"/></svg>