<?xml version="1.0" encoding="utf-8"?>
<!-- Generator: Adobe Illustrator 24.0.0, SVG Export Plug-In . SVG Version: 6.00 Build 0)  -->
<svg version="1.1" id="layer" xmlns="http://www.w3.org/2000/svg" xmlns:xlink="http://www.w3.org/1999/xlink" x="0px" y="0px"
	 viewBox="0 0 652 652" style="enable-background:new 0 0 652 652;" xml:space="preserve">
<style type="text/css">
	.st0{fill:url(#SVGID_1_);}
	.st1{fill:url(#SVGID_2_);}
	.st2{fill:url(#SVGID_3_);}
	.st3{fill:url(#SVGID_4_);}
	.st4{fill:url(#SVGID_5_);}
	.st5{fill:url(#SVGID_6_);}
	.st6{fill:url(#SVGID_7_);}
	.st7{fill:url(#SVGID_8_);}
</style>
<linearGradient id="SVGID_1_" gradientUnits="userSpaceOnUse" x1="228.4996" y1="393.1997" x2="364.4028" y2="257.2965">
	<stop  offset="0" style="stop-color:#4DAEFE"/>
	<stop  offset="1" style="stop-color:#20D6FE"/>
</linearGradient>
<path class="st0" d="M295.7,352.3c0,5,1.6,8.9,4.4,11.4c3,2.6,6.6,4,10.6,4c4.2,0,7.7-1.4,10.6-4.1c3-2.7,4.4-6.6,4.4-11.3v-85.2
	c0-4.9-1.4-8.6-4.6-11.3c-3-2.9-6.6-4.2-10.4-4.2c-4,0-7.6,1.3-10.6,4.2c-2.9,2.7-4.4,6.4-4.4,11.3V352.3z M310.9,221.4
	c5.8,0,11.3,1,16.3,3.2c5,2.1,9.6,5.3,13.9,9.4c4.1,4,7.3,8.3,9.4,13c2.3,5.9,3.3,12.6,3.3,20.1v85.2c0,13-3.8,23.7-11.5,32.3
	c-3,3.5-6.6,6-10.5,8c-6.1,3-13.3,4.3-21.6,3.9c-6-0.6-10.7-3.3-14.4-8.6v44.7h-27.9V264.7c0-11.9,4.3-22,13-30.6c4-4,8.3-7,13-9.2
	C299.2,222.5,304.9,221.4,310.9,221.4"/>
<linearGradient id="SVGID_2_" gradientUnits="userSpaceOnUse" x1="200.2" y1="369.1" x2="277.1" y2="292.2">
	<stop  offset="0" style="stop-color:#4DAEFE"/>
	<stop  offset="1" style="stop-color:#20D6FE"/>
</linearGradient>
<rect x="224.7" y="267.7" class="st1" width="27.9" height="125.9"/>
<linearGradient id="SVGID_3_" gradientUnits="userSpaceOnUse" x1="109.2988" y1="378.7988" x2="225.1544" y2="262.9431">
	<stop  offset="0" style="stop-color:#4DAEFE"/>
	<stop  offset="1" style="stop-color:#20D6FE"/>
</linearGradient>
<path class="st2" d="M197.3,235.1c8.7,8.4,13,18.4,13,30v128.5h-28V267.1c0-4.3-1.4-8-4.4-11.1c-3-3-6.6-4.6-10.7-4.6
	c-4.2,0-7.6,1.6-10.6,4.4c-3,3-4.6,6.7-4.6,11.3v126.5h-27.9V265.8c0-11.9,4.2-22,13-30.6c8.6-8.6,18.7-12.9,30-12.9
	C178.6,222.4,188.7,226.6,197.3,235.1"/>
<linearGradient id="SVGID_4_" gradientUnits="userSpaceOnUse" x1="565.5781" y1="280.2031" x2="621.4407" y2="224.3405">
	<stop  offset="0" style="stop-color:#4DAEFE"/>
	<stop  offset="1" style="stop-color:#20D6FE"/>
</linearGradient>
<path class="st3" d="M625.1,271.5c0,6.7-5.6,12.3-12.3,12.3h-38.6c-6.7,0-12.3-5.6-12.3-12.3v-38.4c0-6.8,5.6-12.3,12.3-12.3h38.6
	c6.7,0,12.3,5.4,12.3,12.3V271.5z"/>
<linearGradient id="SVGID_5_" gradientUnits="userSpaceOnUse" x1="226.6493" y1="247.8632" x2="251.3815" y2="223.131">
	<stop  offset="0" style="stop-color:#4DAEFE"/>
	<stop  offset="1" style="stop-color:#20D6FE"/>
</linearGradient>
<path class="st4" d="M247.7,221.9c3.2,0,5.7,2.4,5.7,5.6v16c0,3.1-2.6,5.7-5.7,5.7h-17.4c-3.2,0-5.6-2.6-5.6-5.7v-16
	c0-3.2,2.4-5.6,5.6-5.6H247.7z"/>
<linearGradient id="SVGID_6_" gradientUnits="userSpaceOnUse" x1="457.2478" y1="360.5546" x2="561.2097" y2="256.5927">
	<stop  offset="0" style="stop-color:#4DAEFE"/>
	<stop  offset="1" style="stop-color:#20D6FE"/>
</linearGradient>
<path class="st5" d="M538.8,295.2c-8.4-7.7-18.7-12-30.7-12.6c-4.5-0.6-8.1-2.3-10.8-5.1c-2.7-3-4.1-6.6-4.1-10.7
	c0-4,1.3-7.7,4-10.9c2.5-3.3,6.3-4.9,11-4.9c8.4,0,13.4,4,15,12h28c0-11.9-4.4-21.7-13.1-29.4c-8.7-7.7-18.7-11.6-29.9-11.6
	c-11.8,0-21.8,4.3-30.3,13c-8.3,8.6-12.4,19.3-12.4,31.7c0,12.6,4.1,23.2,12.3,31.6c8.3,8.6,18.3,13,30.4,13.3c5,0,8.7,1.1,11.5,3.3
	c2.6,2.3,3.9,5.8,3.9,10.7v24.8c0,4.3-1.2,8-3.6,11.3c-2.4,3.1-6.3,4.7-11.7,4.7c-7.1,0-11.7-3.1-14-9.6l-0.7-3.7v-24.7h-28v23.3
	l0.3,4.6v0.5c1.6,10,6.3,18.9,13.9,26.3c8.3,8.1,17.9,12.2,28.5,12.2c12.9,0,23.4-4,31.3-12.2c8-8,12-18.2,12-30.5v-27.4
	C551.4,312.9,547.1,302.9,538.8,295.2"/>
<linearGradient id="SVGID_7_" gradientUnits="userSpaceOnUse" x1="16.7254" y1="360.627" x2="120.796" y2="256.5564">
	<stop  offset="0" style="stop-color:#4DAEFE"/>
	<stop  offset="1" style="stop-color:#20D6FE"/>
</linearGradient>
<path class="st6" d="M98.6,295.2c-8.4-7.7-18.7-12-30.7-12.6c-4.5-0.6-8.1-2.3-10.9-5.1c-2.7-3-4.1-6.6-4.1-10.7c0-4,1.3-7.7,4-10.9
	c2.6-3.3,6.3-4.9,11-4.9c8.4,0,13.4,4,15,12h28c0-11.9-4.4-21.7-13.2-29.4C89,225.9,79,222,67.8,222c-11.8,0-21.8,4.3-30.3,13
	c-8.3,8.6-12.4,19.3-12.4,31.7c0,12.6,4.2,23.2,12.3,31.6c8.3,8.6,18.3,13,30.4,13.3c5,0,8.7,1.1,11.4,3.3c2.6,2.3,3.9,5.8,3.9,10.7
	v24.8c0,4.3-1.1,8-3.6,11.3c-2.4,3.1-6.3,4.7-11.7,4.7c-7.1,0-11.7-3.1-14-9.6l-0.7-3.7v-24.7h-28v23.3l0.3,4.6v0.5
	c1.6,10,6.3,18.9,13.8,26.3c8.3,8.1,17.9,12.2,28.6,12.2c12.9,0,23.4-4,31.3-12.2c8-8,12-18.2,12-30.5v-27.4
	C111.1,312.9,106.8,302.9,98.6,295.2"/>
<linearGradient id="SVGID_8_" gradientUnits="userSpaceOnUse" x1="357.4095" y1="361.1107" x2="462.125" y2="256.3952">
	<stop  offset="0" style="stop-color:#4DAEFE"/>
	<stop  offset="1" style="stop-color:#20D6FE"/>
</linearGradient>
<path class="st7" d="M394.9,266.5c0-4.5,1.4-8.3,4.4-11.3c3-2.9,6.7-4.4,11-4.4c4,0,7.7,1.5,10.7,4.4c3.2,3,4.6,6.7,4.6,11.3v16.2
	h-30.7V266.5z M453.3,308.8v-44.3c0-11.6-4.3-21.7-13.1-30c-8.7-8.4-18.9-12.7-30.3-12.7c-12.4,0-22.7,4.1-30.7,12.3
	c-8,8.3-12,18.6-12,31.2V352c0,12.4,4,22.9,12.1,31c8.2,8.3,18.4,12.3,30.7,12.3c11.8,0,21.9-3.9,29.8-11.4
	c8.2-7.6,12.6-17.4,13.3-29.4v-25.3h-28.3v24.3l-0.1,1.4c-1.8,7.6-6.9,11.4-14.9,11.4c-4.1,0-7.6-1.4-10.6-4.4s-4.4-6.7-4.4-11.3
	v-41.7h58.5V308.8z"/>
</svg>
