<?xml version="1.0" encoding="utf-8"?>
<!-- Generator: Adobe Illustrator 24.0.0, SVG Export Plug-In . SVG Version: 6.00 Build 0)  -->
<svg version="1.1" id="Layer_1" xmlns="http://www.w3.org/2000/svg" xmlns:xlink="http://www.w3.org/1999/xlink" x="0px" y="0px"
	 viewBox="0 0 1000 1000" style="enable-background:new 0 0 1000 1000;" xml:space="preserve">
<style type="text/css">
	.st0{fill:url(#SVGID_1_);}
</style>
<g>
	<linearGradient id="SVGID_1_" gradientUnits="userSpaceOnUse" x1="184.9414" y1="845.9789" x2="866.4083" y2="164.512">
		<stop  offset="0" style="stop-color:#4DAEFE"/>
		<stop  offset="1" style="stop-color:#20D6FE"/>
	</linearGradient>
	<path class="st0" d="M774.9,671.6c-28.7,180.8-161.6,308.9-346,308.9c-124.5,0-204.7-71.8-250.2-176l131.7-111.4
		c13.2,69.5,65.8,131.7,141.3,131.7c71.8,0,126.9-61.1,137.7-130.5c14.4-93.4-67.1-119.7-134.1-147.3
		c-107.8-47.9-184.4-106.6-161.6-246.7c24-149.7,154.5-270.6,306.5-270.6c80.2,0,184.4,39.5,229.9,100.6L728.2,252.6
		c-26.3-45.5-64.7-74.2-123.3-74.2c-56.3,0-117.3,43.1-126.9,101.8C454,432.2,822.8,368.7,774.9,671.6z"/>
</g>
</svg>
